<svg id="Layer_1" data-name="Layer 1" xmlns="http://www.w3.org/2000/svg" xmlns:xlink="http://www.w3.org/1999/xlink" viewBox="0 0 466.9 310.82"><defs><linearGradient id="linear-gradient-9" x1="343.41" y1="245.83" x2="371.88" y2="245.83" xlink:href="#linear-gradient"/><linearGradient id="linear-gradient-17" x1="87.39" y1="275.24" x2="158.31" y2="275.24" xlink:href="#linear-gradient"/><linearGradient id="linear-gradient-2" x1="398.57" y1="261.32" x2="406.59" y2="261.32" xlink:href="#linear-gradient"/><linearGradient id="linear-gradient-3" x1="323.51" y1="280.8" x2="329.74" y2="280.8" xlink:href="#linear-gradient"/><linearGradient id="linear-gradient-4" x1="341.86" y1="343.17" x2="394.15" y2="343.17" xlink:href="#linear-gradient"/><linearGradient id="linear-gradient-5" x1="349.68" y1="357.23" x2="381.36" y2="357.23" xlink:href="#linear-gradient"/><linearGradient id="linear-gradient-6" x1="323.13" y1="301.03" x2="408.03" y2="301.03" xlink:href="#linear-gradient"/><linearGradient id="linear-gradient-7" x1="323.02" y1="308.41" x2="408.2" y2="308.41" xlink:href="#linear-gradient"/><linearGradient id="linear-gradient-8" x1="322.92" y1="315.81" x2="408.36" y2="315.81" xlink:href="#linear-gradient"/><linearGradient id="linear-gradient" x1="322.86" y1="304.83" x2="408.8" y2="304.83" gradientUnits="userSpaceOnUse"><stop offset="0" stop-color="#ff2574"/><stop offset="1" stop-color="#ffa35a"/></linearGradient><linearGradient id="linear-gradient-10" x1="288.86" y1="277.37" x2="327.29" y2="277.37" xlink:href="#linear-gradient"/><linearGradient id="linear-gradient-11" x1="392.42" y1="236.64" x2="455.53" y2="236.64" xlink:href="#linear-gradient"/><linearGradient id="linear-gradient-12" x1="433.54" y1="251.76" x2="437.2" y2="251.76" xlink:href="#linear-gradient"/><linearGradient id="linear-gradient-13" x1="97.07" y1="302.65" x2="175.79" y2="302.65" xlink:href="#linear-gradient"/><linearGradient id="linear-gradient-14" x1="111.52" y1="324.74" x2="163.96" y2="324.74" xlink:href="#linear-gradient"/><linearGradient id="linear-gradient-15" x1="127.41" y1="322.32" x2="157.12" y2="322.32" xlink:href="#linear-gradient"/><linearGradient id="linear-gradient-16" x1="115.26" y1="275.13" x2="185.78" y2="275.13" xlink:href="#linear-gradient"/><style>.cls-2{fill:#cadff5}.cls-3{opacity:.81}.cls-4{fill:#ffa239}.cls-6{fill:#015288}.cls-7{fill:#01305a}.cls-8{fill:#001336}.cls-18{fill:#fb9e82}.cls-19{fill:#fc7972}.cls-20{fill:#fdbeab}.cls-21{fill:#fff}.cls-25{fill:#ff635c}.cls-26{fill:#fd7c78}.cls-27{fill:#ff9d3c}.cls-28{fill:#3b73a9}.cls-32{fill:#d64e5a}.cls-35{fill:#585b60}</style></defs><path d="M223.87 182.65c-15.16-51.3-83.47-67.82-122.61-29.48-.57.55-1.13 1.11-1.69 1.68C43.45 211.76 70 352 187.09 387.58s239-29.37 245.81-87.41-47.2-76.26-131.06-60c-47.38 9.13-68.53-25.58-77.97-57.52Z" transform="translate(-18.1 -104.47)" style="fill:#6d6f72"/><path class="cls-2" d="M68.31 287.62c-9.5-12.72-23.82-10.17-27 5.11-1 5-.8 11.36 1.75 19.21 9.74 29.87 29.5 38.13 39.54 18.91 6.22-11.85-4.89-30.61-14.29-43.23ZM437.22 302.84c-.58 11.34 9.64 17.91 19.39 12.21 3.22-1.88 6.29-5.07 8.7-10.27 9.16-19.8 1.08-34.58-15-30.72-9.88 2.38-12.52 17.53-13.09 28.78ZM52.51 213c-4.17 6.46-12.38 6-15.49-1a15 15 0 0 1-.72-9.09c2.8-14.5 13.09-19.43 20.38-11 4.5 5.3-.04 14.67-4.17 21.09ZM279.38 171.62l1.51-7.56-7.08-1.42a17.35 17.35 0 0 0-.92-5.54l5.86-3.91-4.28-6.41-5.61 3.73a17.17 17.17 0 0 0-5.72-3.88l1.42-7.09L257 138l-1.47 7.3a17 17 0 0 0-4.6.88l-3.93-5.83-6.41 4.28 3.73 5.6a17.21 17.21 0 0 0-3.88 5.73l-6.2-1.24-1.51 7.56 6.41 1.28a17.22 17.22 0 0 0 1.34 5.85l-5.61 3.73 4.28 6.42 5.86-3.9a17.28 17.28 0 0 0 5.62 3.29l-1.43 7.13 7.56 1.52 1.55-7.73a17.43 17.43 0 0 0 4.91-1.27l3.73 5.6 6.42-4.27-3.9-5.86a17 17 0 0 0 2.58-3.91Zm-19-3.1a7.07 7.07 0 1 1 2-9.8 7.07 7.07 0 0 1-2 9.8ZM241.55 127.74l.81-4.13-3.88-.76a9.31 9.31 0 0 0-.51-3l3.19-2.14-2.35-3.5-3.05 2a9.55 9.55 0 0 0-3.14-2.11l.76-3.88-4.14-.81-.78 4a9.22 9.22 0 0 0-2.52.49l-2.14-3.2-3.5 2.35 2 3.06a9.55 9.55 0 0 0-2.11 3.14l-3.39-.67-.81 4.14 3.51.69a9.44 9.44 0 0 0 .74 3.19l-3 2 2.35 3.5 3.19-2.15a9.38 9.38 0 0 0 3.08 1.79l-.76 3.9 4.13.81.83-4.22a9.5 9.5 0 0 0 2.68-.71l2 3.06 3.5-2.35-2.14-3.2a9.07 9.07 0 0 0 1.4-2.14Zm-10.39-1.65a3.87 3.87 0 1 1 1.05-5.36 3.87 3.87 0 0 1-1.05 5.36ZM431.85 222.59l.81-4.13-3.88-.76a9.31 9.31 0 0 0-.51-3l3.19-2.15-2.35-3.5-3.05 2.06a9.25 9.25 0 0 0-3.14-2.11l.76-3.88-4.14-.81-.78 4a9.61 9.61 0 0 0-2.52.49l-2.14-3.19-3.5 2.35 2 3.06a9.61 9.61 0 0 0-2.11 3.13l-3.38-.66-.82 4.14 3.51.68a9.17 9.17 0 0 0 .75 3.19l-3.06 2.06 2.35 3.5 3.19-2.15a9.43 9.43 0 0 0 3.09 1.79l-.77 3.9 4.14.81.82-4.23a9.39 9.39 0 0 0 2.68-.7l2.06 3.06 3.49-2.36-2.09-3.18a9.28 9.28 0 0 0 1.4-2.14Zm-10.39-1.66a3.86 3.86 0 1 1 1.05-5.36 3.86 3.86 0 0 1-1.05 5.36Z" transform="translate(-18.1 -104.47)"/><g class="cls-3"><path class="cls-4" d="M432 400.05h-28.87v-.08a37.34 37.34 0 0 1-1.37-8.85c-.34-10.1-.52-35.47 6-42 8.2-8.17 24.66-11.36 22.49-23.68s-.55-29.38 18.93-32.15 34.69-33.43 34.69-33.43 6.41 24.72-11.11 43.67-11 21.71-7.47 39.55 7.71 27.61-19 41.23A29.78 29.78 0 0 0 432 400.05Z" transform="translate(-18.1 -104.47)"/></g><path d="M446.85 324.16c1.28 23.11-3.54 36.14-15.64 42.25-7.6 3.84-15.59 12.4-20.84 22.34a63.37 63.37 0 0 0-4.66 11.3h-1.78a65.44 65.44 0 0 1 4.93-12.05c5.5-10.39 13.56-19 21.58-23.06 11.41-5.77 15.95-18.31 14.71-40.65-.8-14.37 12.64-24 13.22-24.38a.85.85 0 0 1 1 1.39c-.16.05-13.27 9.44-12.52 22.86Z" transform="translate(-18.1 -104.47)" style="fill:#778796"/><g class="cls-3"><path class="cls-4" d="m103.71 342.35 27.93-7.3V335a37.52 37.52 0 0 0-.9-8.9c-2.23-9.86-8.47-34.45-16.43-39.09-10-5.83-26.73-4.76-27.75-17.23s-6.89-28.57-26.44-26.33-42-23.57-42-23.57 0 25.54 21.8 39.44S56 277.51 57.11 295.66s-.48 28.66 28.83 35.09a29.68 29.68 0 0 1 17.77 11.6Z" transform="translate(-18.1 -104.47)"/></g><path class="cls-6" d="M70.16 272.67c4.6 22.69 12.56 34.08 25.81 36.93 8.33 1.8 18.22 8.06 25.81 16.35a62.92 62.92 0 0 1 7.36 9.76l1.72-.45A64.64 64.64 0 0 0 123 324.8c-7.94-8.67-17.93-15-26.71-16.86-12.5-2.7-20-13.68-24.5-35.61-2.86-14.11-18.3-20-18.95-20.25a.85.85 0 1 0-.6 1.59c.2.06 15.25 5.83 17.92 19Z" transform="translate(-18.1 -104.47)"/><path class="cls-7" d="M361.7 400.11a3245.726 3245.726 0 0 0 1.5-25.95l-4.1-.16-2.33-.11-28-1.24s-.51 8-1.11 19.81c-.12 2.41-.25 5-.38 7.67Z" transform="translate(-18.1 -104.47)"/><path class="cls-8" d="m359.1 374 4.11.18s-.39 7.17-1 17.69a249.92 249.92 0 0 1-34.53.59c.6-11.79 1.11-19.81 1.11-19.81l28 1.24Z" transform="translate(-18.1 -104.47)"/><path class="cls-8" d="M357.62 400.11c.65-11.23 1.19-20.85 1.48-26.13l-2.32-.11c-.29 5.31-.83 15-1.48 26.24Z" transform="translate(-18.1 -104.47)"/><path class="cls-7" d="M370.73 400.11h34.41c-.13-2.69-.26-5.26-.38-7.67-.6-11.79-1.11-19.81-1.11-19.81l-28 1.24-2.33.1-4.11.19s.39 7.17 1 17.69c.18 2.57.34 5.35.52 8.26Z" transform="translate(-18.1 -104.47)"/><path class="cls-8" d="m373.34 374-4.12.18s.4 7.17 1 17.69a249.92 249.92 0 0 0 34.53.59c-.6-11.79-1.11-19.81-1.11-19.81l-28 1.24Z" transform="translate(-18.1 -104.47)"/><path class="cls-8" d="M377.13 400.11a8574.3 8574.3 0 0 1-1.47-26.24l-2.33.1c.29 5.29.83 14.91 1.48 26.14Z" transform="translate(-18.1 -104.47)"/><path d="M408.8 383.7c-28.93 5.87-57.21 4.88-85.67-1 0-33.66-.34-51.39-.26-59.91V306.48q0-1.77.06-3.51v-.11c0-1.25.05-2.51.07-3.76.09-4.72.19-9.36.31-13.83 0-.95.05-1.9.07-2.84.56-20.11 1.46-36.45 2.86-41.54a4.77 4.77 0 0 1 .53-1.34 10.62 10.62 0 0 1 .72-.92 14.89 14.89 0 0 1 1.19-1.21 59.13 59.13 0 0 1 11.55-8.25c.63-.37 3.53-1.81 4.2-2.09 5.7-2.4 14.74-5 14.83-5.05l15.32 1.07c1.83 1.08 16.32 6 18.1 7.11l1.55 1c4.17 2.68 7.71 5.35 9.26 7.62 1.15 1.69 2.07 10.37 2.79 22.78 0 .62.08 1.24.11 1.87.56 10.16 1 22.59 1.34 35.63 0 1.29.07 2.58.1 3.87v.49l.06 2.2v.82c0 1.28.06 2.57.08 3.86s.06 2.36.08 3.54v3.9q.08 4.08.14 8.13c.09 5.44.17 10.8.24 15.95v1.75c.34 1.27.36 12.92.37 40.08Z" transform="translate(-18.1 -104.47)" style="fill:url(#linear-gradient)"/><path d="m406.59 263.46-7.44-2.61a.86.86 0 0 1 .57-1.63l6.77 2.38c.03.61.07 1.23.1 1.86Z" transform="translate(-18.1 -104.47)" style="fill:url(#linear-gradient-2)"/><path d="m329.55 277.74-6 7.53c0-1 .05-1.91.07-2.84l4.63-5.77a.86.86 0 1 1 1.34 1.08Z" transform="translate(-18.1 -104.47)" style="fill:url(#linear-gradient-3)"/><path d="M393.4 356.67c-15.4-.06-28.55-7.07-36.86-12.94A84.36 84.36 0 0 1 342 330.89a.72.72 0 0 1 .09-1 .73.73 0 0 1 1 .08 82.31 82.31 0 0 0 14.25 12.61c8.14 5.74 21 12.58 36 12.65a.74.74 0 0 1 .74.74.75.75 0 0 1-.68.7Z" transform="translate(-18.1 -104.47)" style="fill:url(#linear-gradient-4)"/><path d="M377.35 361.91c-13.36 0-26.69-7.62-27.3-8a.74.74 0 1 1 .75-1.28c.15.09 15.83 9 29.74 7.61a.73.73 0 0 1 .81.66.74.74 0 0 1-.66.81c-1.11.14-2.22.2-3.34.2Z" transform="translate(-18.1 -104.47)" style="fill:url(#linear-gradient-5)"/><path d="M323.13 302.86v.1H408c0-1.29-.07-2.58-.1-3.86h-84.7c-.03 1.25-.04 2.5-.07 3.76Z" transform="translate(-18.1 -104.47)" style="fill:url(#linear-gradient-6)"/><path d="M323 310.34h85.2c0-1.29-.05-2.58-.08-3.87h-85.05V309.08c-.07.42-.07.84-.07 1.26Z" transform="translate(-18.1 -104.47)" style="fill:url(#linear-gradient-7)"/><path d="M322.92 317.74h85.44V313.85H323v1.46c-.06.83-.06 1.63-.08 2.43Z" transform="translate(-18.1 -104.47)" style="fill:url(#linear-gradient-8)"/><path d="M371.08 255.32a.81.81 0 0 0 .79-.65.8.8 0 0 0-.64-.93c-20.16-3.83-26.24-16.8-26.3-16.93a.79.79 0 0 0-1.05-.4.81.81 0 0 0-.4 1.06c.26.56 6.49 13.85 27.45 17.83Z" transform="translate(-18.1 -104.47)" style="fill:url(#linear-gradient-9)"/><path class="cls-7" d="M344.35 175.51s-1.5-9.18.73-12.3 5.86-2.19 9.74-5.78 15.72-.16 20.9-1.1c2.85-.51 5.88-.13 8.66-.7 4-.81 6.13 3.16 5.17 7.06-.62 2.48-1.86 6.21-5.45 7.18 0 0-34.43-6.27-39.75 5.64Z" transform="translate(-18.1 -104.47)"/><path class="cls-7" d="M343.56 182.84c0 13.3 8.19 22.46 21.48 22.46s22.56-9.85 22.56-23.15-7.87-23.36-21.16-23.36c-15.95 0-22.88 10.76-22.88 24.05Z" transform="translate(-18.1 -104.47)"/><path class="cls-18" d="M346.55 188.57s-3.69-4.93-6.44-.86 1.14 16.11 7.86 13.17Z" transform="translate(-18.1 -104.47)"/><path class="cls-19" d="M346.5 197.16a.56.56 0 0 1-.54-.41c-1-3.72-4.89-5.22-4.93-5.24a.56.56 0 0 1-.33-.73.57.57 0 0 1 .73-.33c.18.07 4.42 1.71 5.62 6a.56.56 0 0 1-.39.7Z" transform="translate(-18.1 -104.47)"/><path class="cls-19" d="M342.62 195.29a.59.59 0 0 1-.31-.09.57.57 0 0 1-.17-.78 5.1 5.1 0 0 1 2.13-1.72.56.56 0 0 1 .75.28.58.58 0 0 1-.28.76 4.13 4.13 0 0 0-1.64 1.26.56.56 0 0 1-.48.29Z" transform="translate(-18.1 -104.47)"/><path class="cls-18" d="M384.62 188.57s3.69-4.93 6.44-.86-1.14 16.11-7.86 13.17Z" transform="translate(-18.1 -104.47)"/><path class="cls-19" d="M384.66 197.16a.57.57 0 0 0 .55-.41c1-3.72 4.89-5.22 4.93-5.24a.57.57 0 0 0-.4-1.06c-.18.07-4.42 1.71-5.62 6a.56.56 0 0 0 .39.7Z" transform="translate(-18.1 -104.47)"/><path class="cls-19" d="M388.55 195.29a.61.61 0 0 0 .31-.09.57.57 0 0 0 .17-.78 5.09 5.09 0 0 0-2.14-1.72.57.57 0 1 0-.46 1 4.23 4.23 0 0 1 1.64 1.29.56.56 0 0 0 .48.3Z" transform="translate(-18.1 -104.47)"/><path class="cls-20" d="M374.68 211.08v12s-3.57 6.09-8.4 6.51-9.1-5.24-9.1-5.24v-12.43Z" transform="translate(-18.1 -104.47)"/><path class="cls-18" d="M374.68 211.08v5.31c-3.24 3.59-9 4.49-17.5 3.23v-7.7Z" transform="translate(-18.1 -104.47)"/><path class="cls-20" d="M344.59 188.34c.05.69.11 1.4.17 2.1.18 1.79.42 3.62.75 5.44v.18c1.61 8.82 5.22 17.49 13 20.27 17.63 6.3 23.93-8.82 26.45-17.63.27-1 .53-2.07.75-3.23a.49.49 0 0 1 0-.15c.24-1.3.45-2.69.63-4.12.14-1.06.25-2.14.35-3.22.26-2.63.43-5.28.54-7.62a12.44 12.44 0 0 0-8-12.21c-7.23-2.78-18.21-5-28.61.92a12.47 12.47 0 0 0-6.34 10.63c.04 2.43.08 5.42.31 8.64Z" transform="translate(-18.1 -104.47)"/><path class="cls-7" d="M358.12 189.27c0 1.28-.66 2.31-1.47 2.31s-1.47-1-1.47-2.31.66-2.31 1.47-2.31 1.47 1.04 1.47 2.31ZM375.72 189.27c0 1.28-.66 2.31-1.47 2.31s-1.47-1-1.47-2.31.65-2.31 1.47-2.31 1.47 1.04 1.47 2.31ZM379.15 181.65s-4.63-1.83-8.21-.29l.36 2s5.24-.44 7.88.63a3.43 3.43 0 0 0-.03-2.34ZM351.65 181.65s4.64-1.83 8.21-.29l-.36 2s-5.24-.44-7.88.63a3.43 3.43 0 0 1 .03-2.34Z" transform="translate(-18.1 -104.47)"/><path class="cls-18" d="M366.16 199.29a5.73 5.73 0 0 1-2.09-.18.56.56 0 1 1 .29-1.09 3.45 3.45 0 0 0 2.29-.06.64.64 0 0 0 .22-.56c0-2-1.39-8.54-1.4-8.6a.57.57 0 0 1 1.11-.23 83.19 83.19 0 0 1 1.42 8.8 1.72 1.72 0 0 1-.65 1.48 2.36 2.36 0 0 1-1.19.44Z" transform="translate(-18.1 -104.47)"/><path class="cls-21" d="M358.39 202.7c.46 2.34 2 6.64 7.21 6.64s6.67-3.93 7.18-6.64Z" transform="translate(-18.1 -104.47)"/><path class="cls-7" d="M386.69 188.67h-2.58c.29-2.59-.65-5.71-1.43-7.79-1.76-4.72 2-6.81-1-9.17s-10.57-1.35-15.81-1.52-13.76-.1-15.81.38-.94 3.89-.18 6.55-2.53 5.58-3.08 8.32a11.9 11.9 0 0 0 0 3.23h-2.15c-.25-3.34-.29-6.45-.24-9a12.48 12.48 0 0 1 6.33-10.63c10.41-5.9 21.39-3.7 28.61-.92a12.46 12.46 0 0 1 8 12.21c-.18 2.58-.35 5.47-.66 8.34Z" transform="translate(-18.1 -104.47)"/><path d="m327 239.54-38.11 53.92 8.35 21.73 26.37-32.66s4.98-22.6 3.39-42.99Z" transform="translate(-18.1 -104.47)" style="fill:url(#linear-gradient-10)"/><path d="M452.05 268.74c-1.75 3.12-6 3.8-11.38 3.14a62.33 62.33 0 0 1-10.73-2.51c-12.68-4-25.83-8.61-25.83-8.61L392.42 230s12.79 5.89 30 13.45c2.37 1 4.68 2 6.89 3 1.47.62 2.88 1.21 4.23 1.76l1.67.67.15-.6c.49-2 2.17-9.09 4.18-17.95 2.59-11.45 4.77-29.1 4.77-29.1l9.66 2.56s4.56 53.4-1.92 64.95Z" transform="translate(-18.1 -104.47)" style="fill:url(#linear-gradient-11)"/><path d="M436.58 255.33a.86.86 0 0 1-1.07-.58l-2-6.6 1.67.67.15-.6 1.8 6a.86.86 0 0 1-.55 1.11Z" transform="translate(-18.1 -104.47)" style="fill:url(#linear-gradient-12)"/><path class="cls-20" d="M449.55 205.2a9.41 9.41 0 0 1-8.36-2.49 7.56 7.56 0 0 1-1.8-2.75c-1.37-3.85-5.59-11.79-1.89-14 1.35-.81 1.56 3.56 4.38 5.82a57.78 57.78 0 0 0 3.82-8.09c1.1-3.19 3.91-9.07 5.22-11.79a.82.82 0 0 1 1.55.25c.09 1.32-.31 3.66-2.1 7.77 0 0 4.8-9.7 6.76-9.64s-4.26 12.09-4.26 12.09 5.75-8.66 7.2-7.93c.89.44-3.77 10.36-3.77 10.36s6.1-7.69 5.91-4.89c-.06.81-8.72 14.86-8.24 23.85a16.9 16.9 0 0 1-4.42 1.44Z" transform="translate(-18.1 -104.47)"/><path d="M443.3 407.36v.69a7.24 7.24 0 0 1-7.24 7.24H60.19a7.24 7.24 0 0 1-7.19-7.24v-.69a7.25 7.25 0 0 1 7.24-7.25h375.82a7.24 7.24 0 0 1 7.24 7.25Z" transform="translate(-18.1 -104.47)"/><path d="M443.3 407.36v.34H53v-.34a7.25 7.25 0 0 1 7.24-7.25h375.82a7.24 7.24 0 0 1 7.24 7.25Z" transform="translate(-18.1 -104.47)"/><path class="cls-25" d="M400.93 121.28a6.38 6.38 0 1 1 6.38-6.38 6.38 6.38 0 0 1-6.38 6.38Zm0-10.75a4.38 4.38 0 1 0 4.38 4.37 4.37 4.37 0 0 0-4.38-4.37Z" transform="translate(-18.1 -104.47)"/><path class="cls-26" d="M423.88 143.63a6.37 6.37 0 1 1 6.37-6.37 6.38 6.38 0 0 1-6.37 6.37Zm0-10.74a4.37 4.37 0 1 0 4.37 4.37 4.38 4.38 0 0 0-4.37-4.37Z" transform="translate(-18.1 -104.47)"/><path class="cls-27" d="M431.75 164.34a1 1 0 0 1-1-1v-4.41a1 1 0 0 1 2 0v4.41a1 1 0 0 1-1 1ZM431.75 172.06a1 1 0 0 1-1-1v-4.41a1 1 0 1 1 2 0v4.41a1 1 0 0 1-1 1ZM437.94 166h-4a1 1 0 0 1 0-2h4a1 1 0 1 1 0 2ZM429.52 166h-4a1 1 0 1 1 0-2h4a1 1 0 0 1 0 2ZM396.56 139.64a1 1 0 0 1-1-1v-4.41a1 1 0 1 1 2 0v4.41a1 1 0 0 1-1 1ZM396.56 147.36a1 1 0 0 1-1-1V142a1 1 0 0 1 2 0v4.41a1 1 0 0 1-1 .95ZM402.75 141.29h-4a1 1 0 0 1 0-2h4a1 1 0 0 1 0 2ZM394.33 141.29h-4a1 1 0 0 1 0-2h4a1 1 0 0 1 0 2Z" transform="translate(-18.1 -104.47)"/><path class="cls-25" d="M96.82 111.54a6.38 6.38 0 1 1 6.37 6.37 6.38 6.38 0 0 1-6.37-6.37Zm2 0a4.38 4.38 0 1 0 4.37-4.38 4.37 4.37 0 0 0-4.37 4.38Z" transform="translate(-18.1 -104.47)"/><path class="cls-26" d="M71.22 135.83a6.38 6.38 0 1 1 6.38 6.37 6.38 6.38 0 0 1-6.38-6.37Zm2 0a4.38 4.38 0 1 0 4.38-4.38 4.38 4.38 0 0 0-4.38 4.38Z" transform="translate(-18.1 -104.47)"/><path class="cls-27" d="M58 144.77a1 1 0 0 0 1-1v-4.41a1 1 0 0 0-2 0v4.41a1 1 0 0 0 1 1ZM58 152.49a1 1 0 0 0 1-1v-4.41a1 1 0 0 0-2 0v4.41a1 1 0 0 0 1 1ZM51.79 146.43h4a1 1 0 0 0 0-2h-4a1 1 0 1 0 0 2ZM60.2 146.43h4a1 1 0 0 0 0-2h-4a1 1 0 1 0 0 2ZM81 110.88a1 1 0 0 0 1-1v-4.41a1 1 0 0 0-2 0v4.41a1 1 0 0 0 1 1ZM81 118.6a1 1 0 0 0 1-1v-4.41a1 1 0 0 0-2 0v4.41a1 1 0 0 0 1 1ZM74.82 112.54h4a1 1 0 0 0 0-2h-4a1 1 0 0 0 0 2ZM83.24 112.54h4a1 1 0 0 0 0-2h-4a1 1 0 0 0 0 2Z" transform="translate(-18.1 -104.47)"/><path d="M290.83 365.7c0 .44 0 1.06-.08 1.86-.21 4.23-.72 13.84-1 32.54h-84.34V358.62c0-2.58.08-5.15.12-7.7.54-31.06 1.64-59.15 3.82-62.36 2.77-4.08 13.07-9.72 21.61-14.42.2-.1.39-.21.58-.32l.75-.41 2.31-1.28a73.64 73.64 0 0 0 7.33-4.45c.5.86 2.6 5.61 6.44 6 4.21.4 7.95-4.91 7.95-4.91v-1a90.9 90.9 0 0 0 7.9 4.92l2.24 1.31c.2.12.41.23.61.36.85.48 1.71 1 2.57 1.5 6.89 4 14 8.5 16.43 12s3.84 38.83 4.58 74.36V365.08c.19.13.19.34.18.62Z" transform="translate(-18.1 -104.47)"/><path d="M212.56 350.59a52.66 52.66 0 0 0-7.11 17.41v-5.76a51.52 51.52 0 0 1 2-5.3 54.23 54.23 0 0 1 3.84-7.14.74.74 0 0 1 .46-.31.72.72 0 0 1 .81 1.1ZM290.83 365.7c0 .44 0 1.06-.08 1.86a52.64 52.64 0 0 0-7-17 .71.71 0 0 1 .75-1.09.69.69 0 0 1 .45.31 55.55 55.55 0 0 1 3.85 7.15 51.62 51.62 0 0 1 2 5.23v1.86c.03.47.03.98.03 1.68ZM221.69 290.7s-14.69-17.13-4.47-29.27 34.54-11 42.54-9.8 31.44 15.18 14.68 34.95-52.75 4.12-52.75 4.12ZM224.67 356.36a58 58 0 0 0 28.19 11.71.77.77 0 0 0 .87-.78.75.75 0 0 0-.66-.74 56.45 56.45 0 0 1-27.46-11.41.76.76 0 0 0-1.23.59.76.76 0 0 0 .29.63ZM227.85 346.51a.73.73 0 0 0 .09.35c.4.69.85 1.41 1.37 2.15A30.93 30.93 0 0 0 247 361a.62.62 0 0 0 .19 0 .71.71 0 0 0 .68-.52.7.7 0 0 0-.5-.86c-10.18-2.76-15.51-8.9-18.18-13.5a.71.71 0 0 0-1.34.39Z" transform="translate(-18.1 -104.47)"/><path d="M258.48 286.61a52.47 52.47 0 0 1-15.63 10.63.72.72 0 0 0-.43.65.71.71 0 0 0 1 .66 51.54 51.54 0 0 0 9.9-5.67 54.45 54.45 0 0 0 6.19-5.25.73.73 0 0 0 .2-.51.72.72 0 0 0-1.23-.51ZM238 352.27a.63.63 0 0 1-.62-.6c-.66-29.84 0-60.06 0-60.36a.63.63 0 0 1 .62-.61.62.62 0 0 1 .6.64c0 .3-.66 30.49 0 60.3a.61.61 0 0 1-.6.63ZM261.47 352.27a.62.62 0 0 1-.61-.63c.66-29.81 0-60 0-60.3a.63.63 0 0 1 .61-.64.62.62 0 0 1 .62.61c0 .3.66 30.52 0 60.36a.62.62 0 0 1-.62.6Z" transform="translate(-18.1 -104.47)"/><path class="cls-7" d="M271.05 230.83c0 13.09-8.05 22.1-21.14 22.1s-22.2-9.69-22.2-22.77 7.75-23 20.83-23c15.69 0 22.51 10.59 22.51 23.67Z" transform="translate(-18.1 -104.47)"/><path class="cls-7" d="M229.42 239.43a10.16 10.16 0 0 1-6.49-7c-1.65-5.7 2.19-2.8 2.86-7.77s-4.9-8.65 0-11 1.94-7.56 6.26-10.25 10.64 2.27 14.77-1.86 12.5-3.1 14.88 0 3.41 2.35 7.87 3.18 6.51 8.06 4.34 11.4-.66 5.58 1.42 7.64.67 16.23-6.5 14.23-39.41 1.43-39.41 1.43Z" transform="translate(-18.1 -104.47)"/><path class="cls-18" d="M268.11 236.47s3.64-4.85 6.34-.84-1.12 15.84-7.74 13Z" transform="translate(-18.1 -104.47)"/><path class="cls-19" d="M268.16 244.93a.58.58 0 0 0 .54-.41c1-3.66 4.81-5.14 4.85-5.15a.57.57 0 0 0 .32-.72.56.56 0 0 0-.72-.33c-.18.07-4.35 1.69-5.53 5.89a.56.56 0 0 0 .39.69Z" transform="translate(-18.1 -104.47)"/><path class="cls-19" d="M272 243.08a.56.56 0 0 0 .47-.86 5.2 5.2 0 0 0-2.1-1.69.56.56 0 0 0-.46 1 4.09 4.09 0 0 1 1.62 1.28.57.57 0 0 0 .47.27Z" transform="translate(-18.1 -104.47)"/><path class="cls-18" d="M230.65 236.47s-3.63-4.85-6.33-.84 1.11 15.84 7.73 13Z" transform="translate(-18.1 -104.47)"/><path class="cls-19" d="M230.61 244.93a.57.57 0 0 1-.54-.41c-1-3.66-4.81-5.14-4.85-5.15a.57.57 0 0 1-.33-.72.56.56 0 0 1 .72-.33c.18.07 4.35 1.69 5.53 5.89a.55.55 0 0 1-.38.69Z" transform="translate(-18.1 -104.47)"/><path class="cls-19" d="M226.78 243.08a.55.55 0 0 1-.3-.09.56.56 0 0 1-.17-.77 5.2 5.2 0 0 1 2.1-1.69.56.56 0 1 1 .46 1 4.19 4.19 0 0 0-1.62 1.28.55.55 0 0 1-.47.27Z" transform="translate(-18.1 -104.47)"/><path class="cls-20" d="M240.43 258.62v11.77s3.51 6 8.26 6.41 9-5.16 9-5.16v-12.19Z" transform="translate(-18.1 -104.47)"/><path class="cls-18" d="M240.43 258.62v5.23c3.19 3.53 8.85 4.41 17.22 3.18v-7.58Z" transform="translate(-18.1 -104.47)"/><path class="cls-20" d="M270.06 236.09a71.87 71.87 0 0 1-1 7.75c-1.58 8.68-5.13 17.21-12.79 20-17.35 6.2-23.55-8.68-26-17.35-.28-1-.52-2-.74-3.18-.39-2.07-.7-4.37-.93-6.69-.29-2.82-.48-5.67-.59-8.18a12.24 12.24 0 0 1 7.84-12c7.11-2.73 17.92-4.89 28.15.91a12.27 12.27 0 0 1 6.24 10.46c.07 2.29.03 5.19-.18 8.28Z" transform="translate(-18.1 -104.47)"/><path class="cls-7" d="M256.82 238c0 1.26.65 2.28 1.45 2.28s1.44-1 1.44-2.28-.64-2.27-1.44-2.27-1.45 1.02-1.45 2.27ZM239.77 238c0 1.25.65 2.27 1.45 2.27s1.44-1 1.44-2.27-.64-2.28-1.44-2.28-1.45.98-1.45 2.28ZM264 231.58s-5.54-2.19-9.81-.35l.43 2.37s6.26-.53 9.42.75a4.12 4.12 0 0 0-.04-2.77ZM236.44 231.58s5.54-2.19 9.81-.35l-.43 2.37s-6.26-.53-9.41.75a4.06 4.06 0 0 1 .03-2.77Z" transform="translate(-18.1 -104.47)"/><path class="cls-18" d="M249.19 246.81a6 6 0 0 1-2-.43.56.56 0 1 1 .43-1 3.4 3.4 0 0 0 2.24.21.59.59 0 0 0 .27-.52 84.62 84.62 0 0 0-.33-8.57.56.56 0 0 1 1.11-.09 84.16 84.16 0 0 1 .34 8.77 1.71 1.71 0 0 1-.82 1.37 2.36 2.36 0 0 1-1.24.26Z" transform="translate(-18.1 -104.47)"/><path class="cls-21" d="M256.82 250.91c-.46 2.3-2 6.53-7.09 6.53s-6.57-3.87-7.07-6.53Z" transform="translate(-18.1 -104.47)"/><path class="cls-7" d="M228.62 236.57h2.53c-.28-2.55-.68-7 1.41-7.67 6.6-2-2-6.7 1-9s10.4-1.34 15.56-1.5 13.54-.1 15.56.37.92 3.84.18 6.45 2.48 5.49 3 8.19a12.38 12.38 0 0 1 0 3.18H270c.25-3.29.29-6.35.24-8.83a12.27 12.27 0 0 0-6.24-10.48c-10.24-5.8-21-3.64-28.16-.91a12.24 12.24 0 0 0-7.84 12c.14 2.53.33 5.38.62 8.2Z" transform="translate(-18.1 -104.47)"/><path class="cls-28" d="M298.5 400.1c-2.9-12.5-5.68-24.94-5.71-30.82l-1.62-5.47-5.92-20-9.25-31.34s1.51-20.58 10.22-24.65c0 0 9.65 19.49 14.95 38.12.9 3.16 1.81 6.39 2.71 9.6 3.77 13.51 7.32 26.85 9 34.76s2.72 19 3.41 29.8ZM197.64 400.1c2.9-12.5 5.68-24.94 5.71-30.82l1.62-5.47 5.92-20 9.27-31.33s-2-19.85-10.68-23.91c0 0-9.19 18.75-14.49 37.38-.9 3.16-1.81 6.39-2.7 9.6-3.78 13.51-7.33 26.85-9 34.76s-2.72 19-3.42 29.8Z" transform="translate(-18.1 -104.47)"/><path class="cls-7" d="M131.44 400.1c.17-2.92.32-5.69.46-8.26.57-10.51.94-17.69.94-17.69L129 374l-2.15-.11-25.85-1.27s-.47 8-1 19.81c-.12 2.41-.23 5-.35 7.67Z" transform="translate(-18.1 -104.47)"/><path class="cls-8" d="m129 374 3.8.18s-.37 7.18-.94 17.69a213.1 213.1 0 0 1-31.88.59c.55-11.79 1-19.81 1-19.81l25.85 1.24Z" transform="translate(-18.1 -104.47)"/><path class="cls-8" d="M127.68 400.1c.6-11.23 1.09-20.85 1.36-26.13l-2.15-.11c-.27 5.31-.76 15-1.36 26.24Z" transform="translate(-18.1 -104.47)"/><path class="cls-7" d="M139.77 400.1h31.78c-.12-2.69-.23-5.26-.35-7.67-.55-11.79-1-19.81-1-19.81l-25.85 1.24-2.15.1-3.8.19s.37 7.17.94 17.69c.12 2.57.27 5.34.43 8.26Z" transform="translate(-18.1 -104.47)"/><path class="cls-8" d="m142.18 374-3.8.18s.37 7.18.94 17.69a213.1 213.1 0 0 0 31.88.59c-.55-11.79-1-19.81-1-19.81l-25.85 1.24Z" transform="translate(-18.1 -104.47)"/><path class="cls-8" d="M145.69 400.1c-.6-11.27-1.09-20.93-1.36-26.24l-2.15.1c.27 5.29.76 14.91 1.36 26.14Z" transform="translate(-18.1 -104.47)"/><path class="cls-7" d="M135.89 153.82s-21.14-2.12-26.78 29-9.43 50.68-8.15 67.25 55.62 12.2 64.04 3.93-.77-63.91-2.86-78.69-17.85-22.96-26.25-21.49Z" transform="translate(-18.1 -104.47)"/><path d="M102.46 303.24c.1 1.89.18 3.8.25 5.72.39 11.49-3.49 28-4.87 68 22.26 6.68 51.09 5.74 76.62-.09-1.37-40.05-4.2-56.44-3.81-67.93.14-4.09.36-8.12.61-12.06.93-14.17 2.47-27.06 3.49-36.82 1-9.92 1.55-16.62.34-18.15a23.19 23.19 0 0 0-4.86-4.17 121.52 121.52 0 0 0-11.37-6.61l-2.29-1.13c-4.69-2.44-9-4.64-11.51-6.29a19.79 19.79 0 0 1-8.16 2.06h-.44a19.71 19.71 0 0 1-8.15-2.06c-2.63 1.75-7.48 4.18-12.6 6.87L113 232c-2.57 1.38-5.12 2.79-7.42 4.19-1 .6-1.89 1.19-2.75 1.78a23 23 0 0 0-5 4.3c-2.44 3.08 2.53 26.92 4.44 56.08.01 1.65.11 3.24.19 4.89Z" transform="translate(-18.1 -104.47)" style="fill:url(#linear-gradient-13)"/><path d="M163.22 338.29c-15.45-.07-28.64-7.1-37-13a83.87 83.87 0 0 1-14.54-12.88.74.74 0 1 1 1.13-.95 83.84 83.84 0 0 0 14.3 12.64c8.16 5.75 21.05 12.62 36.09 12.69a.75.75 0 0 1 0 1.49Z" transform="translate(-18.1 -104.47)" style="fill:url(#linear-gradient-14)"/><path d="M153 329.29c-13.15-2.58-24.79-12.66-25.32-13.12a.74.74 0 0 1 1-1.12c.13.12 13.83 12 27.8 13.24a.74.74 0 0 1-.14 1.48 31.23 31.23 0 0 1-3.34-.48Z" transform="translate(-18.1 -104.47)" style="fill:url(#linear-gradient-15)"/><path class="cls-32" d="M130.72 256.34a.74.74 0 0 1-.14-1.47c18.83-3.58 24.51-15.69 24.56-15.82a.75.75 0 1 1 1.36.62c-.24.52-6.06 12.94-25.65 16.66Z" transform="translate(-18.1 -104.47)"/><path class="cls-20" d="M156.57 230c-4.48 7.55-12.23 15.28-22.19 13.56-9.16-1.59-14.77-7.46-18.67-13 5.13-2.69 10-5.12 12.6-6.87a19.71 19.71 0 0 0 8.15 2.06h.44a19.79 19.79 0 0 0 8.16-2.06c2.47 1.63 6.82 3.83 11.51 6.31Z" transform="translate(-18.1 -104.47)"/><path class="cls-21" d="M122.31 228.26a1.36 1.36 0 0 1-.29 0l-.28-.08a1.23 1.23 0 0 1-.25-.14 1.3 1.3 0 0 1-.23-.18 1.5 1.5 0 0 1-.43-1 1.36 1.36 0 0 1 0-.29c0-.09 0-.19.08-.28a2 2 0 0 1 .14-.25 1.3 1.3 0 0 1 .18-.23 1.41 1.41 0 0 1 .23-.18 1.19 1.19 0 0 1 .25-.13 1.31 1.31 0 0 1 .28-.09 1.37 1.37 0 0 1 .57 0 1.31 1.31 0 0 1 .28.09 1.19 1.19 0 0 1 .25.13 2 2 0 0 1 .23.18 1.3 1.3 0 0 1 .18.23 2 2 0 0 1 .14.25c0 .09.06.19.08.28a1.36 1.36 0 0 1 0 .29 1.5 1.5 0 0 1-.43 1 1.3 1.3 0 0 1-.23.18 1.23 1.23 0 0 1-.25.14l-.28.08a1.33 1.33 0 0 1-.22 0Z" transform="translate(-18.1 -104.47)"/><path class="cls-21" d="M137.46 266.34a1.48 1.48 0 0 1-1.73 1.16 1.48 1.48 0 0 1-1.17-1.71 1.47 1.47 0 0 1-2 .5 1.46 1.46 0 0 1-.54-2 1.49 1.49 0 0 1-2.05-.08 1.47 1.47 0 0 1 0-2 1.49 1.49 0 0 1-2-.47 1.47 1.47 0 0 1 .36-2 1.49 1.49 0 0 1-1.89-.72 1.48 1.48 0 0 1 .59-1.92 1.47 1.47 0 0 1-1.79-.9 1.47 1.47 0 0 1 .74-1.85 1.48 1.48 0 0 1-1.72-1 1.47 1.47 0 0 1 .87-1.79 1.48 1.48 0 0 1-1.66-1.11 1.48 1.48 0 0 1 1-1.75 1.46 1.46 0 0 1-1.6-1.17 1.46 1.46 0 0 1 1-1.71 1.46 1.46 0 0 1-1.56-1.23 1.46 1.46 0 0 1 1.08-1.66 1.48 1.48 0 0 1-1.52-1.28A1.48 1.48 0 0 1 123 240a1.48 1.48 0 0 1-1.48-1.32 1.47 1.47 0 0 1 1.17-1.6 1.49 1.49 0 0 1-1.45-1.36 1.48 1.48 0 0 1 1.21-1.57 1.48 1.48 0 0 1-1.42-1.39 1.49 1.49 0 0 1 1.26-1.55 1.47 1.47 0 0 1-1.4-1.42 1.47 1.47 0 0 1 1.42-1.52 1.47 1.47 0 0 1 1.52 1.42 1.47 1.47 0 0 1-1.25 1.51 1.48 1.48 0 0 1 1.39 1.39 1.47 1.47 0 0 1-1.21 1.53 1.49 1.49 0 0 1 1.41 1.36A1.47 1.47 0 0 1 123 237a1.48 1.48 0 0 1 1.44 1.32 1.49 1.49 0 0 1-1.14 1.6 1.47 1.47 0 0 1 1.48 1.28 1.47 1.47 0 0 1-1.08 1.62 1.47 1.47 0 0 1 1.51 1.23 1.47 1.47 0 0 1-1 1.65 1.47 1.47 0 0 1 1.54 1.18 1.47 1.47 0 0 1-1 1.69 1.48 1.48 0 0 1 1.59 1.11 1.48 1.48 0 0 1-.88 1.73 1.46 1.46 0 0 1 1.63 1 1.47 1.47 0 0 1-.78 1.76 1.47 1.47 0 0 1 1.69.92 1.47 1.47 0 0 1-.64 1.8 1.47 1.47 0 0 1 1.74.76 1.47 1.47 0 0 1-.44 1.83 1.48 1.48 0 0 1 1.79.56 1.49 1.49 0 0 1-.17 1.83 1.48 1.48 0 0 1 1.8.25 1.49 1.49 0 0 1 .23 1.75 1.47 1.47 0 0 1 1.73-.18 1.5 1.5 0 0 1 .71 1.54 1.46 1.46 0 0 1 1.53-.68 1.48 1.48 0 0 1 1.18 1.2 1.46 1.46 0 0 1 1.19-1.16 1.49 1.49 0 0 1 1.48.64 1.47 1.47 0 0 1 .64-1.49 1.47 1.47 0 0 1 1.71.05 1.47 1.47 0 0 1 .07-1.73 1.49 1.49 0 0 1 1.77-.43 1.47 1.47 0 0 1-.36-1.79 1.48 1.48 0 0 1 1.72-.75 1.46 1.46 0 0 1-.63-1.77 1.49 1.49 0 0 1 1.65-.95 1.46 1.46 0 0 1-.81-1.72 1.47 1.47 0 0 1 1.58-1.09 1.47 1.47 0 0 1-.94-1.67 1.48 1.48 0 0 1 1.52-1.19 1.47 1.47 0 0 1-1-1.63 1.46 1.46 0 0 1 1.48-1.25 1.48 1.48 0 0 1-1.11-1.6 1.48 1.48 0 0 1 1.43-1.31 1.47 1.47 0 0 1-1.16-1.56 1.47 1.47 0 0 1 1.39-1.36 1.47 1.47 0 0 1-1.21-1.52 1.48 1.48 0 0 1 1.36-1.4 1.48 1.48 0 0 1-1.25-1.5 1.47 1.47 0 0 1 1.33-1.42 1.49 1.49 0 0 1-1.29-1.47 1.48 1.48 0 0 1 1.29-1.46 1.48 1.48 0 0 1-1.31-1.44 1.47 1.47 0 0 1 1.25-1.48 1.48 1.48 0 0 1-1.33-1.41 1.48 1.48 0 0 1 1.42-1.54 1.48 1.48 0 0 1 1.53 1.42 1.47 1.47 0 0 1-1.25 1.51 1.48 1.48 0 0 1 1.33 1.45 1.47 1.47 0 0 1-1.28 1.49 1.46 1.46 0 0 1 1.3 1.47 1.47 1.47 0 0 1-1.32 1.46 1.47 1.47 0 0 1 1.28 1.5 1.47 1.47 0 0 1-1.36 1.43 1.48 1.48 0 0 1 1.25 1.54 1.46 1.46 0 0 1-1.4 1.39 1.48 1.48 0 0 1 1.21 1.57 1.47 1.47 0 0 1-1.44 1.36 1.48 1.48 0 0 1 1.16 1.61 1.48 1.48 0 0 1-1.49 1.31 1.47 1.47 0 0 1 1.1 1.65 1.45 1.45 0 0 1-1.53 1.25 1.48 1.48 0 0 1 1 1.71 1.47 1.47 0 0 1-1.61 1.17 1.48 1.48 0 0 1 .92 1.77 1.47 1.47 0 0 1-1.69 1.07 1.47 1.47 0 0 1 .78 1.85 1.48 1.48 0 0 1-1.8.91 1.48 1.48 0 0 1 .57 2 1.47 1.47 0 0 1-1.92.66 1.49 1.49 0 0 1 .19 2.05 1.48 1.48 0 0 1-2.05.25 1.47 1.47 0 0 1-.41 2 1.47 1.47 0 0 1-2-.41 1.49 1.49 0 0 1-1.2 1.71h-.26a1.48 1.48 0 0 1-1.49-1.16Z" transform="translate(-18.1 -104.47)"/><path class="cls-21" d="M149.23 227.43a1.36 1.36 0 0 1-.29 0l-.28-.08a1.23 1.23 0 0 1-.25-.14 1.3 1.3 0 0 1-.23-.18 1.48 1.48 0 0 1-.43-1 1.36 1.36 0 0 1 0-.29 2.29 2.29 0 0 1 .08-.28 2 2 0 0 1 .14-.25 1.3 1.3 0 0 1 .18-.23 2.31 2.31 0 0 1 .23-.18 1.19 1.19 0 0 1 .25-.13 1.31 1.31 0 0 1 .28-.09 1.37 1.37 0 0 1 .57 0 1.31 1.31 0 0 1 .28.09 1.19 1.19 0 0 1 .25.13l.23.18a1.89 1.89 0 0 1 .32.48c0 .09.06.19.08.28a1.36 1.36 0 0 1 0 .29 1.5 1.5 0 0 1-.43 1 1.3 1.3 0 0 1-.23.18 1.23 1.23 0 0 1-.25.14l-.28.08a1.33 1.33 0 0 1-.22 0Z" transform="translate(-18.1 -104.47)"/><path class="cls-18" d="M118 190s-4.62-5.25-7.15-1.58 1.06 15 7.19 12.43Z" transform="translate(-18.1 -104.47)"/><path class="cls-19" d="M116.6 197a.51.51 0 0 1-.49-.38 8 8 0 0 0-4.43-4.79.51.51 0 1 1 .37-1 8.86 8.86 0 0 1 5 5.48.5.5 0 0 1-.36.63Z" transform="translate(-18.1 -104.47)"/><path class="cls-19" d="M113.09 195.29a.52.52 0 0 1-.42-.8 4.6 4.6 0 0 1 1.94-1.54.51.51 0 0 1 .42.94 3.69 3.69 0 0 0-1.5 1.17.53.53 0 0 1-.44.23Z" transform="translate(-18.1 -104.47)"/><path class="cls-18" d="M154.71 190s4.62-5.25 7.14-1.58-1 15-7.18 12.43Z" transform="translate(-18.1 -104.47)"/><path class="cls-19" d="M156.13 197a.51.51 0 0 0 .49-.38 8 8 0 0 1 4.43-4.79.51.51 0 1 0-.37-1 8.9 8.9 0 0 0-5.06 5.48.52.52 0 0 0 .37.63Z" transform="translate(-18.1 -104.47)"/><path class="cls-19" d="M159.64 195.29a.46.46 0 0 0 .27-.09.51.51 0 0 0 .15-.71 4.58 4.58 0 0 0-1.95-1.54.51.51 0 0 0-.68.26.52.52 0 0 0 .27.68 3.78 3.78 0 0 1 1.5 1.17.53.53 0 0 0 .44.23Z" transform="translate(-18.1 -104.47)"/><path class="cls-20" d="M145.12 212v11.67s-3.48 6-8.19 6.35-8.87-5.12-8.87-5.12v-12.08Z" transform="translate(-18.1 -104.47)"/><path class="cls-18" d="M145.12 212v5.18c-3.16 3.51-8.76 4.75-17.06 3.52v-7.88Z" transform="translate(-18.1 -104.47)"/><path class="cls-20" d="M157.42 182a113.48 113.48 0 0 1-1.51 14.74c-.22 1.13-.46 2.19-.73 3.15-2.46 8.59-8.6 23.34-25.79 17.2-7.6-2.71-11.12-11.17-12.69-19.78a83.19 83.19 0 0 1-1.14-16 12.18 12.18 0 0 1 6.18-10.31c10.15-5.75 20.86-3.61 27.91-.9a12.15 12.15 0 0 1 7.77 11.9Z" transform="translate(-18.1 -104.47)"/><path class="cls-7" d="M133.65 170.35s-7.59 13-15.73 15.18c-.41 2.18-1.13 5-2.11 4.87s-1.16-3.05-1.09-4.66c-7.65-1.33.14-18.84 12.13-19.08Z" transform="translate(-18.1 -104.47)"/><path class="cls-7" d="M158.27 183.14s-.91 7.51-2.48 7.26-1-5.72-1-5.72l.26-.12c-30.47-1.87-28.15-17.67-28.15-17.67 32.2-7 31.06 9.64 31.39 15.57v.68ZM128.68 190.73c0 1.24-.64 2.25-1.43 2.25s-1.44-1-1.44-2.25.64-2.26 1.44-2.26 1.43 1.01 1.43 2.26ZM146.38 190.73c0 1.24-.64 2.25-1.43 2.25s-1.43-1-1.43-2.25.64-2.26 1.43-2.26 1.43 1.01 1.43 2.26ZM124.4 184a24 24 0 0 1 6.14-.92 1.06 1.06 0 0 1 1.06 1.25 1.08 1.08 0 0 1-1.1.87c-1.72-.08-6.26.16-8.4 1a1.63 1.63 0 0 1 .49-1.14 3.71 3.71 0 0 1 1.81-1.06Z" transform="translate(-18.1 -104.47)"/><path class="cls-7" d="M147.57 184.06a23.83 23.83 0 0 0-6.13-.92 1.06 1.06 0 0 0-1.06 1.25 1 1 0 0 0 1.1.87c1.72-.08 6.26.17 8.4 1a1.63 1.63 0 0 0-.49-1.14 3.68 3.68 0 0 0-1.82-1.06Z" transform="translate(-18.1 -104.47)"/><path class="cls-18" d="M136.44 201a2.34 2.34 0 0 1-1.2-.29 1.68 1.68 0 0 1-.81-1.35 80 80 0 0 1 .34-8.7.55.55 0 1 1 1.1.09c0 .07-.53 6.56-.33 8.49a.59.59 0 0 0 .27.52 3.35 3.35 0 0 0 2.22-.21.55.55 0 1 1 .42 1 5.79 5.79 0 0 1-2.01.45Z" transform="translate(-18.1 -104.47)"/><path class="cls-21" d="M129.4 204.52c.42 2.1 1.82 6 6.51 6s6-3.54 6.47-6Z" transform="translate(-18.1 -104.47)"/><path class="cls-18" d="M135.84 213.74a5.58 5.58 0 0 1-2.6-.76.55.55 0 1 1 .58-.94 3.91 3.91 0 0 0 4.15 0 .56.56 0 0 1 .76.19.55.55 0 0 1-.19.76 5.75 5.75 0 0 1-2.7.75Z" transform="translate(-18.1 -104.47)"/><path class="cls-7" d="M114.35 179.81c0 .13-.1.76-.19 1.66a12.58 12.58 0 0 1 .19-1.66Z" transform="translate(-18.1 -104.47)"/><path class="cls-21" d="M138.6 191.91a6.74 6.74 0 1 1 6.74 6.74 6.74 6.74 0 0 1-6.74-6.74Zm1.05 0a5.69 5.69 0 1 0 5.69-5.69 5.69 5.69 0 0 0-5.69 5.69ZM120.18 191.91a6.74 6.74 0 1 1 6.74 6.74 6.74 6.74 0 0 1-6.74-6.74Zm1 0a5.69 5.69 0 1 0 5.69-5.69 5.69 5.69 0 0 0-5.64 5.69Z" transform="translate(-18.1 -104.47)"/><path class="cls-21" d="M120.89 188.73a22.41 22.41 0 0 0-7.08-2.9.62.62 0 0 0-.73.62.62.62 0 0 0 .49.61 21.68 21.68 0 0 1 6.64 2.71.6.6 0 0 0 .34.11.64.64 0 0 0 .52-.29.62.62 0 0 0-.18-.86ZM151.1 188.9a21.91 21.91 0 0 1 7.08-2.9.63.63 0 0 1 .74.61.61.61 0 0 1-.5.61 21.43 21.43 0 0 0-6.64 2.72.59.59 0 0 1-.34.1.62.62 0 0 1-.34-1.14ZM133.29 190.4a4.2 4.2 0 0 1 2.9-1.71 3.86 3.86 0 0 1 2.81 1.71l.88-.58a4.86 4.86 0 0 0-3.64-2.18 5.29 5.29 0 0 0-3.76 2.14Z" transform="translate(-18.1 -104.47)"/><path d="M184 300.15c-3.68 10.53-20.15 9.77-38.91 4H145l-.17-.05-2.58-.82-1.07-.36c-2-.68-4.06-1.41-6.11-2.18a210.3 210.3 0 0 1-19.83-8.79v-.11l1.92-5 .66-1.7s34.78 3.79 52.27.13l.87-.19a11.05 11.05 0 0 0-.2-1.15c-9.26-31.55.87-37.6 4.26-42 .07 0 15.98 38.34 8.98 58.22Z" transform="translate(-18.1 -104.47)" style="fill:url(#linear-gradient-16)"/><path class="cls-32" d="M178.35 290.39a.88.88 0 0 1-.32.07.74.74 0 0 1-.67-.42c-1.32-2.71-5.82-4.32-7.2-4.77l.87-.19a46.1 46.1 0 0 1-.2-1.15c1.75.58 6.35 2.35 7.87 5.46a.76.76 0 0 1-.35 1ZM129.63 289.06c-7.1 0-12.86-.4-13.36-.44a.75.75 0 0 1-.69-.8.74.74 0 0 1 .79-.68c.27 0 26.36 1.86 36.65-2.31a.74.74 0 0 1 .56 1.37c-5.7 2.32-15.72 2.86-23.95 2.86ZM142.27 303.26c5.95-1.64 11.37-3.24 14.49-4.25 4.34-1.39 7.93-5.77 9.56-9.5a.73.73 0 0 1 1-.38.74.74 0 0 1 .38 1c-1.77 4-5.69 8.79-10.47 10.33-2.27.73-5.73 1.76-9.73 2.91a9.06 9.06 0 0 1-5.21-.08Z" transform="translate(-18.1 -104.47)"/><path d="M158.31 298.16c-53.76 18.1-70.31 6.25-70.31 6.25-3.62-32.73 9.71-62.16 9.71-62.16 4 6.5 8.4 17.84 8.4 17.84l1.18 25.09-.09.69v.33l-.23 1.72.34.08c16.27 3.43 46-.41 46-.41Z" transform="translate(-18.1 -104.47)" style="fill:url(#linear-gradient-17)"/><path class="cls-32" d="M107.29 288a53 53 0 0 0-8.11 8.45.74.74 0 0 1-1.19-.89 54.49 54.49 0 0 1 9.18-9.38l-.23 1.72Z" transform="translate(-18.1 -104.47)"/><path class="cls-20" d="M153.3 287.62s5.95-13.51 15-12.31l2.73 9.77c-5 2.11-5.68 10.6-12.71 13.07ZM117.88 285.14a21.54 21.54 0 0 0-13.65-11.38c-9.89-2.56-16.19 2.1-16.86 3.86s3.73.08 3.73.08a8.53 8.53 0 0 0-4.5 3.5c-1.64 2.69 4-.22 4-.22s-4 1.78-4.56 3.42 4.82-1.13 5.82-1.08c0 0-4.76 1.89-4.73 3.59s5.47-1.07 9.53-.85A63.15 63.15 0 0 1 107 288a68.07 68.07 0 0 0 9.37 1.23Z" transform="translate(-18.1 -104.47)"/><path class="cls-35" d="M313.88 310.42v59.31a7.24 7.24 0 0 1-7.24 7.24h-117a7.24 7.24 0 0 1-7.24-7.24v-59.31a7.25 7.25 0 0 1 7.24-7.25h117a7.25 7.25 0 0 1 7.24 7.25Z" transform="translate(-18.1 -104.47)"/><path d="M313.88 314.4v55.32a7.24 7.24 0 0 1-7.24 7.25h-117a7.24 7.24 0 0 1-7.24-7.25V314.4a7.24 7.24 0 0 1 7.24-7.24h117a7.24 7.24 0 0 1 7.24 7.24Z" transform="translate(-18.1 -104.47)"/><path class="cls-35" d="M219.84 272.42h20.37v23.22h-20.37z"/><path class="cls-35" d="M258 341a10.11 10.11 0 1 1-10.11-10.11A10.11 10.11 0 0 1 258 341Z" transform="translate(-18.1 -104.47)"/><path class="cls-7" d="M274.07 400.11h-52.54V398a6.12 6.12 0 0 1 6.11-6.11H268a6.12 6.12 0 0 1 6.11 6.11Z" transform="translate(-18.1 -104.47)"/><path class="cls-26" d="M82.67 401.33H65.46a5.41 5.41 0 0 1-5.14-3.73L53 375.13a1.49 1.49 0 0 1 1.31-1.95 252.59 252.59 0 0 1 39.48 0 1.49 1.49 0 0 1 1.3 1.95l-7.3 22.47a5.42 5.42 0 0 1-5.12 3.73Z" transform="translate(-18.1 -104.47)"/><ellipse class="cls-7" cx="56.08" cy="270.34" rx="19.4" ry="1.08"/><path class="cls-6" d="M75 374.81v-28a.91.91 0 0 0-1.82 0v28a1.69 1.69 0 0 0 1.82 0Z" transform="translate(-18.1 -104.47)"/><path class="cls-28" d="M74.06 353.38S75.79 341 91.7 341c0 0-2.7 17.54-17.64 12.38Z" transform="translate(-18.1 -104.47)"/><path class="cls-28" d="M74.88 357.2s-1.73-12.43-17.64-12.43c0 0 2.76 17.59 17.64 12.43ZM75.06 368.24s-4.08-11.87-19.7-8.81c0 0 6.05 16.73 19.7 8.81Z" transform="translate(-18.1 -104.47)"/><path class="cls-28" d="M74.05 368.14s11.7 4.55 19.45-9.35c0 0-16.69-6.18-19.45 9.35Z" transform="translate(-18.1 -104.47)"/></svg>