<svg id="Слой_1" data-name="Слой 1" xmlns="http://www.w3.org/2000/svg" xmlns:xlink="http://www.w3.org/1999/xlink" viewBox="0 0 3158 1877.15"><defs><linearGradient id="linear-gradient" x1="869.1" y1="869.8" x2="1048.06" y2="869.8" gradientTransform="matrix(1 0 0 -1 0 1910)" gradientUnits="userSpaceOnUse"><stop offset="0" stop-color="#fd2674"/><stop offset="1" stop-color="#fda15a"/></linearGradient><linearGradient id="linear-gradient-2" x1="576" y1="822.87" x2="864.6" y2="822.87" xlink:href="#linear-gradient"/><linearGradient id="linear-gradient-3" x1="1471.27" y1="1613.67" x2="1553.7" y2="1613.67" xlink:href="#linear-gradient"/><linearGradient id="linear-gradient-4" x1="1453.63" y1="1595.3" x2="1511.4" y2="1595.3" xlink:href="#linear-gradient"/><style>.cls-1{fill:#233862}.cls-3{fill:#aec3ff}.cls-4{fill:#ffb27d}.cls-5{fill:#ed7d2b}.cls-6{fill:#f99746}.cls-7{fill:#fff}.cls-10{fill:#9db0f4}.cls-11{fill:#353434}.cls-12{fill:#163560}.cls-13{fill:#ed975d}.cls-16{fill:#2b478b}.cls-17{fill:#ff9a3d}.cls-19{fill:#86d1cd}</style></defs><path class="cls-1" d="M1338.9 1840.2s3.7 42.8-5.4 47.3l-115.8-.2s0-13.4 18.6-16.3 51.3-13.9 56.8-38.1c5.6-24.4 45.8 7.3 45.8 7.3ZM1671.3 1823.6s3.5 59.4-5.6 63.8l-115.8-.2s0-13.4 18.6-16.3 51.3-13.9 56.8-38.1 46-9.2 46-9.2Z" transform="translate(-16.2 -20.15)"/><path d="M1675.2 1830.9s-23 11.8-32.8 14c-10.9 2.4-31.5.9-31.5.9-39.4-105.6-161.6-535-161.6-535-5.3 118.7-26.7 237.1-49 332.3-.6 2.5-1.2 5.1-1.8 7.6-.5 2.3-1.1 4.6-1.6 6.8 0 .1-.1.2-.1.3-27 112.3-54.1 188.8-54.1 188.8s-7 8.9-26.5 4.8c-22.3-4.6-29.8-14.4-29.8-14.4 14.4-457.5 22.5-715.4 22.5-715.4s193.4-104.5 245.9-15.2c52.7 89.3 120.4 724.5 120.4 724.5Z" transform="translate(-16.2 -20.15)" style="fill:#2a4e96"/><path class="cls-3" d="M1597.3 1168.1c-25.1-89.6-29.2-174.7-29-245.2.3-100.3 9.3-170.9-20.9-182.8 0 0-93.3-27.1-157.4-39.1-10.2-5.6-21.6-11.5-30.2-15-20.3-8.2-99.3-123.1-112.7-150.6s-35.6-147.3-35.6-147.3l-30.8 9.8s-9.2 134.5-4.8 169.5 102.3 185.8 110.4 199c34.8 127.3 0 334.5 15.9 380.7 8.2 23.8 160 67.3 243.1 61.8 4.1-.3 8.1-.7 11.9-1.2 19.7-2.7 34-9 39.2-20 2.7-5.4 3.1-11.9.9-19.6Z" transform="translate(-16.2 -20.15)"/><path class="cls-4" d="M1211.5 388.1s17.4-50.5 4.7-52-44.7-1.3-48.6 7.2 13.1 54.6 13.1 54.6Z" transform="translate(-16.2 -20.15)"/><path class="cls-5" d="M880.3 514.1 777.6 452a32.15 32.15 0 0 1 19.7-14.5 31.76 31.76 0 0 1 24.1 3.7 14 14 0 0 0 19.3-4.8l27.8-46 24 14.5-27.8 46a13.76 13.76 0 0 0-1.6 10.6 14.3 14.3 0 0 0 6.4 8.7 32.15 32.15 0 0 1 14.5 19.7 31.56 31.56 0 0 1-3.7 24.2Z" transform="translate(-16.2 -20.15)"/><path class="cls-6" d="M880.3 514.1 812 472.8c-15.8-13.2-8.1-24.5-.2-26.5a31.76 31.76 0 0 1 24.1 3.7 14 14 0 0 0 19.3-4.8l27.8-46 9.4 5.7-27.8 46a13.76 13.76 0 0 0-1.6 10.6 14.3 14.3 0 0 0 6.4 8.7 32.15 32.15 0 0 1 14.5 19.7 31.09 31.09 0 0 1-3.6 24.2Z" transform="translate(-16.2 -20.15)"/><path class="cls-6" d="m1180.8 214.7-83.1 104.8c-28.9 47.8-78.9 70.7-126.7 72.6a154.17 154.17 0 0 1-47.3-5.2c-12.3-3.4-26.5 3.3-34.3 16.1l-1.6 2.7c-4.8 8-8.9 14.6-8.9 14.6l-17.5-10.6s4.1-6.8 8.9-14.8c8.5-14.2 8.1-31.4-1.3-41.9-40-44.7-55-118.8-16.8-182l56.3-121Z" transform="translate(-16.2 -20.15)"/><path class="cls-5" d="M833.1 256.1c6.8-39.3-12.2-60.6-32.3-83.3-16.1-18.1-32.7-36.8-36.3-64.7-4-30.9 10.4-62.5 35.8-78.5 19.3-12.2 40.6-12.6 58.5-1.1 25.4 16.3 34.9 47.9 27.3 91.4a261.62 261.62 0 0 1-18 58.5l-16-7.4c.4-1 44.4-97.4-2.9-127.8-16.3-10.5-31.8-3.8-39.6 1.2-19.3 12.3-30.7 37.6-27.6 61.4 2.9 22.5 17 38.4 32 55.3 21 23.6 44.7 50.4 36.5 98Z" transform="translate(-16.2 -20.15)"/><path class="cls-6" d="M1031.2 375.9c31.6-24.2 59.4-17.4 88.8-10.1 23.5 5.8 47.8 11.8 74.1 2.1 29.2-10.8 50.5-38.2 52.9-68.2 1.8-22.8-7.7-41.8-26.2-52.4-26.3-14.9-58.7-8.6-93.7 18.3-25.1 19.2-42.7 42.2-43.5 43.1l14 10.7c.7-.8 65.7-84.5 114.5-56.8 16.8 9.6 18.1 26.4 17.4 35.6-1.8 22.9-18.9 44.7-41.5 53.1-21.3 7.9-41.9 2.8-63.8-2.7-30.6-7.6-65.4-16.2-103.7 13.2Z" transform="translate(-16.2 -20.15)"/><path class="cls-5" d="M970.9 392a154.17 154.17 0 0 1-47.3-5.2c-12.3-3.4-26.5 3.3-34.3 16.1l-1.6 2.7c-6.1 3.2-10.7 7.1-12.9 12.2l-13.4-8.1s4.1-6.8 8.9-14.8c8.5-14.2 8.1-31.4-1.3-41.9-40-44.7-55-118.8-16.8-182l56.3-121 45 27.2S770.8 324.9 970.9 392Z" transform="translate(-16.2 -20.15)"/><path class="cls-6" d="m889.9 431-44.8-27.1a13 13 0 0 1-4.4-17.8 13 13 0 0 1 17.8-4.4l44.8 27.1a13 13 0 0 1 4.4 17.8 13 13 0 0 1-17.8 4.4Z" transform="translate(-16.2 -20.15)"/><path class="cls-7" d="m903.6 280.3 4.8-8c22.8 12.3 25.7 10.9 35.1-4.6l47.1-77.9c6.6-11 3.3-14.2-4.9-20.6l-5.8-5 4.3-7.1c17.7 8.1 38.8 15 54.2 18.1L972.1 285c-9.6 15.9-9.5 18.6 11.8 33l-4.8 8Z" transform="translate(-16.2 -20.15)"/><path class="cls-4" d="M1167.6 343.3s-1.6 17.4 3.9 20.7 7.6-20.7 7.6-20.7.3 19.7 4.6 21 6.9-22.6 6.9-22.6.5 19 3.3 18.4 4.9-18.4 4.9-18.4 1.3 13.8 5.3 11.3 7.7-17.3 7.7-17.3ZM1211.5 388.1s11.9-9.3 14.5-17.9 10.3-22.9 6.2-24.6-16.1 16.7-16.1 16.7ZM1417.8 687.3l-1.5 7.8s-6.9 23.9 22.3 33.3 53.8 13.9 56.7-5.1c.2-15.1-.2-38.5 2-50.6a90.75 90.75 0 0 1 3.9-14.3l-57.7-12.6-17.6-.6Z" transform="translate(-16.2 -20.15)"/><path d="m1425.9 645.2-5.4 28.4c54.9 14.5 78.9-10 80.8-15.1l-57.7-12.6Z" transform="translate(-16.2 -20.15)" style="fill:#e2915a"/><path class="cls-4" d="M1509.7 646.7c-17 34.6-63.8 20.2-83.5 12.2-5.5-2.2-8.9-4-8.9-4-6-3.5-6.7-14.7-4.7-28.5 4.1-27.3 19.1-64.8 26.4-73.5 10.9-13 28-25.6 72.2-.7s20.3 50.1-1.5 94.5Z" transform="translate(-16.2 -20.15)"/><path class="cls-1" d="M1434.2 514.1s21.3 4.3 48.9.5c22.4-3.1 44.9 13.6 51.9 20.2a14.33 14.33 0 0 0-.6-5.5s2.9 3.6 2.5 7.4c.3.4.4.6.3.7s4.4.4 6.7 2.4c0 0-1.8-.8-2.8.2a.52.52 0 0 1-.4.2c26.9 23.8 16 73.9 2.8 82.4-15.9 10.3-43.2 38.7-43.2 38.7a71.67 71.67 0 0 1 6.5-21.8c5.6-11.4-4.8-14.4-16.5-23.6s3.7-21.5-5.2-34-52.7-18.9-50.1-25.9c-14.1-10.1-1.2-40.3-.8-41.9Z" transform="translate(-16.2 -20.15)"/><path class="cls-7" d="M1441.2 633.9s-2.8 4.3-14.2-.8c0 0-9.6-4.2-7.4-9.3 0 .1 10.9-.1 21.6 10.1Z" transform="translate(-16.2 -20.15)"/><path class="cls-5" d="M1428.4 750.8s-26.3 174.8-223.3 296.1l-18.4 53.4h71.1s176.4-148 188.3-344.5Z" transform="translate(-16.2 -20.15)"/><path style="fill:#db6516" d="M1412.2 730.65v-26.5l32.5 9.2-14.8 22.3-17.7-5z"/><path class="cls-10" d="m1417.8 687.3-19 16.2s-5.3 22.7 7.6 47.3l38.3-21.9c-.1 0-22.7-10.9-26.9-41.6Z" transform="translate(-16.2 -20.15)"/><path class="cls-10" d="M1444.6 728.9s3.8 20.6 13.8 30.7c0 0 43.2-7.6 55.1-28.2l-18.1-28.2c.1 0-4.3 19.3-50.8 25.7Z" transform="translate(-16.2 -20.15)"/><path class="cls-4" d="M1703.2 1181.9s.1 39.1-3.5 46.9-19.7 33.1-27.2 38.6 1.6-31.3-.7-38.1-5.2 13.3-8.6 14.1-4.4-16.8-5.2-23.2 14.7-23.9 19.3-38.1 25.9-.2 25.9-.2Z" transform="translate(-16.2 -20.15)"/><path class="cls-3" d="M1546.8 740.1s37.9 10.3 63.7 66.9c27 59.3 99.1 191.1 101.8 209.3s-4.8 188.1-4.8 188.1-31.6 1.2-41.3-13.8c0 0-11-149.1-15.9-157.2s-129.1-156.3-118.7-193.9 15.2-99.4 15.2-99.4Z" transform="translate(-16.2 -20.15)"/><path class="cls-10" d="M1596.5 1187.7c-9.4 8.1-22.1 15.1-39.2 20a31.17 31.17 0 0 1-11.9 1.2c-69.4-7.2-58.8-277-25.1-296.9 35.5-21 48.1 10.9 48.1 10.9-.2 70.5 3.9 155.6 29 245.2 2.1 7.7 1.7 14.2-.9 19.6Z" transform="translate(-16.2 -20.15)"/><path class="cls-1" d="M1396.9 1657.6c.5-2.1 1-4.4 1.6-6.8-.5 2.3-1 4.5-1.6 6.8ZM1400.3 1643.1c21.2-100.6-1.7-370.1 8.6-375.2 10.5-5.3 40.4 42.9 40.4 42.9-5.3 118.8-26.7 237.2-49 332.3Z" transform="translate(-16.2 -20.15)"/><path class="cls-4" d="m864.5 1828.45-6.1-44.2 25.7-21.5 8.2 58.4-27.8 7.3z"/><path class="cls-1" d="M966.2 1888H861.3s-2.5-16 3-28.1c5.2-11.6 13.4-18.8 14.2-27.7 6.7 6.9 14.9 11.3 30 9.2 1.9 3 12 19.1 18.2 23.6 6.8 4.9 37.4 3.1 39.5 23Z" transform="translate(-16.2 -20.15)"/><path class="cls-11" d="M945.1 1252.8c-6.9 55.2-12.5 107.2-17 155.7-24.4 258.3-19.6 416.2-19.6 416.2s-1.8 4.7-16.9 4.7a90.88 90.88 0 0 1-16.9-1.8S820 1659 824.2 1563a148.66 148.66 0 0 1 4.3-31.1c13.1-49.1-48.5-237 18.5-306.9s101.3 2.5 98.1 27.8Z" transform="translate(-16.2 -20.15)"/><path class="cls-11" d="M945.1 1252.8c-6.9 55.2-12.5 107.2-17 155.7L824.2 1563a148.66 148.66 0 0 1 4.3-31.1c13.1-49.1-48.5-237 18.5-306.9s101.3 2.5 98.1 27.8Z" transform="translate(-16.2 -20.15)"/><path class="cls-4" d="M1027.7 726.5s-2.5-12.6-5.4-22.2c-1.3-4.3 7.5-32.2 13.6-35.7s21.9 15.4 17.4 29.8c-2.3 7.4-6.1 31.6-6.1 31.6Z" transform="translate(-16.2 -20.15)"/><path class="cls-4" d="M1027.7 726.5s-3.3-7.3-6.3-8.5-6.2-13.1-8.4-17.9c0 0 2.1-3.1 5.8.9 2.3 2.4 7.3 9.6 7.3 9.6ZM594.6 768.9c-.6 1.3-1.5 3.7-2.3 5.9V773c0-4.4-16.6-28.6-23.4-30.1s-16.4 21.1-7.9 33.6c4.3 6.5 15 28.5 15 28.5l17.7-9.1s1-8 3.5-10 2.1-14.4 2.8-19.5c-.1 0-3-2.4-5.4 2.5ZM704.8 1835.3c-1.5-14.1-1.9-51.3-1.9-51.3s37.9-12.1 36.5-3.8c-6.9 40.9-5 61.2-5 61.2l-15.3 9.2Z" transform="translate(-16.2 -20.15)"/><path class="cls-11" d="M913.4 1250.2S767 1651.6 738.1 1825.7c0 0-6.7 4.6-19.1 3.1-14.1-1.7-18-11.5-18-11.5s-26.5-208.7 26.1-281.1c36.1-49.8-15.6-268.4 68.6-285.9s117.7-.1 117.7-.1Z" transform="translate(-16.2 -20.15)"/><path class="cls-12" d="M887.4 864.1a4.33 4.33 0 0 0-.1-.5c-.9-3.5-1.8-7-2.8-10.5a246.69 246.69 0 0 0-10.6-29.5c-2.3-5.1-4.6-9.8-7-14-.4-.6-.7-1.3-1.1-1.9-5.7-9.5-11.5-16.1-16.7-18.1-9.6-3.7-20.2-2.7-27.6-1.1 1.6-2.2 5.3-3.5 5.3-3.5-4.7 0-14.2 6.1-14.2 6.1-67.4-15.1-63.5 80.3-58.9 102s-17.1 32.1-47.8 54.3c-58.4 42.2-57.5 87-57.5 87 .5.2 1.1.5 1.7.8 2.4-5.8 7.3-16.7 12.6-19.1-.1.5-4.4 14.7-5.6 22.7 8.9 4.9 21.2 12.5 34.6 21.1 17.9 11.5 37.7 24.6 53.5 35.3-.8-4.4-1.5-10.6-.4-14.1l5 15.6.7 2c10.1 6.8 18.1 12.3 22.1 15.1a10.47 10.47 0 0 1 1.1.8c1.2.8 1.8 1.3 1.8 1.3-1.3-5.5 4.6-19.9 14.4-38.1l2.1-3.9c3.2-5.7 6.8-11.8 10.6-18 1.4-2.3 2.8-4.5 4.2-6.8 1.2-1.8 2.3-3.7 3.6-5.5 2.9-4.4 5.8-8.9 8.9-13.4 7.8-11.6 16.1-23.1 24.3-33.6 11.9-15.4 23.6-28.7 33.4-37.4.3-.7.6-1.3.9-2a70.06 70.06 0 0 0 3.6-11.5c.3-1.2.5-2.4.8-3.6a166.9 166.9 0 0 0 2.5-28.6c.8 12.4.5 21.8-.4 28.8-.2 1.6-.4 3-.6 4.3a50.33 50.33 0 0 1-1.8 7.6 48.78 48.78 0 0 0 4.3-6.5 43.09 43.09 0 0 0 2.2-4.9c7.9-20.5 5.8-50.5-1.1-78.7Z" transform="translate(-16.2 -20.15)"/><path class="cls-4" d="M874.8 960.7c.2.1-18.9 13.9-35.1 12-15.2-1.8-27.6-19.4-27.4-19.5 6-2.2 6.5-10.9 1-47.6l2.9.1 48.6 2.3s1.1 15 3.2 29c1.5 11.9 3.9 22.9 6.8 23.7Z" transform="translate(-16.2 -20.15)"/><path class="cls-13" d="M864.6 908.1s1.1 15 3.2 29c-26.5 3.2-44-18.8-51.7-31.3Z" transform="translate(-16.2 -20.15)"/><path class="cls-12" d="M810.4 901.4s-17.1-19.8-23.2-38c-4.4-13-4.9-63.5 45.8-63.7a69.08 69.08 0 0 1 29.6 6.4c11.9 5.7 29.8 19.1 18.8 64.8l-2.4 15.2Z" transform="translate(-16.2 -20.15)"/><path class="cls-7" d="M951.2 1242.5s-63.2 37.5-142.5 18.2c-.9-.2-65.3-10.5-65.3-10.5 1.1-3 9.4-52.8 10.5-55.5 14.1-36.3 39.8-233.4 61.3-243.1 5.5 6 21.2 10.1 34.6 8.9 15.5-1.4 20.6-8 19.3-15.2 17.1 8.1 30.2 15.6 30.2 15.6 15.7 23.3 51.9 281.6 51.9 281.6Z" transform="translate(-16.2 -20.15)"/><path class="cls-4" d="M875.4 920s-62.3 10.3-68.1-28.6-17.8-63.8 21.7-72 49.5 5.4 54.6 18 7.9 79-8.2 82.6Z" transform="translate(-16.2 -20.15)"/><path class="cls-12" d="M857.3 814.3s-10.3 48.2-35.5 58.8-37.7 5.3-37.7 5.3 17.7-19 17.8-47.5c0 0 39.3-36.4 55.4-16.6Z" transform="translate(-16.2 -20.15)"/><path class="cls-12" d="M853.6 818.6s14.3 8.3 18.9 17.7 9 29.6 14.9 28c0 0 8.3-32.9-8.8-48.3-18.2-16.2-25 2.6-25 2.6Z" transform="translate(-16.2 -20.15)"/><path d="M1047.7 727.4c-2.5-.9-6.3-3-11.1-3.4a34.92 34.92 0 0 0-9.8 1s-17.6 109.2-18.9 115-75.4 89.2-95.4 88.9c-18-.3-39.4 13.6-43.4 16.3 0 0 42 88.8 44.1 105.5 2.3 18.2 24 297.7 24 297.7s-1.3 13 23 6 30.4-12.8 30.4-12.8-22.3-220.1-27-288.5a123.33 123.33 0 0 0-4.3-25.5 25.78 25.78 0 0 1 4.2-22c30.7-42.2 79.2-110.5 81.9-125 4-21.4 2.3-153.2 2.3-153.2Z" transform="translate(-16.2 -20.15)" style="fill:url(#linear-gradient)"/><path class="cls-1" d="M792.2 1888H687.3s-2.5-16 3-28.1c5.2-11.6 13.4-18.8 14.2-27.7 6.7 6.9 14.9 11.3 30 9.2 1.9 3 12 19.1 18.2 23.6 6.8 4.9 37.4 3.1 39.5 23Z" transform="translate(-16.2 -20.15)"/><path d="M864.3 1059.3c-3.5-21.8-48.7-109.1-48.7-109.1s-28.5-8.5-47.3-1.7-115.9-48.1-119.1-53.1-55.2-102-55.2-102-4.3-2.5-11.2 1.1A12.5 12.5 0 0 0 576 805s40.2 122.1 50.9 141c6.4 11.4 60.6 51 102.6 80.7a26.46 26.46 0 0 1 10.9 25.1c-5.6 41.8-7.1 65.3-13.6 136.9-5.4 59.4-7.5 174.5-7.5 174.5s47 16.3 79.4 18.4 39.5-32 39.5-32 29.7-267.9 26.1-290.3Z" transform="translate(-16.2 -20.15)" style="fill:url(#linear-gradient-2)"/><path class="cls-7" d="M855 900.8a28.25 28.25 0 0 0 16.5 3.1c6.1-.9 7.5-8.2 7.5-8.2s-4.3-1.3-11 0a47.93 47.93 0 0 0-13 5.1Z" transform="translate(-16.2 -20.15)"/><path class="cls-12" d="M2068.4 892.7s19.4 31.9-17 52c0 0 28 10.1 37.7 6.3a20.9 20.9 0 0 1-4.2 3.4s26.3 8.3 39.4 3.8 41.3-131.8-36.3-138.5c0 0-61.2-21.9-74.1 46.4s-36.5 61.7-36.5 61.7 5.7 4.8 8.9 5.7c0 0 5.1-.3 6.7-2.4 0 0-2 3.4-3.5 4.3 0 0 24.8 9.4 40 4.1 15.1-5.5 38.6-32.1 38.9-46.8Z" transform="translate(-16.2 -20.15)"/><path class="cls-1" d="M1990.5 1897.3h99s2.4-15.1-2.8-26.5c-5-11-12.7-17.8-13.4-26.2-6.3 6.5-14 10.6-28.3 8.7-1.8 2.8-11.3 18.1-17.2 22.3-6.5 4.6-35.3 2.9-37.3 21.7Z" transform="translate(-16.2 -20.15)"/><path class="cls-16" d="M2072.3 1859.5a91.05 91.05 0 0 1-17.3 3.5c-15.6 1.4-17.9-3.3-17.9-3.3s-15.5-137.9-65.6-401.5c-7.2-38.1-10.1-59.1-12.7-93-.8-10.1-1.5-21.4-2.4-34.6-2.3-35.5 3.1-95.3 29.8-111 12.1-7.2 28.6-5.2 50.8 12.3 1.7 1.4 3.5 2.9 5.4 4.4 65 56.2 38.3 217.6 41 293.5.4 12.6 1.7 22.8 4.3 29.8 3.4 9.1 10.6 21.6 12.2 33.5 13.6 98.5-27.6 266.4-27.6 266.4Z" transform="translate(-16.2 -20.15)"/><path class="cls-1" d="m2083.4 1529.8-124.6-164.6c-.8-10.1-1.5-21.4-2.4-34.6-2.3-35.5 3.1-95.3 29.8-111l50.8 12.3c1.7 1.4 3.5 2.9 5.4 4.4 65 56.2 38.4 217.7 41 293.5ZM2435.5 1689l-41.2-90s-14.7 4.1-23 13.6c-7.9 9.1-13.7 7.5-31.7-5.1 6.8 10.5 7.7 16.7 11.9 30.5 3.3.4 22.2 18.7 41.5 23.7 7.7 2 24.6 33.3 42.5 27.3Z" transform="translate(-16.2 -20.15)"/><path class="cls-16" d="M2003.6 1259.1s88.7 308.3 121.2 328.1 203.3 47.1 238.1 62c0 0 4.2-6.1 1.7-19-.6-2.9-5.5-13.2-5.5-13.2s-106.1-79.8-175.9-87.8c-17.3-2 35.3-266.6-81.8-277.2-107-9.7-97.8 7.1-97.8 7.1Z" transform="translate(-16.2 -20.15)"/><path class="cls-4" d="M1877.1 753.3s2.4-11.9 5.1-21c1.2-4-7.1-30.4-12.8-33.6s-20.7 14.5-16.4 28.2c2.2 7 5.7 29.8 5.7 29.8Z" transform="translate(-16.2 -20.15)"/><path class="cls-4" d="M1877.1 753.3s3.1-6.9 5.9-8 5.8-12.4 7.9-16.9c0 0-2-2.9-5.5.8-2.1 2.3-6.9 9-6.9 9ZM2285.6 793.3a60 60 0 0 1 2.2 5.6v-1.7c0-4.2 15.7-27 22.1-28.4s15.5 19.9 7.5 31.7c-4.1 6.1-14.2 26.8-14.2 26.8l-16.7-8.6s-1-7.5-3.3-9.4-1.9-13.6-2.6-18.4c0 0 2.8-2.2 5 2.4ZM2021.3 974.3c-.2.1 17.8 13.1 33.1 11.3 14.4-1.7 26.1-18.3 25.9-18.4-5.7-2-6.2-10.3-.9-44.9l-2.7.1-45.8 2.2s-1.1 14.2-3 27.4c-1.6 11.1-3.8 21.5-6.6 22.3Z" transform="translate(-16.2 -20.15)"/><path class="cls-13" d="M2030.9 924.7s-1.1 14.2-3 27.4c25 3 41.5-17.8 48.8-29.5Z" transform="translate(-16.2 -20.15)"/><path class="cls-12" d="M2082 918.3s16.1-18.7 21.9-35.8c4.1-12.3 4.6-59.9-43.2-60.1a63.83 63.83 0 0 0-27.9 6.1c-11.2 5.4-28.1 18-17.7 61.2l2.2 14.4Z" transform="translate(-16.2 -20.15)"/><path class="cls-4" d="M1963.9 1247.2s44.9 28.4 119.8 10.1c.9-.2 42.6-6.9 42.6-6.9-1-2.9-44.8-75.2-45.9-77.8-13.3-34.3 17.5-197.9-2.8-207-5.2 5.6-20 9.5-32.6 8.4-14.6-1.3-19.5-7.6-18.3-14.4-16.1 7.6-28.5 14.7-28.5 14.7-14.8 22.2-34.3 272.9-34.3 272.9ZM2020.7 935.9s58.8 9.7 64.3-27 16.8-60.1-20.5-67.9-46.7 5.1-51.5 16.9-7.4 74.5 7.7 78Z" transform="translate(-16.2 -20.15)"/><path class="cls-12" d="M2037.8 836.1s9.7 45.5 33.5 55.5 35.5 5 35.5 5-16.7-17.9-16.8-44.8c.1 0-37-34.3-52.2-15.7Z" transform="translate(-16.2 -20.15)"/><path class="cls-12" d="M2041.3 840.2s-13.5 7.8-17.8 16.7-8.5 28-14 26.5c0 0-7.8-31.1 8.3-45.6 17.1-15.4 23.5 2.4 23.5 2.4Z" transform="translate(-16.2 -20.15)"/><path class="cls-17" d="M2299.4 827.4s-37.9 115.2-48 133c-6.1 10.7-74.3 53.3-114 81.3a7.7 7.7 0 0 0-1.5 1.8v.1c-9.9 15.3-40.6 110-33.3 126.9 30.9 71.4 52.1 99 59.8 119.1a19.1 19.1 0 0 1-11.4 24.8 329.2 329.2 0 0 1-53.5 14c-4.2.7-8.5 1.4-13 1.9-60.9 7.7-102.1-6.6-123.1-17.1a28 28 0 0 1-15.3-26.5c1.3-22.6 12.6-45 17.7-99.3 3.9-41.2-31.7-104-30.2-125.9.6-8.7 7.4-19.1 11.1-25.8 6.5-11.9 10.1-22.7 5.8-28.6-29-39.8-91.6-94.6-94.1-108.3-3.7-20.1-2.1-144.5-2.1-144.5 2.4-.8 5.9-2.8 10.5-3.2a30.52 30.52 0 0 1 9.2 1s16.6 103.1 17.8 108.5 71.1 84.2 90 83.9c17-.3 41 12.9 44.7 15.4 0 0-15.3 27.1-19.1 63.6-2.7 25.6 14.4 14.2 25.1-3.3 14.5-23.7 43.8-57.5 43.8-57.5s23.8-6.2 41.5.2 109.4-45.3 112.3-50.1 52-96.3 52-96.3 4.1-2.4 10.6 1a11.69 11.69 0 0 1 6.7 9.9Z" transform="translate(-16.2 -20.15)"/><path class="cls-7" d="M2037.8 916s-2.5 5.1-5.9 5.2-12-.7-12.6-1.6-2-6.2-2-6.2 14.2-.6 20.5 2.6Z" transform="translate(-16.2 -20.15)"/><path class="cls-17" d="M2151 1314.3a329.2 329.2 0 0 1-53.5 14c-21-29-56.6-65.4-47.4-132.5 9.5-69.3 77.6-142.3 85.8-152.3-9.9 15.3-40.6 110-33.3 126.9 30.9 71.4 52.1 99 59.8 119.1a19 19 0 0 1-11.4 24.8ZM1944.8 1035.6c6.5-11.9 10.1-22.7 5.8-28.6-29-39.8-91.6-94.6-94.1-108.3 6.2 14.9 82 59.4 103.3 78.5 21 18.8-14.1 57.5-15 58.4Z" transform="translate(-16.2 -20.15)"/><path d="M672.6 487.1s14.2 19.5 12.7 41.6c-1.1 16.5-15.8 33.1-16.8 33.8l23.2 12.4s17.2-30.5 11.4-56c-1.8-7.8-10-20.3-16-25.9a22.61 22.61 0 0 0-14.5-5.9Z" transform="translate(-16.2 -20.15)" style="fill:#6bb7bf"/><path class="cls-19" d="m625.2 489.1-14.7-32.4s68.5 2.3 91.2 58.1c0 0-47.9-34.2-76.5-25.7Z" transform="translate(-16.2 -20.15)"/><path class="cls-3" d="M366.5 1314.5s-16.3-12.3-20.5-30.7c-3.1-13.7 4.7-30.8 5.4-31.6l-21.9-4.4s-6.5 29 4.5 48.3c3.4 5.9 13.1 14.1 19.4 17.1a18.51 18.51 0 0 0 13.1 1.3Z" transform="translate(-16.2 -20.15)"/><path class="cls-3" d="m404.5 1301.2 19.9 22.8s-56.3 14.9-88.4-24.9c0 0 47.4 16.1 68.5 2.1Z" transform="translate(-16.2 -20.15)"/><path d="M2870.1 1420.6s-1.4-21.4 38.7-31.7c18-4.6 58.1 3.6 32.7 43-26.4 41-50 26.2-50 26.2s55.1-43.1 33.1-62.9c-24.3-21.8-33.7 21.4-33.7 21.4a53.37 53.37 0 0 0-20.8 4Z" transform="translate(-16.2 -20.15)" style="fill:#f1a34f"/><path d="M2884.3 1460.5s-15-8.1-9.1-26.2l21.6 3.7s-8.3 19.5 12 21.9c0 .1-19.5 4.8-24.5.6Z" transform="translate(-16.2 -20.15)" style="fill:#db7714"/><path d="M1475.8 313.1s22.4-32.3 56.9-9.4l21-20s-19.6-14.9-64.7 11.8c-29.6 17.3-13.2 17.6-13.2 17.6Z" transform="translate(-16.2 -20.15)" style="fill:url(#linear-gradient-3)"/><path d="M1453.7 344.8s-4.4-37.1 57.7-60.2c0 0-22.4 10.9-29.4 47.9Z" transform="translate(-16.2 -20.15)" style="fill:url(#linear-gradient-4)"/><path class="cls-6" d="M1703.2 148s18.4-11.6 20.3-25.6c0 0 17.9 1 21.7 6.8 0 0-8.2 23.2-17.9 27.5 0 0-21.7 1.5-24.1-8.7ZM1112.6 1470.4s-19.6-12.4-21.6-27.3c0 0-19.1 1-23.2 7.2 0 0 8.8 24.7 19.1 29.4 0 0 23.2 1.5 25.7-9.3Z" transform="translate(-16.2 -20.15)"/><path class="cls-19" d="M1916.2 513.2s19.7-12.4 21.7-27.4c0 0 19.1 1 23.3 7.2 0 0-8.8 24.8-19.1 29.5 0 0-23.3 1.5-25.9-9.3Z" transform="translate(-16.2 -20.15)"/><path class="cls-4" d="M2298.9 1082.5s-11.4-13.8-17.5-15.7-17.9-11.1-19.5-7.3 8 9.6 7.5 13.9-30.2 11.2-30 15.8 7 15.6 18.3 14.3 40-8.1 45.9-5.1-4.7-15.9-4.7-15.9Z" transform="translate(-16.2 -20.15)"/><path class="cls-10" d="m2554.1 1053.2-5.7 16.6c-64.1 44.6-133.6 51.2-133.6 51.2-13.4 0-67.8-10.9-98.1-15.8 1.2.1 82.3 6.4 100.3 4.6s102.2-74.8 102.2-74.8Z" transform="translate(-16.2 -20.15)"/><path class="cls-1" d="M2481.7 1888h122.7c8.8-6-2.4-64.2-2.4-64.2s-33.5-12.7-39.3 13.1-42.6 34-62.1 37.2c-13.4 2.1-17.6 9.4-18.9 13.9ZM2663.6 1888h122.7c8.8-6-2.4-64.2-2.4-64.2s-33.5-12.7-39.3 13.1-42.6 34-62.1 37.2c-13.3 2.1-17.6 9.4-18.9 13.9Z" transform="translate(-16.2 -20.15)"/><path class="cls-16" d="M2514.7 1293.5s5.5 68.8 12 151.5c8.8 112.3 32.6 390.8 32.6 390.8s15.6 13.3 50.1 6c0 0 29.4-96.1 38.1-205.7.1-1.8.3-3.6.4-5.4 8.2-111.6 20.9-346.7 20.9-346.7Z" transform="translate(-16.2 -20.15)"/><path class="cls-1" d="M2512.8 1269.7s7.4 92.6 13.9 175.3l120.8 191.1c.1-1.8.3-3.6.4-5.4 8.2-111.6 20.9-346.7 20.9-346.7Z" transform="translate(-16.2 -20.15)"/><path class="cls-16" d="M2548 1269.7s87.6 218.1 115.6 300.7c19.9 58.9 76.2 265.4 76.2 265.4s24.5 7.4 45-6.9c0 0 20.9-211-21.3-270.5-22.4-31.6-5.6-328.2-96.5-330.7s-119 42-119 42Z" transform="translate(-16.2 -20.15)"/><path class="cls-4" d="M2587.1 948.3a54.88 54.88 0 0 0 37.7 5.1 82.06 82.06 0 0 0 35.9-18.6s-.5-.7-1.2-1.9c-4-6.8-15.9-31.1-10.6-70.1.1-.5-3.8.2-9.6 1.6-17.4 4.1-52.3 14-53.9 14.5h-.1s-.4 8.2-1.9 22.9c-.1 1.3-.2 2.7-.4 4.1-.2 1.7-.4 3.6-.6 5.4-1.5 15.2 4.7 37 4.7 37Z" transform="translate(-16.2 -20.15)"/><path class="cls-13" d="M2583.5 901.7c25.9 5.9 64.7-32.4 64.7-32.4a37.46 37.46 0 0 0-8.9-5c-17.4 4.1-52.3 14-53.9 14.5h-.1s-.4 8.2-1.8 22.9Z" transform="translate(-16.2 -20.15)"/><path class="cls-4" d="M2574.7 876.7a137.75 137.75 0 0 0 24.3 5.7c19.9 2.7 46.1 1.1 54.3-23 13.8-40.5 31.5-64.8-9.2-81.3-21.8-8.9-35.8-9.3-45.2-5.9-8.2 2.9-13.1 8.7-16.8 14.5-8 12.3-23.9 82.9-7.4 90Z" transform="translate(-16.2 -20.15)"/><path d="M2550 789.8c23.6 17 56.2.3 66.4 4.8s11.9 21.5 12.1 26.9.9 10 14.6 6.7c2.3-.5 3.9-.4 5 .3 5.7 3.4-1.6 19.8-3.8 23.3 0 0-3.2 11.8 3.9 17.5.8.7 14.6 6.7 47.9-44.2 5.2-8 10.2-26 2.1-43.3s-41.8-34.1-70.3-43c-10.7-3.3-18.7-3.2-24.9-.9-10.4 3.8-15.9 13.6-21.4 23.4-9.2 16.6-31.6 28.5-31.6 28.5Z" transform="translate(-16.2 -20.15)" style="fill:#a9453d"/><path class="cls-7" d="M2574.4 850.6s-.9 5.2 11.3 9.4c0 0 10.2 3.5 12.1-1.9 0 0-8.1-7.7-23.4-7.5Z" transform="translate(-16.2 -20.15)"/><path class="cls-4" d="M2391.1 1163.7s-11.4-13.8-17.5-15.7-17.9-11.1-19.5-7.3 7.9 9.6 7.4 13.9-30.2 11.2-30 15.8 7 15.6 18.3 14.3 40-8.1 45.9-5.1-4.6-15.9-4.6-15.9Z" transform="translate(-16.2 -20.15)"/><path class="cls-3" d="M2605 1015.4a244.55 244.55 0 0 1-56.5 54.3c-64.1 44.6-133.6 51.2-133.6 51.2-16.7-5.3-67.8-10.9-98.1-15.8-13.2-2.1-22.4-4.1-23-5.9l.8-26.3s111-5.9 129.4-14.4c29-25 54.6-57.4 71.3-82.7 14.1-21.4 29.9-37.2 55.9-46.5 37.5-13.3 105.9 16.2 53.8 86.1Z" transform="translate(-16.2 -20.15)"/><path class="cls-3" d="M2701.7 1284.9s-11.4 2.5-25.8 4.9c-14.1 2.4-31.1 4.7-43.2 4.6-61.5-.5-113-18.6-113-18.6-11.6 0-16.8-17.9-18.7-42.9-1.3-16.9-1-37.1-.1-57.2.3-6.5.7-13 1.1-19.4.8-12.6 1.8-24.8 2.6-35.5.8-10.1 1.5-18.9 2-25.7 0 0-1.6-47.9-1-90 .5-30.2 17.4-57.7 21.7-62.2 12.3-13 48-21.3 55.1-22.4a4.53 4.53 0 0 1 .8-.1c29.3 16.5 68.8-5.8 68.8-5.8.9.1 1.8.4 2.6.5 2.9-.6 32.5 3.8 39.5 7.5 17.1 9.3 27 112.4 27 112.4 2.8 70.1-.7 182.3 4.8 225.1 1.8 14.4-11.8 22-24.2 24.8Z" transform="translate(-16.2 -20.15)"/><path class="cls-10" d="M2654.5 915.3s-43.7 45.1-75 35.8c0 0-4.2-6.1 9.9-8s29.3-1.2 65.1-27.8ZM2678.4 1085.8s-63.5 106.2-99.5 124.9c-24.3 12.6-58.4 19.3-78 22.3-1.3-16.9-1-37.1-.1-57.2 25.8-3.1 65.1-8.1 65.1-8.1Z" transform="translate(-16.2 -20.15)"/><path class="cls-10" d="m2594.8 1032.5-33.8 122.1s-39.8 2.5-59 1.8c.8-12.6.8-13.1 1.7-23.8 0 .1 45.7-23.8 91.1-100.1Z" transform="translate(-16.2 -20.15)"/><path class="cls-3" d="M2724.6 994.2s2 64.7-145.4 194.5l-29.6-53c-5.5-3.2 95.2-219.8 124.2-218 56 3.3 50.8 76.5 50.8 76.5Z" transform="translate(-16.2 -20.15)"/><path class="cls-3" d="M2567.2 1129.3s-167.7 19.2-173.9 22.5-19.5 16.3-15.1 32.6c0 0 86.8 10.9 134.5 10.7 41.2-.2 67.8-6.8 67.8-6.8Z" transform="translate(-16.2 -20.15)"/><path d="M3170.7 1897.3H19.6a3.37 3.37 0 0 1-3.4-3.4v-3a3.37 3.37 0 0 1 3.4-3.4h3151.2a3.37 3.37 0 0 1 3.4 3.4v3a3.6 3.6 0 0 1-3.5 3.4Z" transform="translate(-16.2 -20.15)" style="fill:#2e3552"/></svg>