<svg id="Layer_1" data-name="Layer 1" xmlns="http://www.w3.org/2000/svg" viewBox="0 0 234.64 226.47"><defs><clipPath id="clip-path" transform="translate(-91.26 -1.51)"><path class="cls-1" d="M110.92 55.61a3.26 3.26 0 0 1-3.28-3.24V51h6.52v1.41a3.26 3.26 0 0 1-3.24 3.2Z"/></clipPath><clipPath id="clip-path-3" transform="translate(-91.26 -1.51)"><path class="cls-1" d="M285.19 89.79a6.17 6.17 0 0 0-1.27-4.26c-.76-1-1.46-2.41-2.75-2.82a9.5 9.5 0 0 0-4-.44 2.49 2.49 0 0 0-2.48 1.73 16.42 16.42 0 0 0-.93 8.16 3.38 3.38 0 0 0 .5 1.71 1.53 1.53 0 0 0 1.47.73.09.09 0 0 1 .12.07c.61 2.31.21 4.51-.19 6.82a4.24 4.24 0 0 0 .62 3.61 3.27 3.27 0 0 0 2.44 1 27.31 27.31 0 0 0 3.8-.7c1.2-.17 1.13-.94 1.16-1.92v-3.62a21.74 21.74 0 0 1 .65-7 24.17 24.17 0 0 0 .79-2.5c.02-.19.05-.36.07-.57Z"/></clipPath><clipPath id="clip-path-4" transform="translate(-91.26 -1.51)"><path class="cls-1" d="M252.65 151.74c-.06.12-.12.25-.17.38a7.89 7.89 0 0 1-1.69 3.1 1.71 1.71 0 0 1-1.32.56 1.69 1.69 0 0 1-1.15-.84c-1.49-2.3.13-5 1.36-7a18.53 18.53 0 0 1 5.26-5.71 20.87 20.87 0 0 1 2.86-1.66.47.47 0 0 1 .32-.07.45.45 0 0 1 .24.31 2.62 2.62 0 0 1-.35 2c-.81 1.43-2.28 2.42-2.93 3.93-.35.8-.44 1.71-.85 2.48s-1.15 1.6-1.58 2.52Z"/></clipPath><style>.cls-1,.cls-18,.cls-26,.cls-31,.cls-4,.cls-7{fill:none}.cls-3{fill:#ebaeae}.cls-30,.cls-4{stroke:#222221}.cls-10,.cls-18,.cls-20,.cls-21,.cls-22,.cls-26,.cls-27,.cls-30,.cls-31,.cls-4,.cls-7{stroke-miterlimit:10}.cls-10,.cls-18,.cls-20,.cls-21,.cls-22,.cls-26,.cls-27,.cls-30,.cls-31,.cls-4{stroke-width:.26px}.cls-7{stroke:#fff;stroke-width:4.19px}.cls-10,.cls-18,.cls-20,.cls-21,.cls-22,.cls-27{stroke:#000}.cls-9{fill:#161111}.cls-10{fill:#d8d8d8}.cls-22{fill:#7696ea}.cls-21{fill:#dea600}.cls-27{fill:#f65e59}.cls-19{isolation:isolate;font-size:5.98px;font-family:ArialMT,Arial}.cls-20,.cls-29,.cls-30{fill:#fff}.cls-25{clip-path:url(#clip-path)}.cls-26{stroke:#e0adad}.cls-31{stroke:#131834}.cls-32{fill:#faddd4}.cls-34{clip-path:url(#clip-path-4)}</style></defs><path d="M95.15 98.26a122 122 0 0 0 6.69 47.46c8.63 23.72 27.17 44.52 51.23 52.14 8.31 2.63 17 3.67 25.72 4.31a339.14 339.14 0 0 0 62.67-1.52c15.52-1.75 31.27-4.51 44.93-12.08 18-10 25.88-26.83 30.33-46 1.95-8.45 3.68-17 4.07-25.66 1-23.2-8.29-46.82-25.42-62.49a75.37 75.37 0 0 0-47.75-19.46c-20.42-.71-39.47 7.05-59.54 9.36-16 1.84-32.2-.26-48.32-.88-4.92-.19-9.93-.23-14.65 1.17-14.59 4.33-25.43 22.25-28 36.61a136 136 0 0 0-1.96 17.04Z" transform="translate(-91.26 -1.51)" style="fill:#494949"/><path class="cls-3" d="M178.74 16.11a2.31 2.31 0 0 1 2.42-2.19 1.75 1.75 0 0 1 .33.05 14.16 14.16 0 0 0-.56-2.71l-.28.18a2.31 2.31 0 0 1-2.11-4.12 1.51 1.51 0 0 1 .33-.13A14.11 14.11 0 0 0 177 5.11c-.05.1-.1.21-.16.31A2.31 2.31 0 1 1 173 2.91a2.26 2.26 0 0 1 .23-.29 13.15 13.15 0 0 0-2.66-.87 1.45 1.45 0 0 1 0 .36 2.31 2.31 0 1 1-4.62-.23 2.2 2.2 0 0 1 .05-.37 13.81 13.81 0 0 0-2.73.58 2.36 2.36 0 0 1 .2.31 2.31 2.31 0 0 1-4.12 2.11 2.44 2.44 0 0 1-.14-.34A14 14 0 0 0 157.14 6l.3.16a2.31 2.31 0 1 1-2.51 3.89 2.78 2.78 0 0 1-.27-.21 14.41 14.41 0 0 0-.84 2.63 1.61 1.61 0 0 1 .31 0 2.31 2.31 0 1 1-.23 4.62l-.3-.05a13.88 13.88 0 0 0 .58 2.68c.08 0 .15-.11.23-.15a2.32 2.32 0 0 1 2.12 4.12l-.26.1a13.47 13.47 0 0 0 1.83 2 1.2 1.2 0 0 1 .11-.23 2.32 2.32 0 1 1 3.89 2.52l-.16.2a14.67 14.67 0 0 0 2.58.83 1 1 0 0 1 0-.24 2.31 2.31 0 0 1 4.62.23v.25a14.49 14.49 0 0 0 2.65-.55c0-.07-.09-.13-.13-.21a2.31 2.31 0 0 1 4.12-2.11 1.86 1.86 0 0 1 .1.25 14 14 0 0 0 2-1.82l-.23-.11a2.31 2.31 0 1 1 2.48-3.8 1.41 1.41 0 0 1 .23.18 13.67 13.67 0 0 0 .86-2.6 2.71 2.71 0 0 1-.29 0 2.31 2.31 0 0 1-2.19-2.47Zm-4.29 1.36a7.2 7.2 0 1 1-4.89-8.93 7.2 7.2 0 0 1 4.89 8.93Z" transform="translate(-91.26 -1.51)"/><circle class="cls-4" cx="76.29" cy="13.94" r="9.26"/><path class="cls-4" d="M173.85 15.45a6.31 6.31 0 1 1-6.3-6.31 6.3 6.3 0 0 1 6.3 6.31Z" transform="translate(-91.26 -1.51)"/><path class="cls-3" d="M204.9 15.9a1.58 1.58 0 0 1 1.65-1.5h.22a8.81 8.81 0 0 0-.38-1.85 1.22 1.22 0 0 1-.19.12 1.57 1.57 0 1 1-1.44-2.8 1.09 1.09 0 0 1 .23-.09 9.54 9.54 0 0 0-1.27-1.42 1.13 1.13 0 0 1-.11.22A1.58 1.58 0 1 1 201 6.9l.16-.2a9.83 9.83 0 0 0-1.81-.59 1 1 0 0 1 0 .25 1.58 1.58 0 1 1-3.15-.16 2.34 2.34 0 0 1 0-.26 9.72 9.72 0 0 0-1.87.4c0 .07.1.14.14.21a1.58 1.58 0 1 1-2.9 1.21 9.41 9.41 0 0 0-1.4 1.24l.21.11a1.58 1.58 0 1 1-1.71 2.65.65.65 0 0 1-.18-.15 10.21 10.21 0 0 0-.58 1.8h.21a1.58 1.58 0 1 1-.15 3.15h-.21a9.32 9.32 0 0 0 .4 1.83.91.91 0 0 1 .16-.11 1.58 1.58 0 0 1 1.44 2.81l-.18.07a9 9 0 0 0 1.25 1.37 1 1 0 0 1 .07-.15 1.58 1.58 0 0 1 2.66 1.71l-.11.14a10 10 0 0 0 1.75.57v-.16a1.58 1.58 0 0 1 3.16.15v.17a8.44 8.44 0 0 0 1.81-.38.6.6 0 0 1-.09-.13 1.58 1.58 0 1 1 2.77-1.45l.06.16a9.48 9.48 0 0 0 1.38-1.23l-.15-.08a1.58 1.58 0 1 1 1.71-2.65.88.88 0 0 1 .15.12 9.68 9.68 0 0 0 .59-1.77h-.2a1.58 1.58 0 0 1-1.49-1.65Zm-2.93.93a4.91 4.91 0 1 1-3.33-6.09 4.92 4.92 0 0 1 3.36 6.09Z" transform="translate(-91.26 -1.51)"/><circle class="cls-4" cx="106.01" cy="13.94" r="6.31"/><circle class="cls-4" cx="106.01" cy="13.94" r="4.3"/><path class="cls-3" d="M143 72.92a2.13 2.13 0 0 1 2.49-1.7l.29.08a13.39 13.39 0 0 0-.18-2.54l-.27.13a2.13 2.13 0 1 1-1.42-4 1.67 1.67 0 0 1 .32-.08 12.76 12.76 0 0 0-1.44-2.12 1.51 1.51 0 0 1-.18.26 2.13 2.13 0 1 1-3.24-2.77 1.88 1.88 0 0 1 .25-.24 12.42 12.42 0 0 0-2.32-1.12 1.84 1.84 0 0 1 0 .33 2.13 2.13 0 1 1-4.19-.78 2.19 2.19 0 0 1 .1-.34 12.92 12.92 0 0 0-2.57.2 1.64 1.64 0 0 1 .14.3 2.13 2.13 0 1 1-4 1.42c0-.11-.06-.22-.08-.33a13.37 13.37 0 0 0-2.11 1.45 2.4 2.4 0 0 1 .26.18 2.13 2.13 0 0 1-2.85 3.22c-.08-.07-.14-.15-.21-.22a12.08 12.08 0 0 0-1.1 2.29h.29a2.13 2.13 0 0 1-.78 4.19l-.27-.08a13.19 13.19 0 0 0 .19 2.52 1.75 1.75 0 0 1 .24-.11 2.13 2.13 0 0 1 1.42 4l-.25.06a12.58 12.58 0 0 0 1.42 2.06 2.13 2.13 0 1 1 3.37 2.59l-.17.16a12.51 12.51 0 0 0 2.24 1.08v-.22a2.13 2.13 0 0 1 4.19.78 2 2 0 0 1-.06.23 12.87 12.87 0 0 0 2.49-.18c0-.07-.07-.13-.1-.21a2.13 2.13 0 0 1 4-1.42 2.1 2.1 0 0 1 .06.24 13.2 13.2 0 0 0 2.07-1.4 2.31 2.31 0 0 1-.19-.14 2.13 2.13 0 1 1 2.77-3.24 1.8 1.8 0 0 1 .19.2 12.87 12.87 0 0 0 1.1-2.27h-.26a2.14 2.14 0 0 1-1.65-2.46Zm-4.08.71a6.63 6.63 0 1 1-3.36-8.76 6.64 6.64 0 0 1 3.33 8.76Z" transform="translate(-91.26 -1.51)"/><path class="cls-4" d="M137.48 70.93a4.65 4.65 0 1 1-4.65-4.65 4.65 4.65 0 0 1 4.65 4.65Z" transform="translate(-91.26 -1.51)"/><circle cx="132.84" cy="70.93" r="8.44" transform="rotate(-22.5 83.428 299.57)" style="stroke-miterlimit:10;stroke-width:.26px;stroke:#222221;fill:none"/><path class="cls-7" d="m205.85 32.58-10.8 12.83 21.65.09-10.85-12.92z"/><path class="cls-7" d="M205.99 43.69v45.48h-91.5v33.9H27.33v15.51"/><path style="stroke:#000;fill:#605d5d;stroke-width:.26px;stroke-miterlimit:10" d="M39.41 11.95H182.8v97.62H39.41z"/><path class="cls-9" d="M21.86 169.86h57.69v51.67H21.86zM86.33 135.67h54.39v85.86H86.33zM149.27 117.23h57.69v104.3h-57.69z"/><path class="cls-10" d="M18.61 169.86H76.3v51.67H18.61zM83.07 135.67h54.39v85.86H83.07zM146.01 117.23h57.69v104.3h-57.69z"/><circle cx="296.41" cy="23.64" r="7.14" transform="rotate(-80.82 249.9 76.482)" style="fill:#e0adad"/><path d="M296 27.58h-.78l-.51-.07-.46-.11-.45-.14a2.19 2.19 0 0 1 .09-.5c.05-.16.1-.32.16-.48.25.08.51.16.78.22a4.35 4.35 0 0 0 1 .09 2.18 2.18 0 0 0 1.35-.35 1.17 1.17 0 0 0 .44-1 1.35 1.35 0 0 0-.09-.52 1 1 0 0 0-.28-.36 2.18 2.18 0 0 0-.48-.29l-.67-.29-.54-.22a4.94 4.94 0 0 1-.61-.3 2.28 2.28 0 0 1-.48-.39 1.59 1.59 0 0 1-.31-.54 2.06 2.06 0 0 1-.11-.74 2 2 0 0 1 .51-1.4 2.44 2.44 0 0 1 1.48-.67v-1.07a1.48 1.48 0 0 1 .38 0 1.7 1.7 0 0 1 .4 0v1a9 9 0 0 1 .91.1 4.28 4.28 0 0 1 .77.2 3.78 3.78 0 0 1-.24.92 4.84 4.84 0 0 0-.69-.19 4 4 0 0 0-.9-.09 1.82 1.82 0 0 0-1.07.27 1.09 1.09 0 0 0-.28 1.28 1 1 0 0 0 .29.34 2.32 2.32 0 0 0 .47.27l.61.27.42.18a6.09 6.09 0 0 1 .72.34 2.16 2.16 0 0 1 .55.42 1.89 1.89 0 0 1 .36.58 2.36 2.36 0 0 1 .12.8 2.25 2.25 0 0 1-.53 1.54 2.73 2.73 0 0 1-1.52.78v1.27h-.77v-1.15Z" transform="translate(-91.26 -1.51)" style="stroke-linecap:round;stroke:#000;stroke-width:.26px;stroke-miterlimit:10;fill:none"/><path class="cls-9" transform="rotate(-89.58 179.396 100.294)" d="M209.84 52.67h31.9v4.82h-31.9z"/><path class="cls-9" transform="rotate(-89.58 190.13 102.97)" d="M223.18 55.34h26.7v4.82h-26.7z"/><path class="cls-9" transform="rotate(-89.58 200.876 104.536)" d="M235.4 56.91h23.74v4.82H235.4z"/><path class="cls-9" transform="rotate(-89.58 210.819 110.356)" d="M251.1 62.73h12.24v4.82H251.1z"/><path transform="rotate(-89.58 177.93 100.3)" style="stroke-miterlimit:10;stroke-width:.26px;fill:#aa6195;stroke:#000" d="M208.38 52.67h31.9v4.82h-31.9z"/><path transform="rotate(-89.58 188.665 102.975)" style="fill:#7696ea;stroke-miterlimit:10;stroke-width:.26px;stroke:#000" d="M221.71 55.34h26.7v4.82h-26.7z"/><path transform="rotate(-89.58 199.405 104.536)" style="fill:#dea600;stroke-miterlimit:10;stroke-width:.26px;stroke:#000" d="M233.94 56.91h23.74v4.82h-23.74z"/><path transform="rotate(-89.58 209.353 110.361)" style="fill:#f65e59;stroke-miterlimit:10;stroke-width:.26px;stroke:#000" d="M249.63 62.73h12.24v4.82h-12.24z"/><path style="stroke:#1b2258;stroke-width:.52px;stroke-miterlimit:10;fill:none" d="m126.52 69.52 49.39.36"/><path class="cls-18" d="m191.65 110.61 7.23-6.49 7.95 6.8 5.77-9.8 5.61 8.05 6.6-16.47 6.73 17.07"/><path class="cls-3" d="M320 111.34a3 3 0 1 0 3-2.86 2.93 2.93 0 0 0-3 2.86ZM306.22 102.62a2.37 2.37 0 1 1-2.37-2.28 2.33 2.33 0 0 1 2.37 2.28Z" transform="translate(-91.26 -1.51)"/><ellipse class="cls-3" cx="192.12" cy="109.84" rx="2.02" ry="1.95"/><ellipse class="cls-3" cx="199.19" cy="104.13" rx="1.93" ry="1.86"/><path class="cls-3" d="M314.15 94.05a2.32 2.32 0 1 0 2.31-2.23 2.27 2.27 0 0 0-2.31 2.23ZM307.28 111.34a2.06 2.06 0 1 1 2.06 2 2 2 0 0 1-2.06-2Z" transform="translate(-91.26 -1.51)"/><ellipse class="cls-3" cx="206.21" cy="109.84" rx="2.39" ry="2.3"/><path d="M144.63 27.88a3.6 3.6 0 1 1-3.6-3.6 3.6 3.6 0 0 1 3.6 3.6ZM144.63 42.88a3.6 3.6 0 1 1-3.6-3.59 3.6 3.6 0 0 1 3.6 3.59Z" transform="translate(-91.26 -1.51)"/><path d="M58.84 23.61h61.91v1.45H58.84zM58.84 26.86h45.88v1.45H58.84zM58.84 38.61h52.79v1.45H58.84zM58.84 41.87h42.84v1.45H58.84zM58.84 45.51h35.94v1.45H58.84z"/><text class="cls-19" transform="translate(48.79 28.22)">1</text><text class="cls-19" transform="translate(48.38 43.41)">2</text><path d="M144.63 98.28a3.6 3.6 0 1 1-3.6-3.59 3.6 3.6 0 0 1 3.6 3.59Z" transform="translate(-91.26 -1.51)"/><path d="M58.84 94.01h55.83v1.45H58.84zM58.84 97.26h42.01v1.45H58.84z"/><text class="cls-19" transform="translate(48.38 98.81)">4</text><path d="M134 111.79a14.54 14.54 0 0 0 2.39-2.91c.75-1 1.49-2.26 2.94-2.27s2.57.88 3.82 1.56a5.05 5.05 0 0 1 1.82 8.25 14.58 14.58 0 0 1-2.74 2.58c-2.67 2-5.73 3.78-9.08 4a16.34 16.34 0 0 1-3.94-.36 6 6 0 0 1-3.8-1.9 2 2 0 0 1-.38-.83 2.27 2.27 0 0 1 .08-.86 8.65 8.65 0 0 1 5.43-5.7 16.28 16.28 0 0 0 2.91-1.14 4.14 4.14 0 0 0 .55-.42Z" transform="translate(-91.26 -1.51)"/><path class="cls-20" d="M146.17 129.31c0-1-.11-2-.11-3a10.21 10.21 0 0 0-2.81-2.17c-.68.08-2.11.43-2.6-.23s-.2-2.11-.15-2.88l1.11-.11a5.07 5.07 0 0 0 1-.18c2.06-.71 2.6-2.91 2.77-4.85a13.45 13.45 0 0 0-.37-5 4 4 0 0 0-1.24-2.13c-1.09-.85-2.68-.71-4-.66a5.46 5.46 0 0 0-3.13 1.13 9.67 9.67 0 0 0-3.26 5.85c-.47 2.35.23 4.76-.48 7a3.35 3.35 0 0 1-.88 1.54 3.87 3.87 0 0 1-1.29.67 8.92 8.92 0 0 1-1.74.41c-1.16 1.27-2.25 2.63-3.51 3.8a45 45 0 0 0 19.54 3.31c.34 0 .71 0 1.09-.08.05-.79.06-1.6.06-2.42Z" transform="translate(-91.26 -1.51)"/><path class="cls-21" d="M118.11 145.28c.55 3.9.71 10.6 4.55 12.87a10.74 10.74 0 0 0 4.59 1.11c6.93.63 14.42 1.13 20.35-2.53a8.17 8.17 0 0 0 2.18-1.83 11 11 0 0 0 1.82-5.14c.76-4.57 1.22-8.51.38-13.1a28.47 28.47 0 0 0-3.37-10c-1.31-2.12-3.7-2.83-6.14-2.83a6.88 6.88 0 0 1-2.47 3.37c-1.57 1.08-3.88.91-5.67.4a7 7 0 0 1-2.61-1.36c-.2-.16-1.6-2-1.58-2a24.86 24.86 0 0 0-7.21 2.22c-3.59 2-5.35 6-5.67 9.93-.21 3.04.42 5.87.85 8.89Z" transform="translate(-91.26 -1.51)"/><path d="M157.09 175.46a11.66 11.66 0 0 0-2.44-2c-2.91-1.91-6.61-4.19-10.27-4-2.17.13-5.18 1.6-5.63 3.89a1.38 1.38 0 0 0 0 .78c.26.6 1.08.66 1.73.67 5.28 0 10.08 3 15.25 4.06a2.25 2.25 0 0 0 1.68-.13 1.88 1.88 0 0 0 .29-2.37 4.46 4.46 0 0 0-.61-.9Z" transform="translate(-91.26 -1.51)"/><path class="cls-22" d="M169.1 152.48a7.88 7.88 0 0 0-4.39-2.38 15.68 15.68 0 0 0-7 .62c-4.82 1.32-9.34 3.56-14.18 4.81a15 15 0 0 1-5.65.17c-2.66-.21-5.4.05-8.08-.11-2.5-.15-5.21-.34-7.55.35l-.92-.61c-2.62-1.71-5.23-3.42-8.51-2.8a10.82 10.82 0 0 0-6.67 3.93c-1.7 2.25-1.19 5.2.33 7.45a15.64 15.64 0 0 0 5.06 4.39c6.65 4 13.92 6.44 21.77 5.89a3.6 3.6 0 0 1 3 .76c.29.32.45 2.06 1.08 2a17.77 17.77 0 0 0 3-.57l11.9-4.3a57.26 57.26 0 0 0 10.18-4.44 17.3 17.3 0 0 0 6.69-6.78c1.05-2.09 1.91-4.84.82-7a6.15 6.15 0 0 0-.88-1.38Z" transform="translate(-91.26 -1.51)"/><path class="cls-18" d="M119.86 158.48c2.23 1.11 4.57 1.82 6.71 3.14a50.91 50.91 0 0 0 6.47 3.86c1.51.65 3.22.93 4.66 1.64" transform="translate(-91.26 -1.51)"/><path d="M136.27 174.65c-.36-.81-.8-1.6-1.17-2.38-.25-.51-.41-1-.68-1.55a.4.4 0 0 0-.16-.18.37.37 0 0 0-.21 0l-3.16.37c-.77.09-1.89 0-2.46.61a4.73 4.73 0 0 0-.74 1.17c-1.6 3-4.63 5-6.73 7.76a3.42 3.42 0 0 0-.85 1.92 1.89 1.89 0 0 0 1 1.68c1.67.79 4.17-1.12 5.47-2a54.25 54.25 0 0 0 5.41-4.15 10.4 10.4 0 0 1 4.68-2 8.39 8.39 0 0 0-.4-1.25Z" transform="translate(-91.26 -1.51)"/><path class="cls-20" d="M141.9 158.94c1.19-.16 5.32-.55 5.21-2.42a1.24 1.24 0 0 0-.59-.86 6.78 6.78 0 0 0-3.33-.91 110.61 110.61 0 0 1-13.19-1.93 3.52 3.52 0 0 1-1.34-.51 3.7 3.7 0 0 1-1-1.5c-.61-1.32-1.21-2.65-1.82-4a8.21 8.21 0 0 0-1.11-1.93 3.29 3.29 0 0 0-5.23.23 6 6 0 0 0-1.06 2.67 9.89 9.89 0 0 0 7.88 11.38 24.47 24.47 0 0 0 5.48.13c2.94-.1 5.88 0 8.81-.24.2.01.68-.05 1.29-.11Z" transform="translate(-91.26 -1.51)"/><path class="cls-20" d="M145.3 145.67a6.32 6.32 0 0 1-.93 2.87 19.13 19.13 0 0 1-2.41 3.37 18.79 18.79 0 0 1-3.92 3.36c-.84.53-1.74.95-2.62 1.42l-.06.08a1.64 1.64 0 0 0-.47 1.25 1.47 1.47 0 0 0 1.22 1 12.67 12.67 0 0 0 4.94-.22c5.37-1.33 9.69-4.19 10.89-11.06-2.32-.25-4.45-1.27-6.64-2.07Z" transform="translate(-91.26 -1.51)"/><path class="cls-21" d="M144.54 132.4c.17 3.4.91 6.75 1 10.15a22.15 22.15 0 0 1-2.54 10.31" transform="translate(-91.26 -1.51)"/><path d="M125.21 161h23.61a.63.63 0 0 0 .63-.63.63.63 0 0 0-.63-.62h-23.61a.62.62 0 0 0-.62.62.63.63 0 0 0 .62.63Z" transform="translate(-91.26 -1.51)"/><path d="M128.72 160.11h20.66l4.29-10.6a.52.52 0 0 0-.48-.72h-19.54a.53.53 0 0 0-.48.32ZM141.06 106.39a5.15 5.15 0 0 1 .56.16 7.24 7.24 0 0 1 3.84 4.22 3.07 3.07 0 0 1 .21.79 2.11 2.11 0 0 1-.15 1 5.51 5.51 0 0 1-1.15-1.21 22.1 22.1 0 0 1-3 2.58 7 7 0 0 1-3.81.89c-.27 0-1-.22-1.21-.06s-.11 1-.14 1.22a20.13 20.13 0 0 1-.82 3.07c-.41 1.16-1.75 1.28-2.81 1.27a18.86 18.86 0 0 1-5.3-.56 4 4 0 0 1-2.79-2.11 3.72 3.72 0 0 1 .2-2.66 5.78 5.78 0 0 1 2-2.66 6.26 6.26 0 0 1 3.16-.93 2.91 2.91 0 0 0 1.14-.19 3.26 3.26 0 0 0 1.13-1.42 8.14 8.14 0 0 1 6.05-3.52 8 8 0 0 1 2.89.12Z" transform="translate(-91.26 -1.51)"/><path class="cls-18" d="M158.3 154.61c-4.47 2-8.06 5.53-12.13 8.27a80.65 80.65 0 0 1-12.18 6.3c.22.47.3.95.52 1.43" transform="translate(-91.26 -1.51)"/><path class="cls-20" d="M136.31 118c-1.7-.27-1.73-2.56-.71-3.55a2.08 2.08 0 0 1 1.77-.62 1.39 1.39 0 0 1 1.17 1.34" transform="translate(-91.26 -1.51)"/><path class="cls-4" d="M142.08 117.13a1.75 1.75 0 0 0 2.19 1.08M136.87 114.86a1 1 0 0 1 .76 1.48" transform="translate(-91.26 -1.51)"/><path class="cls-21" d="M119.07 130.61c-2 3.21-2 6.9-2.17 10.52a35.89 35.89 0 0 0 1.33 11.71l1-.21c1.24-.5 3.4-1.21 3.75-1.31a22.41 22.41 0 0 0 4.94-2.23c-.31-2.6-.53-5.24-1-7.8a17.94 17.94 0 0 1 .07-7.51" transform="translate(-91.26 -1.51)"/><path d="M143.37 154.45a1.85 1.85 0 0 1-1.66 1c-.69 0-1.08-.46-.86-1a1.87 1.87 0 0 1 1.66-1c.69-.04 1.08.43.86 1Z" transform="translate(-91.26 -1.51)" style="stroke:#fff;stroke-width:.26px;stroke-miterlimit:10;fill:none"/><path d="M119.14 39.5a8.31 8.31 0 1 0-13.57 6.5 6.18 6.18 0 0 1 2.27 4l.49 4.48h5.17l.44-4.48a6.08 6.08 0 0 1 2.21-4.08 8.32 8.32 0 0 0 2.99-6.42Z" transform="translate(-91.26 -1.51)" style="fill:#bc892f"/><path d="M110.92 55.61a3.26 3.26 0 0 1-3.28-3.24V51h6.52v1.41a3.26 3.26 0 0 1-3.24 3.2Z" transform="translate(-91.26 -1.51)"/><path class="cls-4" d="M109.64 51.64c-.43-2-.87-4-1.3-6.07-.4-1.87-1.25-3.83-1.41-5.71-.09-1 .95-1.12 1.5-.53a2.73 2.73 0 0 1 .5 1.82 4.77 4.77 0 0 1 .53-1.95.79.79 0 0 1 .26-.31.51.51 0 0 1 .6.12 1.13 1.13 0 0 1 .28.58 3.16 3.16 0 0 1-.12 1.75 11.23 11.23 0 0 1 .85-1.91c.2-.36.56-.75.94-.6a.82.82 0 0 1 .38.71 3.42 3.42 0 0 1-.23 1.64 5.13 5.13 0 0 1 .75-1.94c.18-.28.45-.57.78-.52a.64.64 0 0 1 .47.46 5.76 5.76 0 0 1-.23 2.72c-.24 1.32-.49 2.64-.73 4-.34 1.86-.69 3.72-1 5.59M98.05 37.41l2.54.36" transform="translate(-91.26 -1.51)"/><path class="cls-4" d="m9.03 29.73 1.94 1.76"/><path class="cls-4" d="M108.32 27.23c.13.65.26 1.72.38 2.37M113.77 27c-.18 1.4-.31 2.36-.38 2.93M121.62 32.61l-2.53 1.77M121.07 38.33l2.73.18" transform="translate(-91.26 -1.51)"/><g class="cls-25"><path class="cls-26" d="m15.65 51.05 8-.05"/></g><g class="cls-25"><path class="cls-26" d="m15.66 52.65 7.99-.05"/></g><path class="cls-27" d="M257.71 42.22A9.27 9.27 0 1 1 267 33a9.28 9.28 0 0 1-9.29 9.22Zm0-13.6A4.34 4.34 0 1 0 262 33a4.34 4.34 0 0 0-4.29-4.38Z" transform="translate(-91.26 -1.51)"/><path class="cls-21" d="M248.67 35a9.08 9.08 0 0 1-.23-2.08A9.27 9.27 0 0 1 267 33h-5a4.34 4.34 0 0 0-8.67 0 4.51 4.51 0 0 0 .11 1Z" transform="translate(-91.26 -1.51)"/><path class="cls-20" d="M267 33h-5a4.34 4.34 0 0 0-6.85-3.53l-2.86-4a9.19 9.19 0 0 1 5.38-1.72A9.28 9.28 0 0 1 267 33Z" transform="translate(-91.26 -1.51)"/><path d="M261.56 31a4.28 4.28 0 0 1 .44 2h5a9.21 9.21 0 0 0-2-5.67c-1.16 1.16-2.32 2.4-3.44 3.67Z" transform="translate(-91.26 -1.51)" style="fill:#9dd1c9;stroke:#000;stroke-width:.26px;stroke-miterlimit:10"/><path class="cls-29" d="M95 93.24a4.4 4.4 0 0 1 4.59-4.41 4.33 4.33 0 0 1 2.25.76 5.2 5.2 0 0 1 4.16-1.77c2.26.11 4.45 1.63 4.63 3.73a5 5 0 0 1 1.94 8.74 3.09 3.09 0 0 1-.25 2.54 2.55 2.55 0 0 1-1.17 1.1 3.07 3.07 0 0 1-2.47.12v4.14a.26.26 0 0 1-.47.14l-2.21-3.12a2.74 2.74 0 0 1-4-2.25 3.61 3.61 0 0 1-1.79.38 3.65 3.65 0 0 1-3.46-3.34 3.72 3.72 0 0 1-3.64.07 3.27 3.27 0 0 1-1.58-1.75A3.66 3.66 0 0 1 95 93.24Z" transform="translate(-91.26 -1.51)"/><path class="cls-20" d="M109.85 98.3a3 3 0 0 1 2.61 1.84M96.78 99.69a3.65 3.65 0 0 1 3.81-3.46M94.64 93.24a3.68 3.68 0 0 1 2.09.48M98.77 90.45a2.93 2.93 0 0 1 2.78 3.06M101.33 101.56a2.6 2.6 0 0 1-2.82-2.33M93.19 97.77a2.33 2.33 0 0 1 1.44-3M111 101.18a1.76 1.76 0 0 1-2.22 1.14M106.72 92.26a4.93 4.93 0 0 1 3.79-.72M111.34 93.78a3 3 0 0 1 1.21 2.34M103.53 94.89a2.27 2.27 0 0 1 2.24 3.61M103.23 99.31a1.31 1.31 0 0 0 .31 2.14" transform="translate(-91.26 -1.51)"/><path class="cls-29" d="M179.49 64.59a4.52 4.52 0 0 1-1.12 2.86 8.33 8.33 0 0 1-4.77 2.49c-3.42.69-7 .86-10.28-.59a8.51 8.51 0 0 1-3.58-2.89c-1.64-2.54.19-5.38 2.51-6.7 3-1.71 7.16-1.78 10.47-1.22a11.26 11.26 0 0 1 4 1.37 5.52 5.52 0 0 1 2.77 4.68ZM158.37 80.89a3.9 3.9 0 0 1 0 .59c-.26 2.86-4.09 4-6.48 4-2.2 0-4.83-.76-6.09-2.71s0-4.29 1.84-5.42a8.19 8.19 0 0 1 4.09-1 7.73 7.73 0 0 1 4.54 1.17 4.74 4.74 0 0 1 2.1 3.37ZM176.27 80.86a1.6 1.6 0 0 1 0 .31 4 4 0 0 1-2 3 9.14 9.14 0 0 1-6.13 1.17c-2-.32-5.35-1.67-5.41-4-.05-2.14 2.34-4 4.13-4.68 3.14-1.25 9.24-.01 9.41 4.2ZM193.49 80.88a3.32 3.32 0 0 1-.44 1.92 4.91 4.91 0 0 1-2.12 1.77 8.78 8.78 0 0 1-4.06.88c-2.15 0-4.66-.71-6-2.54s-.11-4.28 1.6-5.43a8.12 8.12 0 0 1 4.6-1.18 7.38 7.38 0 0 1 5 1.66 4.46 4.46 0 0 1 1.42 2.92Z" transform="translate(-91.26 -1.51)"/><path class="cls-20" d="M161.28 70.6c-1 .64-5.4 3.76-5.4 3.76M169.55 71.67c.07.92.14 1.84.22 2.77M178.3 70.46c1.07.76 4.15 3.51 5.11 4.4M163.13 64.41a1.75 1.75 0 0 0 1.81.62 1.72 1.72 0 0 0 1.26-1.43c0-.24-.1-.57-.33-.5a.27.27 0 0 0-.15.11 1.23 1.23 0 0 0 .15 1.61 1.61 1.61 0 0 0 1.66.26 2.35 2.35 0 0 0 1.22-1.22.63.63 0 0 0 .07-.46c-.11-.32-.64-.27-.8 0a.92.92 0 0 0 .19.94 1.85 1.85 0 0 0 3.24-.7.57.57 0 0 0 0-.48c-.16-.23-.56-.14-.7.11a.86.86 0 0 0 0 .81 2.05 2.05 0 0 0 2.32 1.1 1.79 1.79 0 0 0 1.2-1.18c.07-.2.15-.56-.07-.69-.41-.24-.46.37-.42.61a1.43 1.43 0 0 0 .54.89 1.38 1.38 0 0 0 1.95-.52M148.44 81.46c.09-.73.85-1.17 1.55-1.4a1 1 0 0 1 .45-.06c.42.06.6.58.56 1a.82.82 0 0 1-.2.54.41.41 0 0 1-.54 0 .5.5 0 0 1 0-.55 2 2 0 0 1 1.09-1 1.74 1.74 0 0 1 1.26-.13 1 1 0 0 1 .2 1.85.23.23 0 0 1-.15.05.24.24 0 0 1-.16-.07.76.76 0 0 1-.06-.94 2 2 0 0 1 .8-.63 2.41 2.41 0 0 1 1.06-.34.89.89 0 0 1 .88.59M166 80a1.5 1.5 0 0 0-.19.25 1 1 0 0 0 .56 1.29 1.7 1.7 0 0 0 1.51-.22c.47-.28.88-.85.65-1.35a.23.23 0 0 0-.08-.09.2.2 0 0 0-.2.06 1 1 0 0 0 .17 1.44 1.63 1.63 0 0 0 1.56.13 1.82 1.82 0 0 0 .9-.67 1.06 1.06 0 0 0 .26-.57.38.38 0 0 0-.19-.34c-.55-.27-.47 1-.31 1.29a1.48 1.48 0 0 0 1.59.5M183.41 80.25a1.64 1.64 0 0 0 .52 1.32 1.37 1.37 0 0 0 1.37.26 1.15 1.15 0 0 0 .72-1.15.44.44 0 0 0-.21-.36.36.36 0 0 0-.39.15.66.66 0 0 0 0 .44 1.35 1.35 0 0 0 1.47 1 1.6 1.6 0 0 0 1.33-1.31.43.43 0 0 0 0-.25.35.35 0 0 0-.53-.11.65.65 0 0 0-.19.57 1.13 1.13 0 0 0 1.26.94 1.11 1.11 0 0 0 .85-1.32.33.33 0 0 0-.07-.16.29.29 0 0 0-.41 0 .57.57 0 0 0-.13.44 1.13 1.13 0 0 0 1.76.88M215.28 221.75a1 1 0 0 0 .24.47 1.13 1.13 0 0 0 .57.24 53.62 53.62 0 0 0 5.33 1c-.56-4.55-.38-9.22-2.19-13.56a5.13 5.13 0 0 0-1.1-1.79 4.11 4.11 0 0 0-3.35-1.07c-.94.11-2.81.77-3.07 1.71s.78 3.26 1.06 4.33c.77 2.92 1.61 5.78 2.51 8.67Z" transform="translate(-91.26 -1.51)"/><path class="cls-9" d="M228.42 227.56c-1.89-.23-3.77-.43-5.66-.6-1.59-.15-3.19-.23-4.78-.44a15.1 15.1 0 0 1-3.37-.77c-.68-.25-.24-1.87-.14-2.32a13.91 13.91 0 0 0 .18-3.35c1.81 0 3.62-.06 5.43-.13a2.79 2.79 0 0 1 1 .09 3.42 3.42 0 0 1 1.07.79c1.32 1.24 9.49 4 9 6.26-.12.62-1 .69-1.61.61Z" transform="translate(-91.26 -1.51)"/><path class="cls-20" d="M192.65 222.45a.79.79 0 0 1-.15.46.92.92 0 0 1-.52.23 49.3 49.3 0 0 1-5.17.85c-.32-4.52-1.41-9.17-.45-13.46a4.09 4.09 0 0 1 .76-1.76 3.52 3.52 0 0 1 3.16-1c1 .13 3 .83 3.41 1.77s-.14 3.23-.22 4.29c-.2 2.88-.47 5.76-.82 8.62ZM193.28 93.71c0 .16 0 .31.07.47.39 2.41-.54 4.94-.06 7.44.34 1.77 1.85 5.29 4 5.52.56.06 1.11-.67 1.42-1a8.34 8.34 0 0 0 2-4.28 11.25 11.25 0 0 0-.05-2.32c-.09-1.1-.19-2.21-.29-3.32a11.53 11.53 0 0 0-.2-1.55 5.39 5.39 0 0 0-1.17-2.56c-1.29-1.46-3.18-1.57-5-1.61a1 1 0 0 0-.6.12c-.34.21-.34.69-.3 1.09.01.67.08 1.34.18 2Z" transform="translate(-91.26 -1.51)"/><path d="M197.54 96.15c-1.15.35-4.17.81-4.17.81a21.52 21.52 0 0 0 .07-2.27c0-.08-.08-.58-.15-1a4.58 4.58 0 0 0-.14-.72 1.78 1.78 0 0 0 .75-.38c.13-.11.22-.26.35-.38a3 3 0 0 1 3.06-.52 3.59 3.59 0 0 1 1.5 1.17 4.71 4.71 0 0 1 .59 1 3.85 3.85 0 0 1 .42 1.25s0 .11 0 .29c-.73.25-1.5.51-2.28.75Z" transform="translate(-91.26 -1.51)"/><path class="cls-20" d="M201.25 88.87c.47-1.47 2.11-.86 2.46.34a1.88 1.88 0 0 1-.42 1.8 1.3 1.3 0 0 1-1.28.43" transform="translate(-91.26 -1.51)"/><path class="cls-20" d="M201 83.68c-.92-.49-3.4 1.26-4.44 1.39s-2.62.49-3.34 1.24c-1.52 1.59-1.24 4.36-.28 6.3.16.33.5 1.15.69 1.46a5.53 5.53 0 0 0 5.82 2.32c1.71-.41 2.64-1.84 2.93-3.84.05-.36.06-1.53.07-1.89.04-2.22-.45-6.46-1.45-6.98Z" transform="translate(-91.26 -1.51)"/><path d="M200.68 82.33a8.23 8.23 0 0 0-3.24-1 7.93 7.93 0 0 0-2.48 0 5 5 0 0 0-2.89 1.7 5.6 5.6 0 0 0-1 4.49c.2 1.11.62 2.84 1.77 3.33a.83.83 0 0 0 1.3-.71c.14-.86 0-1.78.08-2.66a.62.62 0 0 1 .11-.33.64.64 0 0 1 .36-.14 11.38 11.38 0 0 0 5.23-2.39 2.17 2.17 0 0 0 1.31.79 1.72 1.72 0 0 0 1 0 .84.84 0 0 0 .39-.82 1.79 1.79 0 0 0-.38-.87 5.11 5.11 0 0 0-1.56-1.39Z" transform="translate(-91.26 -1.51)"/><path d="M200.2 83.72c.83-.63 1.93.18 2.25 1a6.72 6.72 0 0 1 .23 2.89c0 .56 0 1.21-.08 1.79 0-.35-.08-.7-.14-1a5.58 5.58 0 0 0-.68-2.09 1.4 1.4 0 0 0-.63-.85c-.23-.13-.51-.17-.74-.31a1 1 0 0 1-.42-.54.74.74 0 0 1 .21-.89Z" transform="translate(-91.26 -1.51)"/><path class="cls-20" d="M193.72 91.84a1.14 1.14 0 0 1-1.82.19c-1.15-1.12-.67-4 1.38-3.43a2.39 2.39 0 0 1 1.21 1.18" transform="translate(-91.26 -1.51)"/><path class="cls-27" d="M182.74 168.73c-.19-7.06-.34-13.88.78-20.9.47-3 3-13.38 6.73-13.94a1.32 1.32 0 0 1 .57 0A8.76 8.76 0 0 1 192 131a12.64 12.64 0 0 1 7.68-5.3c3.39-.8 7.52-.34 9 3.57.77 2 .59 4 1.5 6 2.57 5.47 2.9 10.89 3.66 16.91q1.36 10.65 2.82 21.3 2.78 20.23 5.94 40.4a34.11 34.11 0 0 1-4.25.77 32.74 32.74 0 0 1-7.47-.08q-3.63-18.35-7.77-36.58c-1.38-6.08-2.42-9.18-3.85-15-.15 1.48-.31 3-.47 4.44-.6 5.25-1 10.5-1.81 15.73a176.3 176.3 0 0 0-1.58 32.17c-2.35.1-7-.08-9.23-.24-.34 0-2.84-.36-2.87-.67-.76-8.48-.73-15.29-.91-24.18-.13-6.73.54-14.96.35-21.51Z" transform="translate(-91.26 -1.51)"/><path class="cls-20" d="M197 92.33c.07.52.83.91 1.76.89" transform="translate(-91.26 -1.51)"/><path class="cls-22" d="M178.58 105.16a9.33 9.33 0 0 1 1-1.49c2.06-2.5 5.12-3.47 8.24-3.78 1.78-.18 3.58 0 5.29-.58a4.83 4.83 0 0 0 .32 1.46c.61 1.43 2.37 1.75 3.9 1.74a3.43 3.43 0 0 0 3.31-3c1.76.29 3.57.19 5.32.48a6.77 6.77 0 0 1 3.83 1.77 22 22 0 0 1 3 4c.24.39.46.78.68 1.17 3.32 5.88 5 12 2.94 18.51A6.1 6.1 0 0 1 214 129a3.45 3.45 0 0 1-1.83.47c.43 3.93 1 8 1 11.43-4.7 1.8-26.09 3.2-29.13 1.81a61.48 61.48 0 0 0 1-13.65 9.48 9.48 0 0 1-2.4-2.49 29.59 29.59 0 0 1-4.78-10.44 21.22 21.22 0 0 1-.45-7.06 10.64 10.64 0 0 1 1.17-3.91Z" transform="translate(-91.26 -1.51)"/><path class="cls-30" d="M209.79 124.77c-2.13.44-4.29.86-6.41 1.4L194 128.6a23.68 23.68 0 0 1-5.27.93c-2.11.06-5.44-.42-5.35-3.22.1-3.19 2.84-5.84 5.69-6.83 2.7-.93 5.63-.82 8.49-.7s5.57.29 8.36.45c2.32.14 4.77-.12 7.07.16a6.42 6.42 0 0 1 4.26 2.53c1 1.31 2.76 5.9 0 6.51-1.2.26-1-.87-1.29-1.63a3 3 0 0 0-2.18-2.13 8.68 8.68 0 0 0-3.99.1Z" transform="translate(-91.26 -1.51)"/><path class="cls-30" d="m201.71 127.07.74.48a26.55 26.55 0 0 0 2.68 1.31 12.65 12.65 0 0 0 8.82.46c3.09-.79 2.35-4.18.58-6a11.4 11.4 0 0 0-4.41-2.58c-3.84-1.41-7.84-1.71-11.76-2.74-3.58-.95-7.74-1.86-11.19 0a4.31 4.31 0 0 0-1.67 1.69 4.64 4.64 0 0 0-.5 1.17 2.64 2.64 0 0 0-.08.84 1.67 1.67 0 0 1 0 .63 7.38 7.38 0 0 1 1.42-1.12l2.19-1.14a.4.4 0 0 1 .24-.07.56.56 0 0 1 .21.06 77.71 77.71 0 0 1 10.89 5.79Z" transform="translate(-91.26 -1.51)"/><path class="cls-9" d="M193.59 227h-1.5l-1.3.08c-3.37.24-6.82.79-10.14.85a9.57 9.57 0 0 1-3.44-.38c-2.73-1 .59-2.22 1.67-2.78a36.68 36.68 0 0 1 3.33-1.63 26.26 26.26 0 0 0 4.4-2.29 22.67 22.67 0 0 0 5.92.52c1.02 0 2.54 5.17 1.06 5.63Z" transform="translate(-91.26 -1.51)"/><path class="cls-18" d="M208.38 119.33a41.45 41.45 0 0 0-2-10.37M188.62 117.18q-.75-4.09-1.49-8.19" transform="translate(-91.26 -1.51)"/><path class="cls-31" d="m199.1 164.19 1.22-16" transform="translate(-91.26 -1.51)"/><path class="cls-20" d="M192.38 89.62a1.44 1.44 0 0 1 1.16.33 1.48 1.48 0 0 1 .5 1.1" transform="translate(-91.26 -1.51)"/><path class="cls-32" d="M225.51 82.32a3.6 3.6 0 1 1-3.59-3.6 3.59 3.59 0 0 1 3.59 3.6Z" transform="translate(-91.26 -1.51)"/><path class="cls-32" d="M139.72 78.05h31.38v1.45h-31.38zM139.72 81.3h31.38v1.45h-31.38z"/><text class="cls-19" transform="translate(129.26 82.66)">3</text><path class="cls-20" d="M244.88 77.37a4.5 4.5 0 0 0-2.23.58.49.49 0 0 1-.39 0 .48.48 0 0 1-.2-.2c-.2-.29-1.82-3.14-2.21-2.05a1 1 0 0 0 .12.73 19 19 0 0 0 4.47 6.66c.51.44 1 .84 1.51 1.32 1.31 1.34 2 3.2 3.39 4.46a1.5 1.5 0 0 0 1.26.5c1.36-.29.75-2.8.3-3.56s-1.05-1.37-1.53-2.08c-.73-1.07-1.14-2.33-1.76-3.47a7.65 7.65 0 0 0-2.08-2.69 1.72 1.72 0 0 0-.65-.2Z" transform="translate(-91.26 -1.51)"/><path class="cls-20" d="M242.06 77.78a5.46 5.46 0 0 0 .46.86M256.68 221.58c-.79.95-2.63.47-3.68.42-.83 0-1.67.14-2-.71a3.45 3.45 0 0 1-.09-1.64 42.42 42.42 0 0 1 .82-5.53 5.41 5.41 0 0 1 2-3.39 3.23 3.23 0 0 1 3.73.11 4.06 4.06 0 0 1 1.26 3.31 15.1 15.1 0 0 1-.8 3.85c-.3 1-.61 2-.91 3a1.53 1.53 0 0 1-.33.58Z" transform="translate(-91.26 -1.51)"/><path class="cls-9" d="M257 220.74h-.17a23 23 0 0 1-5.62-.14 1.94 1.94 0 0 0-.72 0 2 2 0 0 0-.59.27 16.77 16.77 0 0 1-5.73 2.06 7.17 7.17 0 0 0-3.34 1c-.43.33-.78 1-.46 1.41a1.14 1.14 0 0 0 .44.34c1.73.85 4.38.59 6.27.52 3-.11 6 .14 9.06-.41a.87.87 0 0 0 .35-.13.78.78 0 0 0 .23-.46 24.26 24.26 0 0 0 .51-2.51c0-.33.25-1.54 0-1.82a.31.31 0 0 0-.23-.13Z" transform="translate(-91.26 -1.51)"/><path class="cls-20" d="M286 220.13c-.61 1.05-2.51.8-3.55.88-.83.07-1.62.35-2.11-.46a3.52 3.52 0 0 1-.37-1.63 42.37 42.37 0 0 1-.14-5.64 5.21 5.21 0 0 1 1.37-3.65 3.16 3.16 0 0 1 3.69-.35 4.35 4.35 0 0 1 1.82 3.16 15.54 15.54 0 0 1-.14 4c-.13 1-.25 2.11-.38 3.16a1.42 1.42 0 0 1-.19.53Z" transform="translate(-91.26 -1.51)"/><path class="cls-9" d="M286.45 219.35c0-.2-5.88.74-6.53.84l-.07.06a22.6 22.6 0 0 1-7.11 3.46 2.32 2.32 0 0 0-1.06.59c-1.15 1.31 1.25 1.92 2.1 2a16.49 16.49 0 0 0 4.15-.35c2.81-.46 5.67-.27 8.45-.92a.48.48 0 0 0 .3-.15.52.52 0 0 0 .07-.25 17.38 17.38 0 0 0-.3-5.28Z" transform="translate(-91.26 -1.51)"/><path class="cls-20" d="M285.19 89.79a6.17 6.17 0 0 0-1.27-4.26c-.76-1-1.46-2.41-2.75-2.82-2.47-.8-4.82-.94-6.4 1.35a6.26 6.26 0 0 0-.89 2.57c-.36 2.06-.94 5.37.38 7.24a1.48 1.48 0 0 0 1.21.65.48.48 0 0 1 .46.38 17 17 0 0 1-.27 6.59 4.24 4.24 0 0 0 .62 3.61 3.27 3.27 0 0 0 2.44 1 27.31 27.31 0 0 0 3.8-.7c1.2-.17 1.13-.94 1.16-1.92v-3.62a21.74 21.74 0 0 1 .65-7 24.17 24.17 0 0 0 .79-2.5c.02-.19.05-.36.07-.57Z" transform="translate(-91.26 -1.51)"/><path class="cls-22" d="M289.19 169a55.84 55.84 0 0 1-.29-4.93c-.21-10.05 1.27-21.5-4.65-30.06-1.5-2.16-4-3.83-6.52-3.66a5.87 5.87 0 0 0-4.38 2.55 5.5 5.5 0 0 0-.63 1.06c-6.29-.22-9 6.4-10.32 11.62q-4.44 17.21-7.33 34.77c-1 5.82-2 11.62-2.84 17.46-.84 6-1.32 12.32-1.68 18.33a.52.52 0 0 0 0 .35.59.59 0 0 0 .36.18 41.19 41.19 0 0 0 7.59.9.61.61 0 0 0 .35-.05.66.66 0 0 0 .23-.33c2.56-5.77 4.07-12.25 5.33-18.43a226.22 226.22 0 0 1 9.35-32.89c.34 2.53.65 5.07.87 7.63q1.85 21.06 4 42.1a38.34 38.34 0 0 0 9.7-.36 180.14 180.14 0 0 0 .86-46.24Z" transform="translate(-91.26 -1.51)"/><path class="cls-21" d="M289.1 106.47c-.94-3.22-2.85-5.94-6.46-7-4-1.19-7.68-.15-9.72 3.55s-3 8-3.94 12.11c-2.17 9.74-5 19.59-6.54 29.45-.07.46 25 .37 27.5 0a.94.94 0 0 0 .63-.25 1 1 0 0 0 .14-.74c-.74-9.14-1.85-17.87-1-27.11a27.69 27.69 0 0 0-.61-10.01Z" transform="translate(-91.26 -1.51)"/><path class="cls-30" d="M252.65 151.74c-.06.12-.12.25-.17.38a7.89 7.89 0 0 1-1.69 3.1 1.71 1.71 0 0 1-1.32.56 1.69 1.69 0 0 1-1.15-.84c-1.49-2.3.13-5 1.36-7a18.53 18.53 0 0 1 5.26-5.71 20.87 20.87 0 0 1 2.86-1.66.47.47 0 0 1 .32-.07.45.45 0 0 1 .24.31 2.62 2.62 0 0 1-.35 2c-.81 1.43-2.28 2.42-2.93 3.93-.35.8-.44 1.71-.85 2.48s-1.15 1.6-1.58 2.52Z" transform="translate(-91.26 -1.51)"/><path class="cls-21" d="M276.84 102.07c-6.41-3.14-11.67-8.18-17-13-.93-.85-2.24-2.09-3.7-3.25-3.37-2.67-7.58-4.87-9.93-.6a5.52 5.52 0 0 0 0 5.12c1.9 3.49 5.56 6.43 8.37 9.18 5.11 5 10.77 10.19 17.56 12.67a58.35 58.35 0 0 1 4.7-10.12Z" transform="translate(-91.26 -1.51)"/><path class="cls-21" d="M276 99.83a8.29 8.29 0 0 0-2.35 1.9 11.27 11.27 0 0 0-1.33 1.91c-2.47 4.46-2.84 9.09-5.59 13.43q-5.26 8.28-10.51 16.57c-1.47 2.32-3 4.75-3.31 7.48s.89 5.85 3.46 6.81a6.3 6.3 0 0 0 6-1.33 18.49 18.49 0 0 0 3.92-5c3.46-5.66 7.52-11.19 10.78-16.89 2.71-4.75 5.23-12 5.61-17.51" transform="translate(-91.26 -1.51)"/><path class="cls-9" d="M281.87 81.79a13.45 13.45 0 0 0-4.63-.75 1.33 1.33 0 0 1-1.13-.31c-.1-.12-.15-.27-.24-.4-.52-.71-1.61-.11-1.93.49a4.43 4.43 0 0 0-.28 2.25c.22 1.59 1.78 2.18 3.12 2.62a4.33 4.33 0 0 1 2.36 2c1.08 2.41 1.29 4.76 3.92 6.2a1.18 1.18 0 0 0 .94.17 1.19 1.19 0 0 0 .56-.59c1.35-2.42 2.63-5.94 1.37-8.64a6.77 6.77 0 0 0-4.06-3.04Z" transform="translate(-91.26 -1.51)"/><path class="cls-20" d="M279.13 88.32a1.46 1.46 0 0 1 1.57-.39 1.73 1.73 0 0 1 .86.72 2 2 0 0 1-.31 2.4 1.85 1.85 0 0 1-2.38.06" transform="translate(-91.26 -1.51)"/><path class="cls-31" d="M273.81 165.88a154.7 154.7 0 0 0 8.27-17.88" transform="translate(-91.26 -1.51)"/><path class="cls-9" d="M274.89 94.58a12.63 12.63 0 0 0 3.84-1.14 8.53 8.53 0 0 1-3.73 2.92" transform="translate(-91.26 -1.51)" style="clip-path:url(#clip-path-3)"/><path class="cls-18" d="M213.45 221.55H8.25"/><g class="cls-34"><path class="cls-4" d="M251.82 151.47a11.39 11.39 0 0 0-1.79 5.69" transform="translate(-91.26 -1.51)"/></g><g class="cls-34"><path class="cls-4" d="M251 150.57a13.75 13.75 0 0 0-1.94 6.7" transform="translate(-91.26 -1.51)"/></g><g class="cls-34"><path class="cls-4" d="M250 150a12.57 12.57 0 0 0-1.94 6.88" transform="translate(-91.26 -1.51)"/></g></svg>