<svg width="298" height="265" viewBox="0 0 298 265" fill="none" xmlns="http://www.w3.org/2000/svg">
<g clip-path="url(#clip0_1274_1951)">
<mask id="mask0_1274_1951" style="mask-type:alpha" maskUnits="userSpaceOnUse" x="0" y="1" width="347" height="283">
<rect width="347" height="283" transform="translate(0 1)" fill="url(#paint0_linear_1274_1951)"/>
</mask>
<g mask="url(#mask0_1274_1951)">
<g clip-path="url(#clip1_1274_1951)">
<path d="M-1 8C-1 4.68629 1.68629 2 5 2H291C294.314 2 297 4.68629 297 8V273H-1V8Z" fill="url(#paint1_linear_1274_1951)"/>
</g>
<g clip-path="url(#clip2_1274_1951)">
<path d="M29.5527 34.4688V43H28.416L24.1211 36.4199V43H22.9902V34.4688H24.1211L28.4336 41.0664V34.4688H29.5527ZM34.8909 41.916V38.6523C34.8909 38.4023 34.8401 38.1855 34.7385 38.002C34.6409 37.8145 34.4924 37.6699 34.2932 37.5684C34.094 37.4668 33.8479 37.416 33.5549 37.416C33.2815 37.416 33.0413 37.4629 32.8342 37.5566C32.6311 37.6504 32.4709 37.7734 32.3538 37.9258C32.2405 38.0781 32.1838 38.2422 32.1838 38.418H31.0998C31.0998 38.1914 31.1584 37.9668 31.2756 37.7441C31.3928 37.5215 31.5608 37.3203 31.7795 37.1406C32.0022 36.957 32.2678 36.8125 32.5764 36.707C32.8889 36.5977 33.2366 36.543 33.6194 36.543C34.0803 36.543 34.4866 36.6211 34.8381 36.7773C35.1936 36.9336 35.4709 37.1699 35.6702 37.4863C35.8733 37.7988 35.9748 38.1914 35.9748 38.6641V41.6172C35.9748 41.8281 35.9924 42.0527 36.0276 42.291C36.0666 42.5293 36.1233 42.7344 36.1975 42.9062V43H35.0666C35.012 42.875 34.969 42.709 34.9377 42.502C34.9065 42.291 34.8909 42.0957 34.8909 41.916ZM35.0784 39.1562L35.0901 39.918H33.9944C33.6858 39.918 33.4104 39.9434 33.1682 39.9941C32.926 40.041 32.7229 40.1133 32.5588 40.2109C32.3948 40.3086 32.2698 40.4316 32.1838 40.5801C32.0979 40.7246 32.0549 40.8945 32.0549 41.0898C32.0549 41.2891 32.0998 41.4707 32.1897 41.6348C32.2795 41.7988 32.4143 41.9297 32.594 42.0273C32.7776 42.1211 33.0022 42.168 33.2678 42.168C33.5998 42.168 33.8928 42.0977 34.1467 41.957C34.4006 41.8164 34.6018 41.6445 34.7502 41.4414C34.9026 41.2383 34.9846 41.041 34.9963 40.8496L35.4592 41.3711C35.4319 41.5352 35.3577 41.7168 35.2366 41.916C35.1155 42.1152 34.9534 42.3066 34.7502 42.4902C34.551 42.6699 34.3127 42.8203 34.0354 42.9414C33.762 43.0586 33.4534 43.1172 33.1096 43.1172C32.6799 43.1172 32.303 43.0332 31.9788 42.8652C31.6584 42.6973 31.4084 42.4727 31.2288 42.1914C31.053 41.9062 30.9651 41.5879 30.9651 41.2363C30.9651 40.8965 31.0315 40.5977 31.1643 40.3398C31.2971 40.0781 31.4885 39.8613 31.7385 39.6895C31.9885 39.5137 32.2893 39.3809 32.6409 39.291C32.9924 39.2012 33.385 39.1562 33.8186 39.1562H35.0784ZM38.518 37.9199V43H37.4282V36.6602H38.4595L38.518 37.9199ZM38.2954 39.5898L37.7915 39.5723C37.7954 39.1387 37.852 38.7383 37.9614 38.3711C38.0708 38 38.2329 37.6777 38.4477 37.4043C38.6626 37.1309 38.9302 36.9199 39.2505 36.7715C39.5708 36.6191 39.9419 36.543 40.3638 36.543C40.6606 36.543 40.9341 36.5859 41.1841 36.6719C41.4341 36.7539 41.6509 36.8848 41.8345 37.0645C42.018 37.2441 42.1606 37.4746 42.2622 37.7559C42.3638 38.0371 42.4145 38.377 42.4145 38.7754V43H41.3305V38.8281C41.3305 38.4961 41.2739 38.2305 41.1606 38.0312C41.0513 37.832 40.895 37.6875 40.6919 37.5977C40.4888 37.5039 40.2505 37.457 39.977 37.457C39.6567 37.457 39.3891 37.5137 39.1743 37.627C38.9595 37.7402 38.7876 37.8965 38.6587 38.0957C38.5298 38.2949 38.436 38.5234 38.3774 38.7812C38.3227 39.0352 38.2954 39.3047 38.2954 39.5898ZM42.4028 38.9922L41.6763 39.2148C41.6802 38.8672 41.7368 38.5332 41.8462 38.2129C41.9595 37.8926 42.1216 37.6074 42.3325 37.3574C42.5473 37.1074 42.811 36.9102 43.1235 36.7656C43.436 36.6172 43.7934 36.543 44.1958 36.543C44.5356 36.543 44.8364 36.5879 45.0981 36.6777C45.3638 36.7676 45.5864 36.9062 45.7661 37.0938C45.9497 37.2773 46.0884 37.5137 46.1821 37.8027C46.2759 38.0918 46.3227 38.4355 46.3227 38.834V43H45.2329V38.8223C45.2329 38.4668 45.1763 38.1914 45.063 37.9961C44.9536 37.7969 44.7973 37.6582 44.5942 37.5801C44.395 37.498 44.1567 37.457 43.8794 37.457C43.6411 37.457 43.4302 37.498 43.2466 37.5801C43.063 37.6621 42.9087 37.7754 42.7837 37.9199C42.6587 38.0605 42.563 38.2227 42.4966 38.4062C42.4341 38.5898 42.4028 38.7852 42.4028 38.9922ZM50.3542 43.1172C49.9128 43.1172 49.5124 43.043 49.153 42.8945C48.7976 42.7422 48.4909 42.5293 48.2331 42.2559C47.9792 41.9824 47.7839 41.6582 47.6472 41.2832C47.5105 40.9082 47.4421 40.498 47.4421 40.0527V39.8066C47.4421 39.291 47.5183 38.832 47.6706 38.4297C47.823 38.0234 48.03 37.6797 48.2917 37.3984C48.5534 37.1172 48.8503 36.9043 49.1823 36.7598C49.5144 36.6152 49.8581 36.543 50.2136 36.543C50.6667 36.543 51.0573 36.6211 51.3855 36.7773C51.7175 36.9336 51.989 37.1523 52.1999 37.4336C52.4109 37.7109 52.5671 38.0391 52.6687 38.418C52.7702 38.793 52.821 39.2031 52.821 39.6484V40.1348H48.0866V39.25H51.737V39.168C51.7214 38.8867 51.6628 38.6133 51.5613 38.3477C51.4636 38.082 51.3073 37.8633 51.0925 37.6914C50.8777 37.5195 50.5847 37.4336 50.2136 37.4336C49.9675 37.4336 49.7409 37.4863 49.5339 37.5918C49.3269 37.6934 49.1491 37.8457 49.0007 38.0488C48.8523 38.252 48.737 38.5 48.655 38.793C48.573 39.0859 48.532 39.4238 48.532 39.8066V40.0527C48.532 40.3535 48.573 40.6367 48.655 40.9023C48.7409 41.1641 48.864 41.3945 49.0241 41.5938C49.1882 41.793 49.3855 41.9492 49.6159 42.0625C49.8503 42.1758 50.1159 42.2324 50.4128 42.2324C50.7956 42.2324 51.1198 42.1543 51.3855 41.998C51.6511 41.8418 51.8835 41.6328 52.0827 41.3711L52.739 41.8926C52.6023 42.0996 52.4284 42.2969 52.2175 42.4844C52.0066 42.6719 51.7468 42.8242 51.4382 42.9414C51.1335 43.0586 50.7722 43.1172 50.3542 43.1172Z" fill="white" fill-opacity="0.6"/>
<g clip-path="url(#clip3_1274_1951)">
<rect x="21" y="51" width="271" height="26" rx="2" fill="#111111"/>
<path d="M34.6074 67.3438L36.3711 61.6602H37.5312L34.9883 68.9785C34.9297 69.1348 34.8516 69.3027 34.7539 69.4824C34.6602 69.666 34.5391 69.8398 34.3906 70.0039C34.2422 70.168 34.0625 70.3008 33.8516 70.4023C33.6445 70.5078 33.3965 70.5605 33.1074 70.5605C33.0215 70.5605 32.9121 70.5488 32.7793 70.5254C32.6465 70.502 32.5527 70.4824 32.498 70.4668L32.4922 69.5879C32.5234 69.5918 32.5723 69.5957 32.6387 69.5996C32.709 69.6074 32.7578 69.6113 32.7852 69.6113C33.0312 69.6113 33.2402 69.5781 33.4121 69.5117C33.584 69.4492 33.7285 69.3418 33.8457 69.1895C33.9668 69.041 34.0703 68.8359 34.1562 68.5742L34.6074 67.3438ZM33.3125 61.6602L34.959 66.582L35.2402 67.7246L34.4609 68.123L32.1289 61.6602H33.3125ZM38.0089 64.9004V64.7656C38.0089 64.3086 38.0753 63.8848 38.2081 63.4941C38.3409 63.0996 38.5323 62.7578 38.7823 62.4688C39.0323 62.1758 39.3351 61.9492 39.6905 61.7891C40.046 61.625 40.4445 61.543 40.8859 61.543C41.3312 61.543 41.7316 61.625 42.087 61.7891C42.4464 61.9492 42.7511 62.1758 43.0011 62.4688C43.255 62.7578 43.4484 63.0996 43.5812 63.4941C43.714 63.8848 43.7804 64.3086 43.7804 64.7656V64.9004C43.7804 65.3574 43.714 65.7812 43.5812 66.1719C43.4484 66.5625 43.255 66.9043 43.0011 67.1973C42.7511 67.4863 42.4484 67.7129 42.0929 67.877C41.7413 68.0371 41.3429 68.1172 40.8976 68.1172C40.4523 68.1172 40.0519 68.0371 39.6964 67.877C39.3409 67.7129 39.0363 67.4863 38.7823 67.1973C38.5323 66.9043 38.3409 66.5625 38.2081 66.1719C38.0753 65.7812 38.0089 65.3574 38.0089 64.9004ZM39.0929 64.7656V64.9004C39.0929 65.2168 39.13 65.5156 39.2042 65.7969C39.2784 66.0742 39.3898 66.3203 39.5382 66.5352C39.6905 66.75 39.88 66.9199 40.1066 67.0449C40.3331 67.166 40.5968 67.2266 40.8976 67.2266C41.1945 67.2266 41.4542 67.166 41.6769 67.0449C41.9034 66.9199 42.0909 66.75 42.2394 66.5352C42.3878 66.3203 42.4991 66.0742 42.5734 65.7969C42.6515 65.5156 42.6905 65.2168 42.6905 64.9004V64.7656C42.6905 64.4531 42.6515 64.1582 42.5734 63.8809C42.4991 63.5996 42.3859 63.3516 42.2335 63.1367C42.0851 62.918 41.8976 62.7461 41.671 62.6211C41.4484 62.4961 41.1866 62.4336 40.8859 62.4336C40.589 62.4336 40.3273 62.4961 40.1007 62.6211C39.878 62.7461 39.6905 62.918 39.5382 63.1367C39.3898 63.3516 39.2784 63.5996 39.2042 63.8809C39.13 64.1582 39.0929 64.4531 39.0929 64.7656ZM48.8987 66.5352V61.6602H49.9885V68H48.9514L48.8987 66.5352ZM49.1038 65.1992L49.5549 65.1875C49.5549 65.6094 49.51 66 49.4202 66.3594C49.3342 66.7148 49.1936 67.0234 48.9983 67.2852C48.803 67.5469 48.5471 67.752 48.2307 67.9004C47.9143 68.0449 47.5295 68.1172 47.0764 68.1172C46.7678 68.1172 46.4846 68.0723 46.2268 67.9824C45.9729 67.8926 45.7541 67.7539 45.5705 67.5664C45.387 67.3789 45.2444 67.1348 45.1428 66.834C45.0452 66.5332 44.9963 66.1719 44.9963 65.75V61.6602H46.0803V65.7617C46.0803 66.0469 46.1116 66.2832 46.1741 66.4707C46.2405 66.6543 46.3284 66.8008 46.4377 66.9102C46.551 67.0156 46.676 67.0898 46.8127 67.1328C46.9534 67.1758 47.0979 67.1973 47.2463 67.1973C47.7073 67.1973 48.0725 67.1094 48.342 66.9336C48.6116 66.7539 48.8049 66.5137 48.9221 66.2129C49.0432 65.9082 49.1038 65.5703 49.1038 65.1992ZM52.6048 62.6562V68H51.5209V61.6602H52.5755L52.6048 62.6562ZM54.5853 61.625L54.5795 62.6328C54.4896 62.6133 54.4037 62.6016 54.3216 62.5977C54.2435 62.5898 54.1537 62.5859 54.0521 62.5859C53.8021 62.5859 53.5814 62.625 53.39 62.7031C53.1986 62.7812 53.0365 62.8906 52.9037 63.0312C52.7709 63.1719 52.6654 63.3398 52.5873 63.5352C52.513 63.7266 52.4642 63.9375 52.4408 64.168L52.1361 64.3438C52.1361 63.9609 52.1732 63.6016 52.2474 63.2656C52.3255 62.9297 52.4447 62.6328 52.6048 62.375C52.765 62.1133 52.9681 61.9102 53.2142 61.7656C53.4642 61.6172 53.7611 61.543 54.1048 61.543C54.183 61.543 54.2728 61.5527 54.3744 61.5723C54.4759 61.5879 54.5462 61.6055 54.5853 61.625ZM60.0376 68V68.8906H54.6645V68H60.0376ZM61.8453 63.0137V68H60.7613V61.6602H61.7867L61.8453 63.0137ZM61.5875 64.5898L61.1363 64.5723C61.1402 64.1387 61.2047 63.7383 61.3297 63.3711C61.4547 63 61.6305 62.6777 61.857 62.4043C62.0836 62.1309 62.3531 61.9199 62.6656 61.7715C62.982 61.6191 63.3316 61.543 63.7145 61.543C64.027 61.543 64.3082 61.5859 64.5582 61.6719C64.8082 61.7539 65.0211 61.8867 65.1969 62.0703C65.3766 62.2539 65.5133 62.4922 65.607 62.7852C65.7008 63.0742 65.7477 63.4277 65.7477 63.8457V68H64.6578V63.834C64.6578 63.502 64.609 63.2363 64.5113 63.0371C64.4137 62.834 64.2711 62.6875 64.0836 62.5977C63.8961 62.5039 63.6656 62.457 63.3922 62.457C63.1227 62.457 62.8766 62.5137 62.6539 62.627C62.4352 62.7402 62.2457 62.8965 62.0855 63.0957C61.9293 63.2949 61.8062 63.5234 61.7164 63.7812C61.6305 64.0352 61.5875 64.3047 61.5875 64.5898ZM71.0124 66.916V63.6523C71.0124 63.4023 70.9616 63.1855 70.8601 63.002C70.7624 62.8145 70.614 62.6699 70.4148 62.5684C70.2155 62.4668 69.9695 62.416 69.6765 62.416C69.403 62.416 69.1628 62.4629 68.9558 62.5566C68.7527 62.6504 68.5925 62.7734 68.4753 62.9258C68.362 63.0781 68.3054 63.2422 68.3054 63.418H67.2214C67.2214 63.1914 67.28 62.9668 67.3972 62.7441C67.5144 62.5215 67.6823 62.3203 67.9011 62.1406C68.1237 61.957 68.3894 61.8125 68.698 61.707C69.0105 61.5977 69.3581 61.543 69.7409 61.543C70.2019 61.543 70.6081 61.6211 70.9597 61.7773C71.3152 61.9336 71.5925 62.1699 71.7917 62.4863C71.9948 62.7988 72.0964 63.1914 72.0964 63.6641V66.6172C72.0964 66.8281 72.114 67.0527 72.1491 67.291C72.1882 67.5293 72.2448 67.7344 72.3191 67.9062V68H71.1882C71.1335 67.875 71.0905 67.709 71.0593 67.502C71.028 67.291 71.0124 67.0957 71.0124 66.916ZM71.1999 64.1562L71.2116 64.918H70.1159C69.8073 64.918 69.532 64.9434 69.2898 64.9941C69.0476 65.041 68.8445 65.1133 68.6804 65.2109C68.5163 65.3086 68.3913 65.4316 68.3054 65.5801C68.2195 65.7246 68.1765 65.8945 68.1765 66.0898C68.1765 66.2891 68.2214 66.4707 68.3112 66.6348C68.4011 66.7988 68.5359 66.9297 68.7155 67.0273C68.8991 67.1211 69.1237 67.168 69.3894 67.168C69.7214 67.168 70.0144 67.0977 70.2683 66.957C70.5222 66.8164 70.7234 66.6445 70.8718 66.4414C71.0241 66.2383 71.1062 66.041 71.1179 65.8496L71.5808 66.3711C71.5534 66.5352 71.4792 66.7168 71.3581 66.916C71.237 67.1152 71.0749 67.3066 70.8718 67.4902C70.6726 67.6699 70.4343 67.8203 70.157 67.9414C69.8835 68.0586 69.5749 68.1172 69.2312 68.1172C68.8015 68.1172 68.4245 68.0332 68.1003 67.8652C67.78 67.6973 67.53 67.4727 67.3503 67.1914C67.1745 66.9062 67.0866 66.5879 67.0866 66.2363C67.0866 65.8965 67.153 65.5977 67.2859 65.3398C67.4187 65.0781 67.6101 64.8613 67.8601 64.6895C68.1101 64.5137 68.4109 64.3809 68.7624 64.291C69.114 64.2012 69.5066 64.1562 69.9402 64.1562H71.1999ZM74.7596 62.9199V68H73.6698V61.6602H74.701L74.7596 62.9199ZM74.537 64.5898L74.033 64.5723C74.037 64.1387 74.0936 63.7383 74.203 63.3711C74.3123 63 74.4745 62.6777 74.6893 62.4043C74.9041 62.1309 75.1717 61.9199 75.492 61.7715C75.8123 61.6191 76.1834 61.543 76.6053 61.543C76.9022 61.543 77.1756 61.5859 77.4256 61.6719C77.6756 61.7539 77.8924 61.8848 78.076 62.0645C78.2596 62.2441 78.4022 62.4746 78.5037 62.7559C78.6053 63.0371 78.6561 63.377 78.6561 63.7754V68H77.5721V63.8281C77.5721 63.4961 77.5155 63.2305 77.4022 63.0312C77.2928 62.832 77.1366 62.6875 76.9334 62.5977C76.7303 62.5039 76.492 62.457 76.2186 62.457C75.8983 62.457 75.6307 62.5137 75.4159 62.627C75.201 62.7402 75.0291 62.8965 74.9002 63.0957C74.7713 63.2949 74.6776 63.5234 74.619 63.7812C74.5643 64.0352 74.537 64.3047 74.537 64.5898ZM78.6444 63.9922L77.9178 64.2148C77.9217 63.8672 77.9784 63.5332 78.0877 63.2129C78.201 62.8926 78.3631 62.6074 78.5741 62.3574C78.7889 62.1074 79.0526 61.9102 79.3651 61.7656C79.6776 61.6172 80.035 61.543 80.4373 61.543C80.7772 61.543 81.078 61.5879 81.3397 61.6777C81.6053 61.7676 81.828 61.9062 82.0077 62.0938C82.1912 62.2773 82.3299 62.5137 82.4237 62.8027C82.5174 63.0918 82.5643 63.4355 82.5643 63.834V68H81.4745V63.8223C81.4745 63.4668 81.4178 63.1914 81.3045 62.9961C81.1952 62.7969 81.0389 62.6582 80.8358 62.5801C80.6366 62.498 80.3983 62.457 80.1209 62.457C79.8827 62.457 79.6717 62.498 79.4881 62.5801C79.3045 62.6621 79.1502 62.7754 79.0252 62.9199C78.9002 63.0605 78.8045 63.2227 78.7381 63.4062C78.6756 63.5898 78.6444 63.7852 78.6444 63.9922ZM86.7158 68.1172C86.2744 68.1172 85.874 68.043 85.5146 67.8945C85.1591 67.7422 84.8525 67.5293 84.5947 67.2559C84.3408 66.9824 84.1455 66.6582 84.0088 66.2832C83.872 65.9082 83.8037 65.498 83.8037 65.0527V64.8066C83.8037 64.291 83.8798 63.832 84.0322 63.4297C84.1845 63.0234 84.3916 62.6797 84.6533 62.3984C84.915 62.1172 85.2119 61.9043 85.5439 61.7598C85.8759 61.6152 86.2197 61.543 86.5752 61.543C87.0283 61.543 87.4189 61.6211 87.747 61.7773C88.0791 61.9336 88.3505 62.1523 88.5615 62.4336C88.7724 62.7109 88.9287 63.0391 89.0302 63.418C89.1318 63.793 89.1826 64.2031 89.1826 64.6484V65.1348H84.4482V64.25H88.0986V64.168C88.083 63.8867 88.0244 63.6133 87.9228 63.3477C87.8252 63.082 87.6689 62.8633 87.4541 62.6914C87.2392 62.5195 86.9463 62.4336 86.5752 62.4336C86.3291 62.4336 86.1025 62.4863 85.8955 62.5918C85.6884 62.6934 85.5107 62.8457 85.3623 63.0488C85.2138 63.252 85.0986 63.5 85.0166 63.793C84.9345 64.0859 84.8935 64.4238 84.8935 64.8066V65.0527C84.8935 65.3535 84.9345 65.6367 85.0166 65.9023C85.1025 66.1641 85.2255 66.3945 85.3857 66.5938C85.5498 66.793 85.747 66.9492 85.9775 67.0625C86.2119 67.1758 86.4775 67.2324 86.7744 67.2324C87.1572 67.2324 87.4814 67.1543 87.747 66.998C88.0127 66.8418 88.2451 66.6328 88.4443 66.3711L89.1005 66.8926C88.9638 67.0996 88.79 67.2969 88.5791 67.4844C88.3681 67.6719 88.1084 67.8242 87.7998 67.9414C87.4951 68.0586 87.1338 68.1172 86.7158 68.1172Z" fill="white"/>
<path d="M93.32 70.28V57.86H94.28V70.28H93.32Z" fill="white" fill-opacity="0.7"/>
</g>
</g>
<g clip-path="url(#clip4_1274_1951)">
<path d="M21.996 101V92.06H27.816V93.14H23.172V95.972H27.576V97.052H23.172V99.92H27.816V101H21.996ZM30.8196 98.276V97.256H35.3196V98.276H30.8196ZM38.7165 101V94.532H39.8085V95.852L39.6525 95.648C39.8125 95.24 40.0685 94.928 40.4205 94.712C40.7725 94.496 41.1685 94.388 41.6085 94.388C42.1125 94.388 42.5645 94.528 42.9645 94.808C43.3725 95.088 43.6525 95.456 43.8045 95.912L43.4925 95.924C43.6605 95.42 43.9445 95.04 44.3445 94.784C44.7445 94.52 45.1885 94.388 45.6765 94.388C46.1245 94.388 46.5285 94.492 46.8885 94.7C47.2565 94.908 47.5485 95.196 47.7645 95.564C47.9805 95.932 48.0885 96.348 48.0885 96.812V101H46.9605V97.172C46.9605 96.812 46.8965 96.508 46.7685 96.26C46.6405 96.012 46.4645 95.82 46.2405 95.684C46.0245 95.54 45.7685 95.468 45.4725 95.468C45.1845 95.468 44.9245 95.54 44.6925 95.684C44.4685 95.82 44.2885 96.016 44.1525 96.272C44.0245 96.52 43.9605 96.82 43.9605 97.172V101H42.8325V97.172C42.8325 96.812 42.7685 96.508 42.6405 96.26C42.5125 96.012 42.3365 95.82 42.1125 95.684C41.8965 95.54 41.6405 95.468 41.3445 95.468C41.0565 95.468 40.7965 95.54 40.5645 95.684C40.3405 95.82 40.1605 96.016 40.0245 96.272C39.8965 96.52 39.8325 96.82 39.8325 97.172V101H38.7165ZM51.3295 101.144C50.9055 101.144 50.5295 101.068 50.2015 100.916C49.8815 100.756 49.6295 100.54 49.4455 100.268C49.2615 99.988 49.1695 99.668 49.1695 99.308C49.1695 98.964 49.2415 98.656 49.3855 98.384C49.5375 98.104 49.7695 97.868 50.0815 97.676C50.4015 97.484 50.8015 97.348 51.2815 97.268L53.6815 96.872V97.808L51.5335 98.168C51.1175 98.24 50.8135 98.372 50.6215 98.564C50.4375 98.756 50.3455 98.992 50.3455 99.272C50.3455 99.536 50.4495 99.756 50.6575 99.932C50.8735 100.108 51.1415 100.196 51.4615 100.196C51.8695 100.196 52.2215 100.112 52.5175 99.944C52.8215 99.768 53.0575 99.532 53.2255 99.236C53.4015 98.94 53.4895 98.612 53.4895 98.252V96.608C53.4895 96.256 53.3575 95.972 53.0935 95.756C52.8375 95.532 52.4975 95.42 52.0735 95.42C51.7055 95.42 51.3775 95.516 51.0895 95.708C50.8095 95.892 50.6015 96.14 50.4655 96.452L49.4935 95.948C49.6135 95.652 49.8055 95.388 50.0695 95.156C50.3335 94.916 50.6415 94.728 50.9935 94.592C51.3455 94.456 51.7135 94.388 52.0975 94.388C52.5935 94.388 53.0295 94.484 53.4055 94.676C53.7815 94.86 54.0735 95.12 54.2815 95.456C54.4975 95.784 54.6055 96.168 54.6055 96.608V101H53.5135V99.776L53.7175 99.848C53.5815 100.104 53.3975 100.328 53.1655 100.52C52.9335 100.712 52.6615 100.864 52.3495 100.976C52.0375 101.088 51.6975 101.144 51.3295 101.144ZM56.0959 101V94.532H57.2119V101H56.0959ZM56.0959 93.5V92.06H57.2119V93.5H56.0959ZM58.7035 101V91.916H59.8195V101H58.7035Z" fill="white" fill-opacity="0.6"/>
<g clip-path="url(#clip5_1274_1951)">
<rect x="21" y="108" width="273" height="30" rx="2" fill="#111111"/>
<path d="M32.056 129.64C31.928 129.64 31.796 129.628 31.66 129.604C31.532 129.588 31.404 129.556 31.276 129.508V128.668C31.356 128.676 31.456 128.688 31.576 128.704C31.704 128.728 31.832 128.74 31.96 128.74C32.352 128.74 32.652 128.656 32.86 128.488C33.068 128.328 33.272 128.016 33.472 127.552L33.88 126.592L33.856 127.384L31.132 120.568H32.104L34.336 126.196H34.084L36.304 120.568H37.3L34.36 127.816C34.232 128.128 34.068 128.424 33.868 128.704C33.676 128.984 33.432 129.208 33.136 129.376C32.84 129.552 32.48 129.64 32.056 129.64ZM41.1324 127.144C40.5244 127.144 39.9724 127 39.4764 126.712C38.9804 126.416 38.5844 126.016 38.2884 125.512C38.0004 125 37.8564 124.42 37.8564 123.772C37.8564 123.132 38.0004 122.56 38.2884 122.056C38.5764 121.552 38.9644 121.156 39.4524 120.868C39.9484 120.572 40.5084 120.424 41.1324 120.424C41.7564 120.424 42.3124 120.568 42.8004 120.856C43.2964 121.144 43.6844 121.54 43.9644 122.044C44.2524 122.548 44.3964 123.124 44.3964 123.772C44.3964 124.428 44.2484 125.012 43.9524 125.524C43.6564 126.028 43.2604 126.424 42.7644 126.712C42.2764 127 41.7324 127.144 41.1324 127.144ZM41.1324 126.244C41.5644 126.244 41.9524 126.136 42.2964 125.92C42.6484 125.704 42.9244 125.408 43.1244 125.032C43.3324 124.656 43.4364 124.236 43.4364 123.772C43.4364 123.308 43.3324 122.892 43.1244 122.524C42.9244 122.156 42.6484 121.864 42.2964 121.648C41.9524 121.432 41.5644 121.324 41.1324 121.324C40.7004 121.324 40.3084 121.432 39.9564 121.648C39.6124 121.864 39.3364 122.156 39.1284 122.524C38.9204 122.892 38.8164 123.308 38.8164 123.772C38.8164 124.236 38.9204 124.656 39.1284 125.032C39.3364 125.408 39.6124 125.704 39.9564 125.92C40.3084 126.136 40.7004 126.244 41.1324 126.244ZM48.1437 127.144C47.6957 127.144 47.2877 127.04 46.9197 126.832C46.5517 126.616 46.2597 126.32 46.0437 125.944C45.8357 125.56 45.7317 125.12 45.7317 124.624V120.568H46.6317V124.516C46.6317 124.86 46.6997 125.164 46.8357 125.428C46.9797 125.684 47.1757 125.884 47.4237 126.028C47.6797 126.172 47.9717 126.244 48.2997 126.244C48.6277 126.244 48.9197 126.172 49.1757 126.028C49.4317 125.876 49.6317 125.664 49.7757 125.392C49.9197 125.112 49.9917 124.78 49.9917 124.396V120.568H50.8917V127H49.9917V125.752L50.1957 125.8C50.0437 126.216 49.7837 126.544 49.4157 126.784C49.0477 127.024 48.6237 127.144 48.1437 127.144ZM52.6226 127V120.568H53.5226V121.624L53.4026 121.468C53.5546 121.164 53.7826 120.924 54.0866 120.748C54.3986 120.572 54.7746 120.484 55.2146 120.484H55.6226V121.384H55.0586C54.5946 121.384 54.2226 121.528 53.9426 121.816C53.6626 122.104 53.5226 122.512 53.5226 123.04V127H52.6226ZM56.5213 127.84V127H61.9213V127.84H56.5213ZM66.5372 127.144C65.9372 127.144 65.3932 127 64.9052 126.712C64.4252 126.416 64.0452 126.012 63.7652 125.5C63.4852 124.988 63.3452 124.408 63.3452 123.76C63.3452 123.112 63.4812 122.54 63.7532 122.044C64.0252 121.54 64.3932 121.144 64.8572 120.856C65.3292 120.568 65.8572 120.424 66.4412 120.424C66.9052 120.424 67.3172 120.512 67.6772 120.688C68.0452 120.856 68.3572 121.088 68.6132 121.384C68.8692 121.672 69.0652 122 69.2012 122.368C69.3372 122.728 69.4052 123.1 69.4052 123.484C69.4052 123.564 69.4012 123.656 69.3932 123.76C69.3852 123.856 69.3732 123.956 69.3572 124.06H63.9212V123.22H68.8412L68.4092 123.58C68.4812 123.14 68.4292 122.748 68.2532 122.404C68.0852 122.052 67.8412 121.776 67.5212 121.576C67.2012 121.368 66.8412 121.264 66.4412 121.264C66.0412 121.264 65.6692 121.368 65.3252 121.576C64.9892 121.784 64.7252 122.076 64.5332 122.452C64.3412 122.82 64.2652 123.26 64.3052 123.772C64.2652 124.284 64.3452 124.732 64.5452 125.116C64.7532 125.492 65.0332 125.784 65.3852 125.992C65.7452 126.2 66.1292 126.304 66.5372 126.304C67.0092 126.304 67.4052 126.192 67.7252 125.968C68.0452 125.744 68.3052 125.464 68.5052 125.128L69.2732 125.536C69.1452 125.824 68.9492 126.092 68.6852 126.34C68.4212 126.58 68.1052 126.776 67.7372 126.928C67.3772 127.072 66.9772 127.144 66.5372 127.144ZM70.872 127V120.568H71.772V121.792L71.628 121.612C71.804 121.236 72.064 120.944 72.408 120.736C72.76 120.528 73.144 120.424 73.56 120.424C74.056 120.424 74.504 120.564 74.904 120.844C75.304 121.124 75.588 121.488 75.756 121.936L75.504 121.948C75.664 121.452 75.94 121.076 76.332 120.82C76.732 120.556 77.172 120.424 77.652 120.424C78.084 120.424 78.48 120.528 78.84 120.736C79.208 120.944 79.5 121.232 79.716 121.6C79.94 121.96 80.052 122.368 80.052 122.824V127H79.152V123.172C79.152 122.78 79.08 122.448 78.936 122.176C78.8 121.904 78.612 121.696 78.372 121.552C78.132 121.4 77.856 121.324 77.544 121.324C77.24 121.324 76.964 121.4 76.716 121.552C76.468 121.696 76.272 121.908 76.128 122.188C75.984 122.46 75.912 122.788 75.912 123.172V127H75.012V123.172C75.012 122.78 74.94 122.448 74.796 122.176C74.66 121.904 74.472 121.696 74.232 121.552C73.992 121.4 73.716 121.324 73.404 121.324C73.092 121.324 72.812 121.4 72.564 121.552C72.324 121.696 72.132 121.908 71.988 122.188C71.844 122.46 71.772 122.788 71.772 123.172V127H70.872ZM83.5104 127.144C83.1024 127.144 82.7384 127.068 82.4184 126.916C82.0984 126.756 81.8464 126.54 81.6624 126.268C81.4784 125.996 81.3864 125.684 81.3864 125.332C81.3864 124.996 81.4584 124.692 81.6024 124.42C81.7464 124.14 81.9704 123.904 82.2744 123.712C82.5784 123.52 82.9664 123.384 83.4384 123.304L85.9584 122.884V123.7L83.6544 124.084C83.1904 124.164 82.8544 124.312 82.6464 124.528C82.4464 124.744 82.3464 125 82.3464 125.296C82.3464 125.584 82.4584 125.828 82.6824 126.028C82.9144 126.228 83.2104 126.328 83.5704 126.328C84.0104 126.328 84.3944 126.236 84.7224 126.052C85.0504 125.86 85.3064 125.604 85.4904 125.284C85.6744 124.964 85.7664 124.608 85.7664 124.216V122.584C85.7664 122.2 85.6264 121.888 85.3464 121.648C85.0664 121.408 84.7024 121.288 84.2544 121.288C83.8624 121.288 83.5184 121.388 83.2224 121.588C82.9264 121.78 82.7064 122.032 82.5624 122.344L81.7464 121.9C81.8664 121.628 82.0544 121.38 82.3104 121.156C82.5744 120.932 82.8744 120.756 83.2104 120.628C83.5464 120.492 83.8944 120.424 84.2544 120.424C84.7264 120.424 85.1424 120.516 85.5024 120.7C85.8704 120.884 86.1544 121.14 86.3544 121.468C86.5624 121.788 86.6664 122.16 86.6664 122.584V127H85.7664V125.716L85.8984 125.848C85.7864 126.088 85.6104 126.308 85.3704 126.508C85.1384 126.7 84.8624 126.856 84.5424 126.976C84.2304 127.088 83.8864 127.144 83.5104 127.144ZM88.3976 127V120.568H89.2976V127H88.3976ZM88.3976 119.38V118.06H89.2976V119.38H88.3976ZM91.0198 127V117.916H91.9198V127H91.0198ZM93.606 127.84V127H99.006V127.84H93.606ZM102.554 127.144C102.146 127.144 101.782 127.068 101.462 126.916C101.142 126.756 100.89 126.54 100.706 126.268C100.522 125.996 100.43 125.684 100.43 125.332C100.43 124.996 100.502 124.692 100.646 124.42C100.79 124.14 101.014 123.904 101.318 123.712C101.622 123.52 102.01 123.384 102.482 123.304L105.002 122.884V123.7L102.698 124.084C102.234 124.164 101.898 124.312 101.69 124.528C101.49 124.744 101.39 125 101.39 125.296C101.39 125.584 101.502 125.828 101.726 126.028C101.958 126.228 102.254 126.328 102.614 126.328C103.054 126.328 103.438 126.236 103.766 126.052C104.094 125.86 104.35 125.604 104.534 125.284C104.718 124.964 104.81 124.608 104.81 124.216V122.584C104.81 122.2 104.67 121.888 104.39 121.648C104.11 121.408 103.746 121.288 103.298 121.288C102.906 121.288 102.562 121.388 102.266 121.588C101.97 121.78 101.75 122.032 101.606 122.344L100.79 121.9C100.91 121.628 101.098 121.38 101.354 121.156C101.618 120.932 101.918 120.756 102.254 120.628C102.59 120.492 102.938 120.424 103.298 120.424C103.77 120.424 104.186 120.516 104.546 120.7C104.914 120.884 105.198 121.14 105.398 121.468C105.606 121.788 105.71 122.16 105.71 122.584V127H104.81V125.716L104.942 125.848C104.83 126.088 104.654 126.308 104.414 126.508C104.182 126.7 103.906 126.856 103.586 126.976C103.274 127.088 102.93 127.144 102.554 127.144ZM110.345 127.144C109.745 127.144 109.205 127 108.725 126.712C108.245 126.416 107.865 126.016 107.585 125.512C107.313 125 107.177 124.424 107.177 123.784C107.177 123.136 107.313 122.56 107.585 122.056C107.865 121.552 108.241 121.156 108.713 120.868C109.193 120.572 109.737 120.424 110.345 120.424C110.897 120.424 111.389 120.544 111.821 120.784C112.253 121.024 112.593 121.348 112.841 121.756L112.697 122.008V117.916H113.597V127H112.697V125.56L112.841 125.692C112.617 126.156 112.281 126.516 111.833 126.772C111.393 127.02 110.897 127.144 110.345 127.144ZM110.393 126.244C110.825 126.244 111.213 126.136 111.557 125.92C111.909 125.704 112.185 125.412 112.385 125.044C112.593 124.668 112.697 124.248 112.697 123.784C112.697 123.32 112.593 122.904 112.385 122.536C112.185 122.16 111.909 121.864 111.557 121.648C111.213 121.432 110.825 121.324 110.393 121.324C109.969 121.324 109.585 121.432 109.241 121.648C108.897 121.864 108.625 122.156 108.425 122.524C108.233 122.892 108.137 123.312 108.137 123.784C108.137 124.248 108.233 124.668 108.425 125.044C108.625 125.412 108.893 125.704 109.229 125.92C109.573 126.136 109.961 126.244 110.393 126.244ZM118.229 127.144C117.629 127.144 117.089 127 116.609 126.712C116.129 126.416 115.749 126.016 115.469 125.512C115.197 125 115.061 124.424 115.061 123.784C115.061 123.136 115.197 122.56 115.469 122.056C115.749 121.552 116.125 121.156 116.597 120.868C117.077 120.572 117.621 120.424 118.229 120.424C118.781 120.424 119.273 120.544 119.705 120.784C120.137 121.024 120.477 121.348 120.725 121.756L120.581 122.008V117.916H121.481V127H120.581V125.56L120.725 125.692C120.501 126.156 120.165 126.516 119.717 126.772C119.277 127.02 118.781 127.144 118.229 127.144ZM118.277 126.244C118.709 126.244 119.097 126.136 119.441 125.92C119.793 125.704 120.069 125.412 120.269 125.044C120.477 124.668 120.581 124.248 120.581 123.784C120.581 123.32 120.477 122.904 120.269 122.536C120.069 122.16 119.793 121.864 119.441 121.648C119.097 121.432 118.709 121.324 118.277 121.324C117.853 121.324 117.469 121.432 117.125 121.648C116.781 121.864 116.509 122.156 116.309 122.524C116.117 122.892 116.021 123.312 116.021 123.784C116.021 124.248 116.117 124.668 116.309 125.044C116.509 125.412 116.777 125.704 117.113 125.92C117.457 126.136 117.845 126.244 118.277 126.244ZM123.209 127V120.568H124.109V121.624L123.989 121.468C124.141 121.164 124.369 120.924 124.673 120.748C124.985 120.572 125.361 120.484 125.801 120.484H126.209V121.384H125.645C125.181 121.384 124.809 121.528 124.529 121.816C124.249 122.104 124.109 122.512 124.109 123.04V127H123.209ZM130.072 127.144C129.472 127.144 128.928 127 128.44 126.712C127.96 126.416 127.58 126.012 127.3 125.5C127.02 124.988 126.88 124.408 126.88 123.76C126.88 123.112 127.016 122.54 127.288 122.044C127.56 121.54 127.928 121.144 128.392 120.856C128.864 120.568 129.392 120.424 129.976 120.424C130.44 120.424 130.852 120.512 131.212 120.688C131.58 120.856 131.892 121.088 132.148 121.384C132.404 121.672 132.6 122 132.736 122.368C132.872 122.728 132.94 123.1 132.94 123.484C132.94 123.564 132.936 123.656 132.928 123.76C132.92 123.856 132.908 123.956 132.892 124.06H127.456V123.22H132.376L131.944 123.58C132.016 123.14 131.964 122.748 131.788 122.404C131.62 122.052 131.376 121.776 131.056 121.576C130.736 121.368 130.376 121.264 129.976 121.264C129.576 121.264 129.204 121.368 128.86 121.576C128.524 121.784 128.26 122.076 128.068 122.452C127.876 122.82 127.8 123.26 127.84 123.772C127.8 124.284 127.88 124.732 128.08 125.116C128.288 125.492 128.568 125.784 128.92 125.992C129.28 126.2 129.664 126.304 130.072 126.304C130.544 126.304 130.94 126.192 131.26 125.968C131.58 125.744 131.84 125.464 132.04 125.128L132.808 125.536C132.68 125.824 132.484 126.092 132.22 126.34C131.956 126.58 131.64 126.776 131.272 126.928C130.912 127.072 130.512 127.144 130.072 127.144ZM136.638 127.144C136.022 127.144 135.482 126.988 135.018 126.676C134.554 126.364 134.218 125.94 134.01 125.404L134.766 125.044C134.95 125.436 135.206 125.748 135.534 125.98C135.87 126.212 136.238 126.328 136.638 126.328C137.022 126.328 137.346 126.236 137.61 126.052C137.874 125.86 138.006 125.612 138.006 125.308C138.006 125.084 137.942 124.908 137.814 124.78C137.686 124.644 137.538 124.54 137.37 124.468C137.202 124.396 137.054 124.344 136.926 124.312L136.002 124.048C135.41 123.88 134.982 123.644 134.718 123.34C134.454 123.036 134.322 122.684 134.322 122.284C134.322 121.908 134.418 121.58 134.61 121.3C134.802 121.02 135.062 120.804 135.39 120.652C135.718 120.5 136.082 120.424 136.482 120.424C137.026 120.424 137.518 120.568 137.958 120.856C138.406 121.136 138.722 121.528 138.906 122.032L138.138 122.392C137.978 122.032 137.746 121.752 137.442 121.552C137.146 121.344 136.814 121.24 136.446 121.24C136.086 121.24 135.798 121.332 135.582 121.516C135.366 121.7 135.258 121.932 135.258 122.212C135.258 122.428 135.314 122.6 135.426 122.728C135.538 122.856 135.666 122.952 135.81 123.016C135.962 123.08 136.094 123.128 136.206 123.16L137.274 123.472C137.794 123.624 138.198 123.86 138.486 124.18C138.782 124.5 138.93 124.876 138.93 125.308C138.93 125.66 138.83 125.976 138.63 126.256C138.438 126.536 138.17 126.756 137.826 126.916C137.482 127.068 137.086 127.144 136.638 127.144ZM142.624 127.144C142.008 127.144 141.468 126.988 141.004 126.676C140.54 126.364 140.204 125.94 139.996 125.404L140.752 125.044C140.936 125.436 141.192 125.748 141.52 125.98C141.856 126.212 142.224 126.328 142.624 126.328C143.008 126.328 143.332 126.236 143.596 126.052C143.86 125.86 143.992 125.612 143.992 125.308C143.992 125.084 143.928 124.908 143.8 124.78C143.672 124.644 143.524 124.54 143.356 124.468C143.188 124.396 143.04 124.344 142.912 124.312L141.988 124.048C141.396 123.88 140.968 123.644 140.704 123.34C140.44 123.036 140.308 122.684 140.308 122.284C140.308 121.908 140.404 121.58 140.596 121.3C140.788 121.02 141.048 120.804 141.376 120.652C141.704 120.5 142.068 120.424 142.468 120.424C143.012 120.424 143.504 120.568 143.944 120.856C144.392 121.136 144.708 121.528 144.892 122.032L144.124 122.392C143.964 122.032 143.732 121.752 143.428 121.552C143.132 121.344 142.8 121.24 142.432 121.24C142.072 121.24 141.784 121.332 141.568 121.516C141.352 121.7 141.244 121.932 141.244 122.212C141.244 122.428 141.3 122.6 141.412 122.728C141.524 122.856 141.652 122.952 141.796 123.016C141.948 123.08 142.08 123.128 142.192 123.16L143.26 123.472C143.78 123.624 144.184 123.86 144.472 124.18C144.768 124.5 144.916 124.876 144.916 125.308C144.916 125.66 144.816 125.976 144.616 126.256C144.424 126.536 144.156 126.756 143.812 126.916C143.468 127.068 143.072 127.144 142.624 127.144Z" fill="white"/>
</g>
</g>
<g clip-path="url(#clip6_1274_1951)">
<path d="M21.996 162V153.06H25.152C25.744 153.06 26.264 153.172 26.712 153.396C27.16 153.62 27.508 153.94 27.756 154.356C28.012 154.772 28.14 155.26 28.14 155.82C28.14 156.38 28.012 156.868 27.756 157.284C27.508 157.692 27.16 158.012 26.712 158.244C26.272 158.468 25.752 158.58 25.152 158.58H23.172V162H21.996ZM23.172 157.5H25.188C25.548 157.5 25.86 157.432 26.124 157.296C26.388 157.16 26.592 156.964 26.736 156.708C26.88 156.452 26.952 156.156 26.952 155.82C26.952 155.476 26.88 155.18 26.736 154.932C26.592 154.676 26.388 154.48 26.124 154.344C25.86 154.208 25.548 154.14 25.188 154.14H23.172V157.5ZM30.8091 162.144C30.3851 162.144 30.0091 162.068 29.6811 161.916C29.3611 161.756 29.1091 161.54 28.9251 161.268C28.7411 160.988 28.6491 160.668 28.6491 160.308C28.6491 159.964 28.7211 159.656 28.8651 159.384C29.0171 159.104 29.2491 158.868 29.5611 158.676C29.8811 158.484 30.2811 158.348 30.7611 158.268L33.1611 157.872V158.808L31.0131 159.168C30.5971 159.24 30.2931 159.372 30.1011 159.564C29.9171 159.756 29.8251 159.992 29.8251 160.272C29.8251 160.536 29.9291 160.756 30.1371 160.932C30.3531 161.108 30.6211 161.196 30.9411 161.196C31.3491 161.196 31.7011 161.112 31.9971 160.944C32.3011 160.768 32.5371 160.532 32.7051 160.236C32.8811 159.94 32.9691 159.612 32.9691 159.252V157.608C32.9691 157.256 32.8371 156.972 32.5731 156.756C32.3171 156.532 31.9771 156.42 31.5531 156.42C31.1851 156.42 30.8571 156.516 30.5691 156.708C30.2891 156.892 30.0811 157.14 29.9451 157.452L28.9731 156.948C29.0931 156.652 29.2851 156.388 29.5491 156.156C29.8131 155.916 30.1211 155.728 30.4731 155.592C30.8251 155.456 31.1931 155.388 31.5771 155.388C32.0731 155.388 32.5091 155.484 32.8851 155.676C33.2611 155.86 33.5531 156.12 33.7611 156.456C33.9771 156.784 34.0851 157.168 34.0851 157.608V162H32.9931V160.776L33.1971 160.848C33.0611 161.104 32.8771 161.328 32.6451 161.52C32.4131 161.712 32.1411 161.864 31.8291 161.976C31.5171 162.088 31.1771 162.144 30.8091 162.144ZM37.8914 162.144C37.2434 162.144 36.6794 161.984 36.1994 161.664C35.7194 161.344 35.3794 160.912 35.1794 160.368L36.0674 159.936C36.2514 160.32 36.5034 160.624 36.8234 160.848C37.1434 161.072 37.4994 161.184 37.8914 161.184C38.2434 161.184 38.5354 161.1 38.7674 160.932C38.9994 160.764 39.1154 160.544 39.1154 160.272C39.1154 160.08 39.0594 159.928 38.9474 159.816C38.8434 159.696 38.7154 159.604 38.5634 159.54C38.4114 159.468 38.2714 159.416 38.1434 159.384L37.1714 159.108C36.5874 158.94 36.1594 158.7 35.8874 158.388C35.6234 158.076 35.4914 157.712 35.4914 157.296C35.4914 156.912 35.5874 156.58 35.7794 156.3C35.9794 156.012 36.2474 155.788 36.5834 155.628C36.9274 155.468 37.3114 155.388 37.7354 155.388C38.3034 155.388 38.8114 155.532 39.2594 155.82C39.7154 156.108 40.0394 156.512 40.2314 157.032L39.3194 157.452C39.1754 157.116 38.9594 156.852 38.6714 156.66C38.3834 156.46 38.0594 156.36 37.6994 156.36C37.3714 156.36 37.1114 156.444 36.9194 156.612C36.7274 156.772 36.6314 156.976 36.6314 157.224C36.6314 157.408 36.6794 157.56 36.7754 157.68C36.8714 157.792 36.9874 157.88 37.1234 157.944C37.2594 158 37.3914 158.048 37.5194 158.088L38.5754 158.4C39.1034 158.552 39.5114 158.788 39.7994 159.108C40.0954 159.428 40.2434 159.812 40.2434 160.26C40.2434 160.62 40.1434 160.944 39.9434 161.232C39.7434 161.52 39.4674 161.744 39.1154 161.904C38.7634 162.064 38.3554 162.144 37.8914 162.144ZM43.7803 162.144C43.1323 162.144 42.5683 161.984 42.0883 161.664C41.6083 161.344 41.2683 160.912 41.0683 160.368L41.9563 159.936C42.1403 160.32 42.3923 160.624 42.7123 160.848C43.0323 161.072 43.3883 161.184 43.7803 161.184C44.1323 161.184 44.4243 161.1 44.6563 160.932C44.8883 160.764 45.0043 160.544 45.0043 160.272C45.0043 160.08 44.9483 159.928 44.8363 159.816C44.7323 159.696 44.6043 159.604 44.4523 159.54C44.3003 159.468 44.1603 159.416 44.0323 159.384L43.0603 159.108C42.4763 158.94 42.0483 158.7 41.7763 158.388C41.5123 158.076 41.3803 157.712 41.3803 157.296C41.3803 156.912 41.4763 156.58 41.6683 156.3C41.8683 156.012 42.1363 155.788 42.4723 155.628C42.8163 155.468 43.2003 155.388 43.6243 155.388C44.1923 155.388 44.7003 155.532 45.1483 155.82C45.6043 156.108 45.9283 156.512 46.1203 157.032L45.2083 157.452C45.0643 157.116 44.8483 156.852 44.5603 156.66C44.2723 156.46 43.9483 156.36 43.5883 156.36C43.2603 156.36 43.0003 156.444 42.8083 156.612C42.6163 156.772 42.5203 156.976 42.5203 157.224C42.5203 157.408 42.5683 157.56 42.6643 157.68C42.7603 157.792 42.8763 157.88 43.0123 157.944C43.1483 158 43.2803 158.048 43.4083 158.088L44.4643 158.4C44.9923 158.552 45.4003 158.788 45.6883 159.108C45.9843 159.428 46.1323 159.812 46.1323 160.26C46.1323 160.62 46.0323 160.944 45.8323 161.232C45.6323 161.52 45.3563 161.744 45.0043 161.904C44.6523 162.064 44.2443 162.144 43.7803 162.144ZM48.724 162L46.504 155.532H47.74L49.504 160.944L49.072 160.932L50.8 155.532H51.856L53.584 160.932L53.152 160.944L54.928 155.532H56.152L53.932 162H52.864L51.16 156.6H51.496L49.792 162H48.724ZM59.8649 162.144C59.2409 162.144 58.6769 162 58.1729 161.712C57.6689 161.416 57.2689 161.012 56.9729 160.5C56.6769 159.988 56.5289 159.408 56.5289 158.76C56.5289 158.112 56.6729 157.536 56.9609 157.032C57.2569 156.528 57.6569 156.128 58.1609 155.832C58.6649 155.536 59.2329 155.388 59.8649 155.388C60.4889 155.388 61.0529 155.536 61.5569 155.832C62.0609 156.12 62.4569 156.516 62.7449 157.02C63.0409 157.524 63.1889 158.104 63.1889 158.76C63.1889 159.416 63.0369 160 62.7329 160.512C62.4289 161.016 62.0249 161.416 61.5209 161.712C61.0249 162 60.4729 162.144 59.8649 162.144ZM59.8649 161.064C60.2649 161.064 60.6249 160.964 60.9449 160.764C61.2729 160.564 61.5289 160.288 61.7129 159.936C61.9049 159.584 62.0009 159.192 62.0009 158.76C62.0009 158.32 61.9049 157.932 61.7129 157.596C61.5289 157.252 61.2729 156.98 60.9449 156.78C60.6249 156.572 60.2649 156.468 59.8649 156.468C59.4569 156.468 59.0889 156.572 58.7609 156.78C58.4409 156.98 58.1849 157.252 57.9929 157.596C57.8009 157.932 57.7049 158.32 57.7049 158.76C57.7049 159.192 57.8009 159.584 57.9929 159.936C58.1849 160.288 58.4409 160.564 58.7609 160.764C59.0889 160.964 59.4569 161.064 59.8649 161.064ZM64.4045 162V155.532H65.4965V156.72L65.3765 156.552C65.5285 156.184 65.7605 155.912 66.0725 155.736C66.3845 155.552 66.7645 155.46 67.2125 155.46H67.6085V156.516H67.0445C66.5885 156.516 66.2205 156.66 65.9405 156.948C65.6605 157.228 65.5205 157.628 65.5205 158.148V162H64.4045ZM71.2998 162.144C70.6918 162.144 70.1438 161.996 69.6558 161.7C69.1758 161.404 68.7958 161 68.5158 160.488C68.2358 159.976 68.0958 159.404 68.0958 158.772C68.0958 158.124 68.2358 157.548 68.5158 157.044C68.7958 156.532 69.1758 156.128 69.6558 155.832C70.1438 155.536 70.6918 155.388 71.2998 155.388C71.8358 155.388 72.3118 155.504 72.7278 155.736C73.1438 155.96 73.4718 156.264 73.7118 156.648L73.5318 156.924V152.916H74.6598V162H73.5678V160.62L73.7118 160.812C73.4878 161.236 73.1598 161.564 72.7278 161.796C72.3038 162.028 71.8278 162.144 71.2998 162.144ZM71.3958 161.064C71.8038 161.064 72.1678 160.964 72.4878 160.764C72.8078 160.564 73.0598 160.292 73.2438 159.948C73.4358 159.596 73.5318 159.204 73.5318 158.772C73.5318 158.332 73.4358 157.94 73.2438 157.596C73.0598 157.244 72.8078 156.968 72.4878 156.768C72.1678 156.568 71.8038 156.468 71.3958 156.468C70.9958 156.468 70.6318 156.572 70.3038 156.78C69.9838 156.98 69.7318 157.252 69.5478 157.596C69.3638 157.932 69.2718 158.324 69.2718 158.772C69.2718 159.204 69.3638 159.596 69.5478 159.948C69.7318 160.292 69.9838 160.564 70.3038 160.764C70.6238 160.964 70.9878 161.064 71.3958 161.064Z" fill="white" fill-opacity="0.6"/>
<g clip-path="url(#clip7_1274_1951)">
<rect x="21" y="169" width="272" height="30" rx="2" fill="#111111"/>
<circle cx="36" cy="184" r="3" fill="#E7E7E7" fill-opacity="0.2"/>
<circle cx="50" cy="184" r="3" fill="#E7E7E7" fill-opacity="0.2"/>
<circle cx="64" cy="184" r="3" fill="#E7E7E7" fill-opacity="0.2"/>
<circle cx="78" cy="184" r="3" fill="#E7E7E7" fill-opacity="0.2"/>
<circle cx="92" cy="184" r="3" fill="#E7E7E7" fill-opacity="0.2"/>
<circle cx="106" cy="184" r="3" fill="#E7E7E7" fill-opacity="0.2"/>
<circle cx="120" cy="184" r="3" fill="#E7E7E7" fill-opacity="0.2"/>
<circle cx="134" cy="184" r="3" fill="#E7E7E7" fill-opacity="0.2"/>
<circle cx="148" cy="184" r="3" fill="#E7E7E7" fill-opacity="0.2"/>
</g>
</g>
<g clip-path="url(#clip8_1274_1951)">
<rect x="21" y="211" width="272" height="30" rx="4" fill="#006ADC"/>
<path d="M130.056 230.144C129.496 230.144 128.976 230.04 128.496 229.832C128.016 229.616 127.608 229.324 127.272 228.956C126.936 228.588 126.688 228.164 126.528 227.684L127.728 227.18C127.944 227.732 128.26 228.156 128.676 228.452C129.092 228.748 129.572 228.896 130.116 228.896C130.436 228.896 130.716 228.848 130.956 228.752C131.196 228.648 131.38 228.504 131.508 228.32C131.644 228.136 131.712 227.924 131.712 227.684C131.712 227.356 131.62 227.096 131.436 226.904C131.252 226.712 130.98 226.56 130.62 226.448L128.94 225.92C128.268 225.712 127.756 225.396 127.404 224.972C127.052 224.54 126.876 224.036 126.876 223.46C126.876 222.956 127 222.516 127.248 222.14C127.496 221.756 127.836 221.456 128.268 221.24C128.708 221.024 129.208 220.916 129.768 220.916C130.304 220.916 130.792 221.012 131.232 221.204C131.672 221.388 132.048 221.644 132.36 221.972C132.68 222.3 132.912 222.68 133.056 223.112L131.88 223.628C131.704 223.156 131.428 222.792 131.052 222.536C130.684 222.28 130.256 222.152 129.768 222.152C129.472 222.152 129.212 222.204 128.988 222.308C128.764 222.404 128.588 222.548 128.46 222.74C128.34 222.924 128.28 223.14 128.28 223.388C128.28 223.676 128.372 223.932 128.556 224.156C128.74 224.38 129.02 224.548 129.396 224.66L130.956 225.152C131.668 225.368 132.204 225.68 132.564 226.088C132.924 226.488 133.104 226.988 133.104 227.588C133.104 228.084 132.972 228.524 132.708 228.908C132.452 229.292 132.096 229.596 131.64 229.82C131.184 230.036 130.656 230.144 130.056 230.144ZM134.442 230V223.508H135.798V230H134.442ZM134.442 222.62V221.06H135.798V222.62H134.442ZM140.395 232.64C139.923 232.64 139.487 232.564 139.087 232.412C138.687 232.26 138.343 232.048 138.055 231.776C137.767 231.512 137.551 231.2 137.407 230.84L138.655 230.324C138.767 230.628 138.971 230.88 139.267 231.08C139.571 231.28 139.943 231.38 140.383 231.38C140.727 231.38 141.035 231.312 141.307 231.176C141.579 231.048 141.795 230.856 141.955 230.6C142.115 230.352 142.195 230.052 142.195 229.7V228.236L142.435 228.512C142.211 228.928 141.899 229.244 141.499 229.46C141.107 229.676 140.663 229.784 140.167 229.784C139.567 229.784 139.027 229.644 138.547 229.364C138.067 229.084 137.687 228.7 137.407 228.212C137.135 227.724 136.999 227.176 136.999 226.568C136.999 225.952 137.135 225.404 137.407 224.924C137.687 224.444 138.063 224.064 138.535 223.784C139.007 223.504 139.547 223.364 140.155 223.364C140.651 223.364 141.091 223.472 141.475 223.688C141.867 223.896 142.187 224.2 142.435 224.6L142.255 224.936V223.508H143.539V229.7C143.539 230.26 143.403 230.76 143.131 231.2C142.867 231.648 142.499 232 142.027 232.256C141.555 232.512 141.011 232.64 140.395 232.64ZM140.323 228.524C140.683 228.524 141.003 228.44 141.283 228.272C141.563 228.096 141.783 227.864 141.943 227.576C142.111 227.28 142.195 226.948 142.195 226.58C142.195 226.212 142.111 225.88 141.943 225.584C141.775 225.288 141.551 225.056 141.271 224.888C140.991 224.712 140.675 224.624 140.323 224.624C139.955 224.624 139.627 224.712 139.339 224.888C139.051 225.056 138.823 225.288 138.655 225.584C138.495 225.872 138.415 226.204 138.415 226.58C138.415 226.94 138.495 227.268 138.655 227.564C138.823 227.86 139.051 228.096 139.339 228.272C139.627 228.44 139.955 228.524 140.323 228.524ZM145.006 230V223.508H146.302V224.78L146.146 224.612C146.306 224.204 146.562 223.896 146.914 223.688C147.266 223.472 147.674 223.364 148.138 223.364C148.618 223.364 149.042 223.468 149.41 223.676C149.778 223.884 150.066 224.172 150.274 224.54C150.482 224.908 150.586 225.332 150.586 225.812V230H149.242V226.172C149.242 225.844 149.182 225.568 149.062 225.344C148.942 225.112 148.77 224.936 148.546 224.816C148.33 224.688 148.082 224.624 147.802 224.624C147.522 224.624 147.27 224.688 147.046 224.816C146.83 224.936 146.662 225.112 146.542 225.344C146.422 225.576 146.362 225.852 146.362 226.172V230H145.006ZM157.375 230.144C156.711 230.144 156.119 230.004 155.599 229.724C155.087 229.444 154.683 229.06 154.387 228.572C154.099 228.084 153.955 227.528 153.955 226.904V221.06H155.371V226.844C155.371 227.236 155.455 227.584 155.623 227.888C155.799 228.192 156.035 228.428 156.331 228.596C156.635 228.764 156.983 228.848 157.375 228.848C157.775 228.848 158.123 228.764 158.419 228.596C158.723 228.428 158.959 228.192 159.127 227.888C159.303 227.584 159.391 227.236 159.391 226.844V221.06H160.795V226.904C160.795 227.528 160.651 228.084 160.363 228.572C160.075 229.06 159.671 229.444 159.151 229.724C158.639 230.004 158.047 230.144 157.375 230.144ZM162.318 232.4V223.508H163.614V224.852L163.458 224.54C163.698 224.172 164.018 223.884 164.418 223.676C164.818 223.468 165.274 223.364 165.786 223.364C166.402 223.364 166.954 223.512 167.442 223.808C167.938 224.104 168.326 224.508 168.606 225.02C168.894 225.532 169.038 226.108 169.038 226.748C169.038 227.388 168.894 227.964 168.606 228.476C168.326 228.988 167.942 229.396 167.454 229.7C166.966 229.996 166.41 230.144 165.786 230.144C165.282 230.144 164.822 230.04 164.406 229.832C163.998 229.624 163.682 229.324 163.458 228.932L163.674 228.68V232.4H162.318ZM165.654 228.884C166.038 228.884 166.378 228.792 166.674 228.608C166.97 228.424 167.202 228.172 167.37 227.852C167.546 227.524 167.634 227.156 167.634 226.748C167.634 226.34 167.546 225.976 167.37 225.656C167.202 225.336 166.97 225.084 166.674 224.9C166.378 224.716 166.038 224.624 165.654 224.624C165.278 224.624 164.938 224.716 164.634 224.9C164.338 225.084 164.102 225.336 163.926 225.656C163.758 225.976 163.674 226.34 163.674 226.748C163.674 227.156 163.758 227.524 163.926 227.852C164.102 228.172 164.338 228.424 164.634 228.608C164.938 228.792 165.278 228.884 165.654 228.884Z" fill="white"/>
</g>
</g>
</g>
<defs>
<linearGradient id="paint0_linear_1274_1951" x1="173.5" y1="0" x2="173.5" y2="283" gradientUnits="userSpaceOnUse">
<stop/>
<stop offset="0.7"/>
<stop offset="1" stop-opacity="0"/>
</linearGradient>
<linearGradient id="paint1_linear_1274_1951" x1="148" y1="273" x2="148" y2="2" gradientUnits="userSpaceOnUse">
<stop stop-color="#181818"/>
<stop offset="1" stop-color="#181818" stop-opacity="0"/>
</linearGradient>
<clipPath id="clip0_1274_1951">
<rect width="298" height="265" fill="white"/>
</clipPath>
<clipPath id="clip1_1274_1951">
<rect width="349" height="269" fill="white" transform="translate(0 1)"/>
</clipPath>
<clipPath id="clip2_1274_1951">
<rect width="258" height="47" fill="white" transform="translate(21 30)"/>
</clipPath>
<clipPath id="clip3_1274_1951">
<rect width="271" height="26" fill="white" transform="translate(21 51)"/>
</clipPath>
<clipPath id="clip4_1274_1951">
<rect width="258" height="51" fill="white" transform="translate(21 87)"/>
</clipPath>
<clipPath id="clip5_1274_1951">
<rect width="273" height="30" fill="white" transform="translate(21 108)"/>
</clipPath>
<clipPath id="clip6_1274_1951">
<rect width="258" height="53" fill="white" transform="translate(21 148)"/>
</clipPath>
<clipPath id="clip7_1274_1951">
<rect width="272" height="30" fill="white" transform="translate(21 169)"/>
</clipPath>
<clipPath id="clip8_1274_1951">
<rect width="258" height="30" fill="white" transform="translate(21 211)"/>
</clipPath>
</defs>
</svg>
